{
.appVersion = "3201";
.formatVersion = 3;
axes = (
{
name = Weight;
tag = wght;
}
);
classes = (
{
automatic = 1;

glyphs = (
{
glyphname = A;
kernLeft = A;
kernRight = A;
layers = (
{
anchors = (
{
name = bottom;
pos = (234,0);
},
{
name = ogonek;
pos = (411,0);
},
{
name = top;
pos = (234,810);
}
);
layerId = "FCD7E481-103E-4A6C-AD70-01DA443B2AD0";
shapes = (
{
closed = 1;
nodes = (
(86,0,l),
(129,224,l),
(339,224,l),
(381,0,l),
(436,0,l),
(265,810,l),
(202,810,l),
(32,0,l)
);
},
{
closed = 1;
nodes = (
(234,744,l),
(332,264,l),
(137,264,l)
);
}
);
width = 468;
},
{
associatedMasterId = "FCD7E481-103E-4A6C-AD70-01DA443B2AD0";
layerId = "D4C96C0E-1BDB-4B18-A31E-E5FE65809F59";
name = b;
width = 458;
},
{
anchors = (
{
name = bottom;
pos = (246,0);
},
{
name = ogonek;
pos = (430,0);
},
{
name = top;
pos = (246,810);
}
);
layerId = "8AC5A1D3-32A8-4416-86FC-94176A419B8F";
shapes = (
{
closed = 1;
nodes = (
(125,0,l),
(164,204,l),
(329,204,l),
(366,0,l),
(473,0,l),
(300,810,l),
(191,810,l),
(19,0,l)
);
},
{
closed = 1;
nodes = (
(246,650,l),
(314,285,l),
(179,285,l)
);
}
);
width = 492;
},
{
anchors = (
{
name = bottom;
pos = (275,0);
},
{
name = ogonek;
pos = (454,0);
},
{
name = top;
pos = (276,810);
}
);
layerId = "F66B25F0-8957-42F3-9BF7-6C5DDCB0258B";
shapes = (
{
closed = 1;
nodes = (
(190,0,l),
(218,171,l),
(337,171,l),
(364,0,l),
(529,0,l),
(378,810,l),
(174,810,l),
(21,0,l)
);
},
{
closed = 1;
nodes = (
(277,594,l),
(320,278,l),
(234,278,l)
);
}
);
width = 551;
}
);
unicode = 65;
userData = {
com.typemytype.robofont.layerData = {
b = {
anchors = (
);
components = (
);
contours = (
);
lib = {
};
name = A;
unicodes = (
);
width = 939;
};
};
};
},
{
glyphname = AE;
kernLeft = AE;
kernRight = AE;
layers = (
{
anchors = (
{
name = bottom;
pos = (315,0);
},
{
name = top;
pos = (343,810);
}
);
layerId = "FCD7E481-103E-4A6C-AD70-01DA443B2AD0";
shapes = (
{
closed = 1;
nodes = (
(49,0,l),
(132,224,l),
(315,224,l),
(315,0,l),
(596,0,l),
(596,47,l),
(372,47,l),
(372,401,l),
(532,401,l),
(532,445,l),
(372,445,l),
(372,762,l),
(596,762,l),
(596,810,l),
(299,810,l),
(-15,0,l)
);
},
{
closed = 1;
nodes = (
(314,727,l),
(314,268,l),
(148,268,l)
);
}
);
width = 629;
},
{
anchors = (
{
name = bottom;
pos = (318,0);
},
{
name = top;
pos = (346,810);
}
);
layerId = "8AC5A1D3-32A8-4416-86FC-94176A419B8F";
shapes = (
{
closed = 1;
nodes = (
(57,0,l),
(143,205,l),
(292,205,l),
(292,0,l),
(605,0,l),
(605,82,l),
(400,82,l),
(400,379,l),
(547,379,l),
(547,460,l),
(400,460,l),
(400,728,l),
(605,728,l),
(605,810,l),
(290,810,l),
(-51,0,l)
);
},
{
closed = 1;
nodes = (
(292,605,l),
(292,286,l),
(173,286,l)
);
}
);
width = 635;
},
{
anchors = (
{
name = bottom;
pos = (354,0);
},
{
name = top;
pos = (442,810);
}
);
layerId = "F66B25F0-8957-42F3-9BF7-6C5DDCB0258B";
shapes = (
{
closed = 1;
nodes = (
(166,0,l),
(235,173,l),
(366,173,l),
(366,0,l),
(689,0,l),
(689,122,l),
(519,122,l),
(519,362,l),
(639,362,l),
(639,488,l),
(519,488,l),
(519,688,l),
(689,688,l),
(689,810,l),
(340,810,l),
(-13,0,l)
);
},
{
closed = 1;
nodes = (
(366,545,l),
(366,286,l),
(271,286,l)
);
}
);
width = 708;
}
);
unicode = 198;
},
{
glyphname = B;
kernLeft = H;
kernRight = B;
layers = (
{
anchors = (
{
name = bottom;
pos = (244,0);
},
{
name = top;
pos = (244,810);
}
);
layerId = "FCD7E481-103E-4A6C-AD70-01DA443B2AD0";
shapes = (
{
closed = 1;
nodes = (
(266,0,ls),
(422,0,o),
(447,114,o),
(447,236,cs),
(447,308,o),
(428,409,o),
(334,437,c),
(413,456,o),
(429,543,o),
(429,608,cs),
(429,720,o),
(391,810,o),
(242,810,cs),
(75,810,l),
(75,0,l)
);
},
{
closed = 1;
nodes = (
(129,412,l),
(267,412,ls),
(364,412,o),
(394,332,o),
(394,235,cs),
(394,104,o),
(366,43,o),
(259,43,cs),
(129,43,l)
);
},
{
closed = 1;
nodes = (
(129,766,l),
(229,766,ls),
(356,766,o),
(378,698,o),
(378,608,cs),
(378,524,o),
(355,455,o),
(266,455,cs),
(129,455,l)
);
}
);
width = 488;
},
{
associatedMasterId = "FCD7E481-103E-4A6C-AD70-01DA443B2AD0";
layerId = "E8310E47-FD66-4677-A33B-45C3AA4121D0";
name = b;
width = 611;
},
{
anchors = (
{
name = bottom;
pos = (262,0);
},
{
name = top;
pos = (262,810);
}
);
layerId = "8AC5A1D3-32A8-4416-86FC-94176A419B8F";
shapes = (
{
closed = 1;
nodes = (
(279,0,ls),
(424,0,o),
(487,91,o),
(487,231,cs),
(487,346,o),
(446,413,o),
(349,436,c),
(428,447,o),
(465,507,o),
(465,607,cs),
(465,746,o),
(395,810,o),
(249,810,cs),
(63,810,l),
(63,0,l)
);
},
{
closed = 1;
nodes = (
(176,386,l),
(243,386,ls),
(342,386,o),
(379,332,o),
(379,231,cs),
(379,126,o),
(353,81,o),
(252,81,cs),
(176,81,l)
);
},
{
closed = 1;
nodes = (
(176,726,l),
(203,726,ls),
(318,726,o),
(367,718,o),
(367,607,cs),
(367,511,o),
(338,472,o),
(243,472,cs),
(176,472,l)
);
}
);
width = 524;
},
{
anchors = (
{
name = bottom;
pos = (295,0);
},
{
name = top;
pos = (295,810);
}
);
layerId = "F66B25F0-8957-42F3-9BF7-6C5DDCB0258B";
shapes = (
{
closed = 1;
nodes = (
(309,0,ls),
(465,0,o),
(554,72,o),
(554,240,cs),
(554,355,o),
(504,423,o),
(410,435,c),
(484,449,o),
(529,500,o),
(529,598,cs),
(529,778,o),
(410,810,o),
(271,810,cs),
(60,810,l),
(60,0,l)
);
},
{
closed = 1;
nodes = (
(239,368,l),
(276,368,ls),
(354,368,o),
(381,334,o),
(381,243,cs),
(381,165,o),
(356,125,o),
(277,125,cs),
(239,125,l)
);
},
{
closed = 1;
nodes = (
(239,690,l),
(270,690,ls),
(337,690,o),
(372,657,o),
(372,593,cs),
(372,525,o),
(355,486,o),
(274,486,cs),
(239,486,l)
);
}
);
width = 588;
}
);
unicode = 66;
userData = {
com.fontlab.hintData = {
hhints = (
{
position = 0;
width = 287;
},
{
position = 742;
width = 262;
},
{
position = 1388;
width = 270;
}
);
vhints = (
{
position = 745;
width = 360;
},
{
position = 761;
width = 398;
}
);
};
com.typemytype.robofont.layerData = {
b = {
anchors = (
);
components = (
);
contours = (
);
lib = {
};
name = B;
unicodes = (
);
width = 1251.12708;
};
};
};
},
{
glyphname = C;
kernLeft = O;
kernRight = C;
layers = (
{
anchors = (
{
name = bottom;
pos = (245,0);
},
{
name = top;
pos = (245,810);
}
);
layerId = "FCD7E481-103E-4A6C-AD70-01DA443B2AD0";
shapes = (
{
closed = 1;
nodes = (
(401,-11,o),
(440,88,o),
(440,227,cs),
(440,267,l),
(388,267,l),
(388,218,ls),
(388,107,o),
(363,34,o),
(255,34,cs),
(143,34,o),
(113,105,o),
(113,225,cs),
(113,583,ls),
(113,697,o),
(138,774,o),
(255,774,cs),
(361,774,o),
(388,706,o),
(388,591,cs),
(388,550,l),
(440,550,l),
(440,591,ls),
(440,729,o),
(396,819,o),
(255,819,cs),
(100,819,o),
(58,716,o),
(58,577,cs),
(58,233,ls),
(58,98,o),
(95,-11,o),
(255,-11,cs)
);
}
);
width = 489;
},
{
associatedMasterId = "FCD7E481-103E-4A6C-AD70-01DA443B2AD0";
layerId = "314F922A-EAB9-4FAA-A6A3-AA6B58EEB1E3";
name = b;
width = 579;
},
{
anchors = (
{
name = bottom;
pos = (258,0);
},
{
name = top;
pos = (258,810);
}
);
layerId = "8AC5A1D3-32A8-4416-86FC-94176A419B8F";
shapes = (
{
closed = 1;
nodes = (
(425,-9,o),
(470,92,o),
(470,241,cs),
(470,301,l),
(363,301,l),
(363,241,ls),
(363,145,o),
(358,80,o),
(267,80,cs),
(189,80,o),
(162,120,o),
(162,242,cs),
(162,563,ls),
(162,663,o),
(171,729,o),
(267,729,cs),
(361,729,o),
(363,667,o),
(363,577,cs),
(363,520,l),
(470,520,l),
(470,584,ls),
(470,730,o),
(417,817,o),
(266,817,cs),
(94,817,o),
(48,710,o),
(48,546,cs),
(48,260,ls),
(48,109,o),
(94,-9,o),
(266,-9,cs)
);
}
);
width = 515;
},
{
anchors = (
{
name = bottom;
pos = (282,0);
},
{
name = top;
pos = (290,810);
}
);
layerId = "F66B25F0-8957-42F3-9BF7-6C5DDCB0258B";
shapes = (
{
closed = 1;
nodes = (
(473,-12,o),
(525,91,o),
(525,229,cs),
(525,299,l),
(350,299,l),
(350,214,ls),
(350,165,o),
(348,115,o),
(292,115,cs),
(239,115,o),
(230,159,o),
(230,214,cs),
(230,595,ls),
(230,644,o),
(235,695,o),
(292,695,cs),
(349,695,o),
(350,645,o),
(350,598,cs),
(350,517,l),
(525,517,l),
(525,587,ls),
(525,725,o),
(471,821,o),
(292,821,cs),
(107,821,o),
(49,718,o),
(49,550,cs),
(49,258,ls),
(49,94,o),
(107,-12,o),
(292,-12,cs)
);
}
);
width = 563;
}
);
unicode = 67;
userData = {
com.fontlab.hintData = {
hhints = (
{
position = -26;
width = 284;
},
{
position = 1400;
width = 284;
}
);
vhints = (
{
position = 78;
width = 420;
},
{
position = 686;
width = 406;
}
);
};
com.typemytype.robofont.layerData = {
b = {
anchors = (
);
components = (
);
contours = (
);
lib = {
};
name = C;
unicodes = (
);
width = 1186;
};
};
};
},
{
glyphname = D;
kernLeft = H;
kernRight = O;
layers = (
{
anchors = (
{
name = bottom;
pos = (259,0);
},
{
name = center;
pos = (259,405);
},
{
name = top;
pos = (259,810);
}
);
layerId = "FCD7E481-103E-4A6C-AD70-01DA443B2AD0";
shapes = (
{
closed = 1;
nodes = (
(257,0,ls),
(414,0,o),
(459,102,o),
(459,241,cs),
(459,577,ls),
(459,707,o),
(413,810,o),
(252,810,cs),
(75,810,l),
(75,0,l)
);
},
{
closed = 1;
nodes = (
(129,766,l),
(252,766,ls),
(376,766,o),
(404,691,o),
(404,573,cs),
(404,247,ls),
(404,137,o),
(385,43,o),
(254,43,cs),
(129,43,l)
);
}
);
width = 517;
},
{
associatedMasterId = "FCD7E481-103E-4A6C-AD70-01DA443B2AD0";
layerId = "9ED8E04F-913D-4218-B628-E7214A9A4D38";
name = b;
width = 605;
},
{
anchors = (
{
name = bottom;
pos = (264,0);
},
{
name = center;
pos = (264,405);
},
{
name = top;
pos = (264,810);
}
);
layerId = "8AC5A1D3-32A8-4416-86FC-94176A419B8F";
shapes = (
{
closed = 1;
nodes = (
(248,0,ls),
(418,0,o),
(479,93,o),
(479,265,cs),
(479,563,ls),
(479,727,o),
(419,810,o),
(239,810,cs),
(63,810,l),
(63,0,l)
);
},
{
closed = 1;
nodes = (
(176,726,l),
(237,726,ls),
(353,726,o),
(365,674,o),
(365,549,cs),
(365,286,ls),
(365,155,o),
(363,81,o),
(240,81,cs),
(176,81,l)
);
}
);
width = 527;
},
{
anchors = (
{
name = bottom;
pos = (293,0);
},
{
name = center;
pos = (293,405);
},
{
name = top;
pos = (293,810);
}
);
layerId = "F66B25F0-8957-42F3-9BF7-6C5DDCB0258B";
shapes = (
{
closed = 1;
nodes = (
(267,0,ls),
(476,0,o),
(537,78,o),
(537,260,cs),
(537,554,ls),
(537,734,o),
(476,810,o),
(265,810,cs),
(60,810,l),
(60,0,l)
);
},
{
closed = 1;
nodes = (
(239,685,l),
(266,685,ls),
(345,685,o),
(353,656,o),
(353,585,cs),
(353,232,ls),
(353,159,o),
(348,124,o),
(267,124,cs),
(239,124,l)
);
}
);
width = 586;
}
);
unicode = 68;
userData = {
com.fontlab.hintData = {
hhints = (
{
position = 0;
width = 284;
},
{
position = 1374;
width = 284;
}
);
vhints = (
{
position = 694;
width = 424;
}
);
};
com.typemytype.robofont.layerData = {
b = {
anchors = (
);
components = (
);
contours = (
);
lib = {
};
name = D;
unicodes = (
);
width = 1240;
};
};
};
},
{
glyphname = Dcroat;
kernLeft = Eth;
kernRight = O;
layers = (
{
layerId = "FCD7E481-103E-4A6C-AD70-01DA443B2AD0";
shapes = (
{
closed = 1;
nodes = (
(258,0,ls),
(414,0,o),
(460,102,o),
(460,241,cs),
(460,577,ls),
(460,707,o),
(414,810,o),
(253,810,cs),
(75,810,l),
(75,445,l),
(10,445,l),
(10,408,l),
(75,408,l),
(75,0,l)
);
},
{
closed = 1;
nodes = (
(130,408,l),
(224,408,l),
(224,445,l),
(130,445,l),
(130,766,l),
(252,766,ls),
(377,766,o),
(405,691,o),
(405,573,cs),
(405,247,ls),
(405,137,o),
(386,43,o),
(255,43,cs),
(130,43,l)
);
}
);
width = 518;
},
{
associatedMasterId = "FCD7E481-103E-4A6C-AD70-01DA443B2AD0";
layerId = "DA1B3E1C-5EFC-4502-B0DD-04EB39C7C163";
name = b;
width = 611;
},
{
layerId = "8AC5A1D3-32A8-4416-86FC-94176A419B8F";
shapes = (
{
closed = 1;
nodes = (
(250,0,ls),
(420,0,o),
(480,93,o),
(480,265,cs),
(480,563,ls),
(480,727,o),
(422,810,o),
(242,810,cs),
(65,810,l),
(65,453,l),
(17,453,l),
(17,388,l),
(65,388,l),
(65,0,l)
);
},
{
closed = 1;
nodes = (
(179,388,l),
(239,388,l),
(239,453,l),
(179,453,l),
(179,726,l),
(239,726,ls),
(355,726,o),
(367,674,o),
(367,549,cs),
(367,286,ls),
(367,155,o),
(365,81,o),
(242,81,cs),
(179,81,l)
);
}
);
width = 529;
},
{
layerId = "F66B25F0-8957-42F3-9BF7-6C5DDCB0258B";
shapes = (
{
closed = 1;
nodes = (
(272,0,ls),
(480,0,o),
(541,78,o),
(541,260,cs),
(541,554,ls),
(541,734,o),
(482,810,o),
(269,810,cs),
(64,810,l),
(64,456,l),
(13,456,l),
(13,374,l),
(64,374,l),
(64,0,l)
);
},
{
closed = 1;
nodes = (
(239,374,l),
(288,374,l),
(288,456,l),
(239,456,l),
(239,685,l),
(275,685,ls),
(353,685,o),
(362,656,o),
(362,585,cs),
(362,232,ls),
(362,159,o),
(356,124,o),
(275,124,cs),
(239,124,l)
);
}
);
width = 589;
}
);
unicode = 272;
userData = {
com.fontlab.hintData = {
hhints = (
{
position = 0;
width = 284;
},
{
position = 1374;
width = 284;
}
);
vhints = (
{
position = 694;
width = 424;
}
);
};
com.typemytype.robofont.layerData = {
b = {
anchors = (
);
components = (
);
contours = (
);
lib = {
};
name = Dcroat;
unicodes = (
);
width = 1251;
};
};
};
},
{
glyphname = Eth;
kernLeft = Eth;
kernRight = O;
layers = (
{
layerId = "FCD7E481-103E-4A6C-AD70-01DA443B2AD0";
shapes = (
{
closed = 1;
nodes = (
(257,0,ls),
(414,0,o),
(459,102,o),
(459,241,cs),
(459,577,ls),
(459,707,o),
(413,810,o),
(252,810,cs),
(75,810,l),
(75,445,l),
(9,445,l),
(9,408,l),
(75,408,l),
(75,0,l)
);
},
{
closed = 1;
nodes = (
(129,408,l),
(223,408,l),
(223,445,l),
(129,445,l),
(129,766,l),
(252,766,ls),
(376,766,o),
(404,691,o),
(404,573,cs),
(404,247,ls),
(404,137,o),
(385,43,o),
(254,43,cs),
(129,43,l)
);
}
);
width = 561;
},
{
layerId = "8AC5A1D3-32A8-4416-86FC-94176A419B8F";
shapes = (
{
closed = 1;
nodes = (
(248,0,ls),
(418,0,o),
(479,93,o),
(479,265,cs),
(479,563,ls),
(479,727,o),
(419,810,o),
(239,810,cs),
(63,810,l),
(63,453,l),
(14,453,l),
(14,388,l),
(63,388,l),
(63,0,l)
);
},
{
closed = 1;
nodes = (
(176,388,l),
(237,388,l),
(237,453,l),
(176,453,l),
(176,726,l),
(237,726,ls),
(353,726,o),
(365,674,o),
(365,549,cs),
(365,286,ls),
(365,155,o),
(363,81,o),
(240,81,cs),
(176,81,l)
);
}
);
width = 518;
},
{
layerId = "F66B25F0-8957-42F3-9BF7-6C5DDCB0258B";
shapes = (
{
closed = 1;
nodes = (
(259,0,ls),
(468,0,o),
(529,78,o),
(529,260,cs),
(529,554,ls),
(529,734,o),
(469,810,o),
(257,810,cs),
(51,810,l),
(51,459,l),
(7,459,l),
(7,370,l),
(51,370,l),
(51,0,l)
);
},
{
closed = 1;
nodes = (
(231,370,l),
(272,370,l),
(272,459,l),
(231,459,l),
(231,685,l),
(259,685,ls),
(338,685,o),
(346,656,o),
(346,585,cs),
(346,232,ls),
(346,159,o),
(340,124,o),
(259,124,cs),
(231,124,l)
);
}
);
width = 563;
}
);
unicode = 208;
userData = {
com.fontlab.hintData = {
hhints = (
{
position = 0;
width = 284;
},
{
position = 1374;
width = 284;
}
);
vhints = (
{
position = 694;
width = 424;
}
);
};
};
},
{
glyphname = E;
kernLeft = H;
kernRight = E;
layers = (
{
anchors = (
{
name = bottom;
pos = (216,0);
},
{
name = ogonek;
pos = (314,0);
},
{
name = top;
pos = (217,810);
},
{
name = topleft;
pos = (20,810);
}
);
layerId = "FCD7E481-103E-4A6C-AD70-01DA443B2AD0";
shapes = (
{
closed = 1;
nodes = (
(357,0,l),
(357,43,l),
(129,43,l),
(129,399,l),
(314,399,l),
(314,441,l),
(129,441,l),
(129,766,l),
(354,766,l),
(354,810,l),
(74,810,l),
(74,0,l)
);
}
);
width = 393;
},
{
associatedMasterId = "FCD7E481-103E-4A6C-AD70-01DA443B2AD0";
layerId = "5880548F-8115-4AD8-B1A9-2C993EC503FD";
name = b;
width = 461;
},
{
anchors = (
{
name = bottom;
pos = (204,0);
},
{
name = ogonek;
pos = (316,0);
},
{
name = top;
pos = (224,810);
},
{
name = topleft;
pos = (20,810);
}
);
layerId = "8AC5A1D3-32A8-4416-86FC-94176A419B8F";
shapes = (
{
closed = 1;
nodes = (
(379,0,l),
(379,81,l),
(176,81,l),
(176,378,l),
(339,378,l),
(339,458,l),
(176,458,l),
(176,726,l),
(377,726,l),
(377,810,l),
(63,810,l),
(63,0,l)
);
}
);
width = 407;
},
{
anchors = (
{
name = bottom;
pos = (224,0);
},
{
name = ogonek;
pos = (314,0);
},
{
name = top;
pos = (244,810);
},
{
name = topleft;
pos = (20,810);
}
);
layerId = "F66B25F0-8957-42F3-9BF7-6C5DDCB0258B";
shapes = (
{
closed = 1;
nodes = (
(426,0,l),
(426,121,l),
(239,121,l),
(239,363,l),
(380,363,l),
(380,487,l),
(239,487,l),
(239,688,l),
(424,688,l),
(424,810,l),
(60,810,l),
(60,0,l)
);
}
);
width = 447;
}
);
unicode = 69;
userData = {
com.typemytype.robofont.layerData = {
b = {
anchors = (
);
components = (
);
contours = (
);
lib = {
};
name = E;
unicodes = (
);
width = 945;
};
};
};
},
{
glyphname = Schwa;
kernLeft = O;
kernRight = O;
layers = (
{
layerId = "FCD7E481-103E-4A6C-AD70-01DA443B2AD0";
shapes = (
{
closed = 1;
nodes = (
(412,-11,o),
(454,91,o),
(454,229,cs),
(454,584,ls),
(454,721,o),
(407,819,o),
(254,819,cs),
(100,819,o),
(54,722,o),
(54,584,cs),
(54,514,l),
(109,514,l),
(109,592,ls),
(109,702,o),
(137,774,o),
(254,774,cs),
(371,774,o),
(399,702,o),
(399,592,cs),
(399,421,l),
(54,421,l),
(54,230,ls),
(54,92,o),
(96,-11,o),
(254,-11,cs)
);
},
{
closed = 1;
nodes = (
(137,34,o),
(109,108,o),
(109,218,cs),
(109,376,l),
(399,376,l),
(399,218,l),
(399,108,o),
(370,34,o),
(254,34,cs)
);
}
);
width = 512;
},
{
layerId = "8AC5A1D3-32A8-4416-86FC-94176A419B8F";
shapes = (
{
closed = 1;
nodes = (
(429,-9,o),
(487,94,o),
(487,253,cs),
(487,561,ls),
(487,720,o),
(429,817,o),
(266,817,cs),
(100,817,o),
(44,721,o),
(44,561,cs),
(44,514,l),
(158,514,l),
(158,584,ls),
(158,674,o),
(175,729,o),
(266,729,cs),
(357,729,o),
(373,674,o),
(373,584,cs),
(373,421,l),
(44,421,l),
(44,254,ls),
(44,93,o),
(101,-9,o),
(266,-9,cs)
);
},
{
closed = 1;
nodes = (
(175,80,o),
(158,139,o),
(158,229,cs),
(158,332,l),
(373,332,l),
(373,229,ls),
(373,139,o),
(356,80,o),
(266,80,cs)
);
}
);
width = 535;
},
{
layerId = "F66B25F0-8957-42F3-9BF7-6C5DDCB0258B";
shapes = (
{
closed = 1;
nodes = (
(440,-12,o),
(533,82,o),
(533,244,cs),
(533,564,ls),
(533,726,o),
(440,821,o),
(291,821,cs),
(136,821,o),
(45,737,o),
(45,574,cs),
(45,491,l),
(228,491,l),
(228,606,ls),
(228,672,o),
(249,695,o),
(288,695,cs),
(329,695,o),
(350,672,o),
(350,606,cs),
(350,421,l),
(45,421,l),
(45,236,ls),
(45,74,o),
(134,-12,o),
(291,-12,cs)
);
},
{
closed = 1;
nodes = (
(248,114,o),
(228,140,o),
(228,202,cs),
(228,313,l),
(350,313,l),
(350,202,ls),
(350,140,o),
(330,114,o),
(289,114,cs)
);
}
);
width = 582;
}
);
metricLeft = "=O-4";
metricRight = O;
unicode = 399;
},
{
color = 4;
glyphname = Ezh;
kernLeft = Ezh;
kernRight = Ezh;
layers = (
{
anchors = (
{
name = bottom;
pos = (239,0);
},
{
name = top;
pos = (239,810);
}
);
guides = (
{
angle = 90;
pos = (422,356);
}
);
layerId = "FCD7E481-103E-4A6C-AD70-01DA443B2AD0";
shapes = (
{
closed = 1;
nodes = (
(372,-11,o),
(418,83,o),
(418,242,cs),
(418,423,o),
(340,496,o),
(197,496,cs),
(126,496,l),
(144,460,l),
(378,776,l),
(378,810,l),
(79,810,l),
(79,767,l),
(314,767,l),
(114,497,l),
(114,454,l),
(194,454,ls),
(308,454,o),
(363,387,o),
(363,234,cs),
(363,133,o),
(350,32,o),
(231,32,cs),
(145,32,o),
(110,84,o),
(110,179,cs),
(110,181,o),
(110,192,o),
(110,195,c),
(60,195,l),
(60,180,l),
(60,63,o),
(108,-11,o),
(232,-11,cs)
);
}
);
width = 477;
},
{
anchors = (
{
name = bottom;
pos = (228,0);
},
{
name = top;
pos = (228,810);
}
);
layerId = "8AC5A1D3-32A8-4416-86FC-94176A419B8F";
shapes = (
{
closed = 1;
nodes = (
(371,-9,o),
(428,85,o),
(428,229,cs),
(428,393,o),
(382,497,o),
(222,497,cs),
(157,497,l),
(176,460,l),
(392,761,l),
(392,810,l),
(47,810,l),
(47,729,l),
(256,729,l),
(85,499,l),
(85,433,l),
(170,433,ls),
(286,433,o),
(321,368,o),
(321,229,cs),
(321,140,o),
(305,80,o),
(228,80,cs),
(154,80,o),
(136,135,o),
(136,208,cs),
(136,214,o),
(136,220,o),
(136,226,c),
(30,226,l),
(30,199,ls),
(30,70,o),
(96,-9,o),
(228,-9,cs)
);
}
);
width = 456;
},
{
associatedMasterId = "FCD7E481-103E-4A6C-AD70-01DA443B2AD0";
guides = (
{
angle = 90;
pos = (405,356);
}
);
layerId = "7A18B8B3-38EA-446C-BB7F-D9884F46335C";
name = "Oct 23 17, 15:12";
shapes = (
{
closed = 1;
nodes = (
(361,776,l),
(361,810,l),
(68,810,l),
(68,767,l),
(297,767,l),
(89,477,l),
(89,434,l),
(185,434,ls),
(311,434,o),
(346,357,o),
(346,215,cs),
(346,71,o),
(288,32,o),
(213,32,cs),
(128,32,o),
(93,85,o),
(93,179,cs),
(93,181,o),
(93,193,o),
(93,195,c),
(43,195,l),
(43,180,ls),
(43,65,o),
(91,-11,o),
(213,-11,cs),
(348,-11,o),
(401,83,o),
(401,216,cs),
(401,387,o),
(354,473,o),
(182,473,cs),
(148,473,l),
(148,477,l)
);
}
);
width = 440;
},
{
anchors = (
{
name = bottom;
pos = (252,0);
},
{
name = top;
pos = (252,810);
}
);
layerId = "F66B25F0-8957-42F3-9BF7-6C5DDCB0258B";
shapes = (
{
closed = 1;
nodes = (
(408,-15,o),
(468,90,o),
(468,238,cs),
(468,386,o),
(429,493,o),
(266,493,cs),
(202,493,l),
(241,455,l),
(435,709,l),
(435,810,l),
(47,810,l),
(47,689,l),
(255,689,l),
(103,484,l),
(103,395,l),
(190,395,ls),
(285,395,o),
(303,351,o),
(303,234,cs),
(303,150,o),
(294,112,o),
(249,112,cs),
(204,112,o),
(190,147,o),
(190,239,cs),
(190,250,o),
(190,266,o),
(190,268,c),
(23,268,l),
(23,239,ls),
(23,88,o),
(77,-15,o),
(247,-15,cs)
);
}
);
width = 503;
}
);
unicode = 439;
},
{
glyphname = F;
kernLeft = H;
kernRight = F;
layers = (
{
anchors = (
{
name = bottom;
pos = (192,0);
},
{
name = top;
pos = (192,810);
}
);
layerId = "FCD7E481-103E-4A6C-AD70-01DA443B2AD0";
shapes = (
{
closed = 1;
nodes = (
(129,0,l),
(129,399,l),
(323,399,l),
(323,441,l),
(129,441,l),
(129,767,l),
(354,767,l),
(354,810,l),
(75,810,l),
(75,0,l)
);
}
);
width = 383;
},
{
associatedMasterId = "FCD7E481-103E-4A6C-AD70-01DA443B2AD0";
layerId = "26B32ED9-B6AC-4014-B12F-A3339D548441";
name = b;
width = 380;
},
{
anchors = (
{
name = bottom;
pos = (196,0);
},
{
name = top;
pos = (196,810);
}
);
layerId = "8AC5A1D3-32A8-4416-86FC-94176A419B8F";
shapes = (
{
closed = 1;
nodes = (
(176,0,l),
(176,379,l),
(331,379,l),
(331,459,l),
(176,459,l),
(176,729,l),
(376,729,l),
(376,810,l),
(63,810,l),
(63,0,l)
);
}
);
width = 391;
},
{
anchors = (
{
name = bottom;
pos = (218,0);
},
{
name = top;
pos = (218,810);
}
);
layerId = "F66B25F0-8957-42F3-9BF7-6C5DDCB0258B";
shapes = (
{
closed = 1;
nodes = (
(239,0,l),
(239,360,l),
(388,360,l),
(388,485,l),
(239,485,l),
(239,689,l),
(410,689,l),
(410,810,l),
(60,810,l),
(60,0,l)
);
}
);
width = 434;
}
);
unicode = 70;
userData = {
com.typemytype.robofont.layerData = {
b = {
anchors = (
);
components = (
);
contours = (
);
lib = {
};
name = F;
unicodes = (
);
width = 778;
};
};
};
},
{
glyphname = G;
kernLeft = O;
kernRight = G;
layers = (
{
anchors = (
{
name = bottom;
pos = (255,0);
},
{
name = top;
pos = (255,810);
}
);
layerId = "FCD7E481-103E-4A6C-AD70-01DA443B2AD0";
shapes = (
{
closed = 1;
nodes = (
(337,-11,o),
(380,28,o),
(400,91,c),
(408,0,l),
(443,0,l),
(443,386,l),
(263,386,l),
(263,344,l),
(392,344,l),
(392,225,ls),
(392,106,o),
(363,34,o),
(256,34,cs),
(141,34,o),
(113,110,o),
(113,228,cs),
(113,581,ls),
(113,694,o),
(136,774,o),
(255,774,cs),
(360,774,o),
(390,710,o),
(390,591,cs),
(390,560,l),
(442,560,l),
(442,588,ls),
(442,730,o),
(396,819,o),
(255,819,cs),
(99,819,o),
(58,721,o),
(58,579,cs),
(58,235,ls),
(58,92,o),
(98,-11,o),
(252,-11,cs)
);
}
);
width = 510;
},
{
associatedMasterId = "FCD7E481-103E-4A6C-AD70-01DA443B2AD0";
layerId = "C7927AC4-7471-46D4-9EEF-87B1BAAF863C";
name = b;
width = 598;
},
{
anchors = (
{
name = bottom;
pos = (268,0);
},
{
name = top;
pos = (268,810);
}
);
layerId = "8AC5A1D3-32A8-4416-86FC-94176A419B8F";
shapes = (
{
closed = 1;
nodes = (
(336,-10,o),
(378,33,o),
(400,93,c),
(411,0,l),
(482,0,l),
(482,401,l),
(277,401,l),
(277,321,l),
(380,321,l),
(380,265,ls),
(380,143,o),
(358,80,o),
(270,80,cs),
(181,80,o),
(161,137,o),
(161,254,cs),
(161,554,ls),
(161,654,o),
(167,729,o),
(267,729,cs),
(358,729,o),
(370,681,o),
(370,576,cs),
(370,551,l),
(476,551,l),
(476,581,ls),
(476,741,o),
(417,817,o),
(265,817,cs),
(94,817,o),
(48,714,o),
(48,537,cs),
(48,266,ls),
(48,91,o),
(104,-10,o),
(256,-10,cs)
);
}
);
width = 535;
},
{
anchors = (
{
name = bottom;
pos = (291,0);
},
{
name = top;
pos = (291,810);
}
);
layerId = "F66B25F0-8957-42F3-9BF7-6C5DDCB0258B";
shapes = (
{
closed = 1;
nodes = (
(342,-12,o),
(380,21,o),
(402,67,c),
(412,0,l),
(530,0,l),
(530,420,l),
(296,420,l),
(296,315,l),
(369,315,l),
(369,220,ls),
(369,165,o),
(354,115,o),
(299,115,cs),
(244,115,o),
(232,163,o),
(232,218,cs),
(232,593,ls),
(232,642,o),
(236,695,o),
(294,695,cs),
(350,695,o),
(354,649,o),
(354,598,cs),
(354,532,l),
(529,532,l),
(529,584,ls),
(529,725,o),
(471,821,o),
(292,821,cs),
(107,821,o),
(49,712,o),
(49,540,cs),
(49,268,ls),
(49,101,o),
(103,-12,o),
(271,-12,cs)
);
}
);
width = 582;
}
);
unicode = 71;
userData = {
com.fontlab.hintData = {
hhints = (
{
position = -26;
width = 285;
},
{
position = 1400;
width = 284;
}
);
vhints = (
{
position = 80;
width = 424;
}
);
};
com.typemytype.robofont.layerData = {
b = {
anchors = (
);
components = (
);
contours = (
);
lib = {
};
name = G;
unicodes = (
);
width = 1224;
};
};
};
},
{
color = 4;
glyphname = Gstroke;
kernLeft = O;
layers = (
{
layerId = "FCD7E481-103E-4A6C-AD70-01DA443B2AD0";
shapes = (
{
closed = 1;
nodes = (
(520,229,l),
(520,266,l),
(306,266,l),
(306,229,l)
);
},
{
ref = G;
}
);
width = 510;
},
{
layerId = "8AC5A1D3-32A8-4416-86FC-94176A419B8F";
shapes = (
{
closed = 1;
nodes = (
(537,208,l),
(537,273,l),
(314,273,l),
(314,208,l)
);
},
{
ref = G;
}
);
width = 535;
},
{
layerId = "F66B25F0-8957-42F3-9BF7-6C5DDCB0258B";
shapes = (
{
closed = 1;
nodes = (
(586,189,l),
(586,278,l),
(321,278,l),
(321,189,l)
);
},
{
alignment = -1;
ref = G;
}
);
width = 582;
}
);
unicode = 484;
},
{
glyphname = H;
kernLeft = H;
kernRight = H;
layers = (
{
anchors = (
{
name = bottom;
pos = (271,0);
},
{
name = center;
pos = (271,405);
},
{
name = top;
pos = (271,810);
},
{
name = topleft;
pos = (20,810);
}
);
layerId = "FCD7E481-103E-4A6C-AD70-01DA443B2AD0";
shapes = (
{
closed = 1;
nodes = (
(129,0,l),
(129,403,l),
(413,403,l),
(413,0,l),
(467,0,l),
(467,810,l),
(413,810,l),
(413,445,l),
(129,445,l),
(129,810,l),
(75,810,l),
(75,0,l)
);
}
);
width = 542;
},
{
associatedMasterId = "FCD7E481-103E-4A6C-AD70-01DA443B2AD0";
layerId = "49018FD0-0B7E-4180-A651-3533F4F1927E";
name = b;
width = 626;
},
{
anchors = (
{
name = bottom;
pos = (281,0);
},
{
name = center;
pos = (281,405);
},
{
name = top;
pos = (281,810);
},
{
name = topleft;
pos = (20,810);
}
);
layerId = "8AC5A1D3-32A8-4416-86FC-94176A419B8F";
shapes = (
{
closed = 1;
nodes = (
(176,0,l),
(176,379,l),
(384,379,l),
(384,0,l),
(497,0,l),
(497,810,l),
(384,810,l),
(384,460,l),
(176,460,l),
(176,810,l),
(63,810,l),
(63,0,l)
);
}
);
width = 561;
},
{
anchors = (
{
name = bottom;
pos = (305,0);
},
{
name = center;
pos = (305,405);
},
{
name = top;
pos = (305,810);
},
{
name = topleft;
pos = (20,810);
}
);
layerId = "F66B25F0-8957-42F3-9BF7-6C5DDCB0258B";
shapes = (
{
closed = 1;
nodes = (
(242,0,l),
(242,354,l),
(368,354,l),
(368,0,l),
(547,0,l),
(547,810,l),
(368,810,l),
(368,482,l),
(242,482,l),
(242,810,l),
(63,810,l),
(63,0,l)
);
}
);
width = 610;
}
);
unicode = 72;
userData = {
com.typemytype.robofont.layerData = {
b = {
anchors = (
);
components = (
);
contours = (
);
lib = {
};
name = H;
unicodes = (
);
width = 1283;
};
};
};
},
{
glyphname = Hbar;
kernLeft = H;
kernRight = H;
layers = (
{
layerId = "FCD7E481-103E-4A6C-AD70-01DA443B2AD0";
shapes = (
{
closed = 1;
nodes = (
(129,0,l),
(129,403,l),
(413,403,l),
(413,0,l),
(467,0,l),
(467,640,l),
(505,640,l),
(505,672,l),
(467,672,l),
(467,810,l),
(413,810,l),
(413,672,l),
(129,672,l),
(129,810,l),
(74,810,l),
(74,672,l),
(37,672,l),
(37,640,l),
(74,640,l),
(74,0,l)
);
},
{
closed = 1;
nodes = (
(129,640,l),
(413,640,l),
(413,445,l),
(129,445,l)
);
}
);
width = 542;
},
{
layerId = "8AC5A1D3-32A8-4416-86FC-94176A419B8F";
shapes = (
{
closed = 1;
nodes = (
(176,0,l),
(176,379,l),
(384,379,l),
(384,0,l),
(497,0,l),
(497,619,l),
(544,619,l),
(544,677,l),
(497,677,l),
(497,810,l),
(384,810,l),
(384,677,l),
(176,677,l),
(176,810,l),
(63,810,l),
(63,677,l),
(16,677,l),
(16,619,l),
(63,619,l),
(63,0,l)
);
},
{
closed = 1;
nodes = (
(176,619,l),
(384,619,l),
(384,460,l),
(176,460,l)
);
}
);
width = 561;
},
{
layerId = "F66B25F0-8957-42F3-9BF7-6C5DDCB0258B";
shapes = (
{
closed = 1;
nodes = (
(217,0,l),
(217,354,l),
(334,354,l),
(334,0,l),
(514,0,l),
(514,615,l),
(553,615,l),
(553,671,l),
(514,671,l),
(514,810,l),
(334,810,l),
(334,671,l),
(217,671,l),
(217,810,l),
(38,810,l),
(38,671,l),
(-13,671,l),
(-13,615,l),
(38,615,l),
(38,0,l)
);
},
{
closed = 1;
nodes = (
(217,615,l),
(334,615,l),
(334,482,l),
(217,482,l)
);
}
);
width = 540;
}
);
unicode = 294;
},
{
glyphname = I;
kernLeft = H;
kernRight = H;
layers = (
{
anchors = (
{
name = bottom;
pos = (103,0);
},
{
name = ogonek;
pos = (103,0);
},
{
name = top;
pos = (103,810);
},
{
name = topleft;
pos = (20,810);
}
);
layerId = "FCD7E481-103E-4A6C-AD70-01DA443B2AD0";
shapes = (
{
closed = 1;
nodes = (
(130,0,l),
(130,810,l),
(76,810,l),
(76,0,l)
);
}
);
width = 206;
},
{
associatedMasterId = "FCD7E481-103E-4A6C-AD70-01DA443B2AD0";
layerId = "5B0FD03C-CFC8-4625-A0D4-FE6530BB40DE";
name = b;
width = 318;
},
{
anchors = (
{
name = bottom;
pos = (124,0);
},
{
name = ogonek;
pos = (125,0);
},
{
name = top;
pos = (124,810);
},
{
name = topleft;
pos = (20,810);
}
);
layerId = "8AC5A1D3-32A8-4416-86FC-94176A419B8F";
shapes = (
{
closed = 1;
nodes = (
(180,0,l),
(180,810,l),
(69,810,l),
(69,0,l)
);
}
);
width = 248;
},
{
anchors = (
{
name = bottom;
pos = (150,0);
},
{
name = ogonek;
pos = (151,0);
},
{
name = top;
pos = (150,810);
},
{
name = topleft;
pos = (20,810);
}
);
layerId = "F66B25F0-8957-42F3-9BF7-6C5DDCB0258B";
shapes = (
{
closed = 1;
nodes = (
(240,0,l),
(240,810,l),
(61,810,l),
(61,0,l)
);
}
);
width = 301;
}
);
unicode = 73;
userData = {
com.fontlab.hintData = {
vhints = (
{
position = 98;
width = 412;
}
);
};
com.typemytype.robofont.layerData = {
b = {
anchors = (
);
components = (
);
contours = (
);
lib = {
};
name = I;
unicodes = (
);
width = 652;
};
};
};
},
{
glyphname = J;
kernLeft = J;
kernRight = J;
layers = (
{
anchors = (
{
name = bottom;
pos = (133,0);
},
{
name = top;
pos = (163,810);
}
);
layerId = "FCD7E481-103E-4A6C-AD70-01DA443B2AD0";
shapes = (
{
closed = 1;
nodes = (
(36,-45,ls),
(172,-45,o),
(190,14,o),
(190,144,c),
(190,810,l),
(136,810,l),
(136,150,ls),
(136,21,o),
(127,-2,o),
(8,-2,c),
(8,-45,l)
);
}
);
width = 265;
},
{
associatedMasterId = "FCD7E481-103E-4A6C-AD70-01DA443B2AD0";
layerId = "B0ECBEBD-C117-4654-8BA6-93B6FB3AD684";
name = b;
width = 365;
},
{
anchors = (
{
name = bottom;
pos = (151,0);
},
{
name = top;
pos = (181,810);
}
);
layerId = "8AC5A1D3-32A8-4416-86FC-94176A419B8F";
shapes = (
{
closed = 1;
nodes = (
(61,-19,ls),
(201,-19,o),
(237,44,o),
(237,183,c),
(237,810,l),
(125,810,l),
(125,185,ls),
(125,83,o),
(105,62,o),
(7,62,c),
(7,-19,l)
);
}
);
width = 301;
},
{
anchors = (
{
name = bottom;
pos = (175,0);
},
{
name = top;
pos = (200,810);
}
);
layerId = "F66B25F0-8957-42F3-9BF7-6C5DDCB0258B";
shapes = (
{
closed = 1;
nodes = (
(100,-21,ls),
(247,-21,o),
(289,46,o),
(289,178,c),
(289,810,l),
(110,810,l),
(110,186,ls),
(110,116,o),
(86,104,o),
(13,104,c),
(13,-21,l)
);
}
);
width = 349;
}
);
unicode = 74;
userData = {
com.fontlab.hintData = {
hhints = (
{
position = -44;
width = 286;
}
);
};
com.typemytype.robofont.layerData = {
b = {
anchors = (
);
components = (
);
contours = (
);
lib = {
};
name = J;
unicodes = (
);
width = 748;
};
};
};
},
{
glyphname = K;
kernLeft = H;
kernRight = K;
layers = (
{
anchors = (
{
name = bottom;
pos = (230,0);
},
{
name = top;
pos = (230,810);
}
);
layerId = "FCD7E481-103E-4A6C-AD70-01DA443B2AD0";
shapes = (
{
closed = 1;
nodes = (
(129,0,l),
(129,265,l),
(214,420,l),
(405,0,l),
(459,0,l),
(247,467,l),
(418,810,l),
(364,810,l),
(129,355,l),
(129,810,l),
(74,810,l),
(74,0,l)
);
}
);
width = 460;
},
{
associatedMasterId = "FCD7E481-103E-4A6C-AD70-01DA443B2AD0";
layerId = "EFF2075F-277F-4738-BAFC-9B42DD9C419F";
name = b;
width = 446;
},
{
anchors = (
{
name = bottom;
pos = (248,0);
},
{
name = top;
pos = (248,810);
}
);
layerId = "8AC5A1D3-32A8-4416-86FC-94176A419B8F";
shapes = (
{
closed = 1;
nodes = (
(176,0,l),
(176,286,l),
(228,380,l),
(383,0,l),
(493,0,l),
(307,453,l),
(467,810,l),
(362,810,l),
(176,428,l),
(176,810,l),
(63,810,l),
(63,0,l)
);
}
);
width = 495;
},
{
associatedMasterId = "FCD7E481-103E-4A6C-AD70-01DA443B2AD0";
layerId = "FA5A85F9-A814-4544-8BB4-FBA4EC5BA921";
name = "Light Aug 24 16, 01:22";
shapes = (
{
closed = 1;
nodes = (
(129,0,l),
(129,290,l),
(208,434,l),
(405,0,l),
(459,0,l),
(247,467,l),
(418,810,l),
(364,810,l),
(129,355,l),
(129,810,l),
(74,810,l),
(74,0,l)
);
}
);
width = 460;
},
{
associatedMasterId = "8AC5A1D3-32A8-4416-86FC-94176A419B8F";
layerId = "79D58721-6542-4166-9853-57BA608892C8";
name = "Regular Aug 24 16, 01:23";
shapes = (
{
closed = 1;
nodes = (
(176,0,l),
(176,319,l),
(220,401,l),
(383,0,l),
(493,0,l),
(307,453,l),
(467,810,l),
(362,810,l),
(176,428,l),
(176,810,l),
(63,810,l),
(63,0,l)
);
}
);
visible = 1;
width = 495;
},
{
anchors = (
{
name = bottom;
pos = (284,0);
},
{
name = top;
pos = (297,810);
}
);
layerId = "F66B25F0-8957-42F3-9BF7-6C5DDCB0258B";
shapes = (
{
closed = 1;
nodes = (
(239,0,l),
(239,326,l),
(258,358,l),
(375,0,l),
(557,0,l),
(400,444,l),
(550,810,l),
(375,810,l),
(239,479,l),
(239,810,l),
(60,810,l),
(60,0,l)
);
}
);
width = 567;
}
);
unicode = 75;
userData = {
com.typemytype.robofont.layerData = {
b = {
anchors = (
);
components = (
);
contours = (
);
lib = {
};
name = K;
unicodes = (
);
width = 913;
};
};
};
},
{
glyphname = L;
kernLeft = H;
kernRight = L;
layers = (
{
anchors = (
{
name = bottom;
pos = (225,0);
},
{
name = center;
pos = (187,405);
},
{
name = top;
pos = (102,810);
},
{
name = topright;
pos = (309,810);
}
);
layerId = "FCD7E481-103E-4A6C-AD70-01DA443B2AD0";
shapes = (
{
closed = 1;
nodes = (
(374,0,l),
(374,43,l),
(129,43,l),
(129,810,l),
(75,810,l),
(75,0,l)
);
}
);
width = 373;
},
{
associatedMasterId = "FCD7E481-103E-4A6C-AD70-01DA443B2AD0";
layerId = "C49B4B0A-361F-4E8C-A1A0-F28311E98BC7";
name = b;
width = 458;
},
{
anchors = (
{
name = bottom;
pos = (223,0);
},
{
name = center;
pos = (199,405);
},
{
name = top;
pos = (120,810);
},
{
name = topright;
pos = (274,810);
}
);
layerId = "8AC5A1D3-32A8-4416-86FC-94176A419B8F";
shapes = (
{
closed = 1;
nodes = (
(383,0,l),
(383,81,l),
(176,81,l),
(176,810,l),
(63,810,l),
(63,0,l)
);
}
);
width = 397;
},
{
anchors = (
{
name = bottom;
pos = (242,0);
},
{
name = center;
pos = (342,428);
},
{
name = top;
pos = (149,810);
},
{
name = topright;
pos = (300,810);
}
);
layerId = "F66B25F0-8957-42F3-9BF7-6C5DDCB0258B";
shapes = (
{
closed = 1;
nodes = (
(425,0,l),
(425,121,l),
(239,121,l),
(239,810,l),
(60,810,l),
(60,0,l)
);
}
);
width = 443;
}
);
unicode = 76;
userData = {
com.typemytype.robofont.layerData = {
b = {
anchors = (
);
components = (
);
contours = (
);
lib = {
};
name = L;
unicodes = (
);
width = 939;
};
};
};
},
{
glyphname = Lslash;
kernLeft = H;
kernRight = L;
layers = (
{
layerId = "FCD7E481-103E-4A6C-AD70-01DA443B2AD0";
shapes = (
{
closed = 1;
nodes = (
(374,0,l),
(374,43,l),
(129,43,l),
(129,437,l),
(251,500,l),
(251,544,l),
(129,481,l),
(129,810,l),
(75,810,l),
(75,452,l),
(3,415,l),
(3,371,l),
(75,408,l),
(75,0,l)
);
}
);
width = 373;
},
{
layerId = "8AC5A1D3-32A8-4416-86FC-94176A419B8F";
shapes = (
{
closed = 1;
nodes = (
(383,0,l),
(383,81,l),
(176,81,l),
(176,440,l),
(281,498,l),
(281,584,l),
(176,527,l),
(176,810,l),
(63,810,l),
(63,464,l),
(-6,426,l),
(-6,339,l),
(63,377,l),
(63,0,l)
);
}
);
width = 397;
},
{
layerId = "F66B25F0-8957-42F3-9BF7-6C5DDCB0258B";
shapes = (
{
closed = 1;
nodes = (
(433,0,l),
(433,121,l),
(247,121,l),
(247,442,l),
(345,489,l),
(345,587,l),
(247,540,l),
(247,810,l),
(68,810,l),
(68,456,l),
(8,428,l),
(8,330,l),
(68,358,l),
(68,0,l)
);
}
);
width = 450;
}
);
unicode = 321;
},
{
glyphname = M;
kernLeft = M;
kernRight = M;
layers = (
{
anchors = (
{
name = bottom;
pos = (316,0);
},
{
name = top;
pos = (316,810);
}
);
layerId = "FCD7E481-103E-4A6C-AD70-01DA443B2AD0";
shapes = (
{
closed = 1;
nodes = (
(112,0,l),
(132,678,l),
(295,0,l),
(335,0,l),
(500,679,l),
(520,0,l),
(567,0,l),
(544,810,l),
(488,810,l),
(314,79,l),
(143,810,l),
(89,810,l),
(65,0,l)
);
}
);
width = 632;
},
{
associatedMasterId = "FCD7E481-103E-4A6C-AD70-01DA443B2AD0";
layerId = "F56E9E7E-B089-4E9D-8496-F5F48B94A076";
name = b;
width = 719;
},
{
anchors = (
{
name = bottom;
pos = (330,0);
},
{
name = top;
pos = (330,810);
}
);
layerId = "8AC5A1D3-32A8-4416-86FC-94176A419B8F";
shapes = (
{
closed = 1;
nodes = (
(153,0,l),
(162,588,l),
(298,0,l),
(362,0,l),
(499,588,l),
(508,0,l),
(599,0,l),
(584,810,l),
(474,810,l),
(330,153,l),
(187,810,l),
(76,810,l),
(61,0,l)
);
}
);
width = 660;
},
{
anchors = (
{
name = bottom;
pos = (352,0);
},
{
name = top;
pos = (352,810);
}
);
layerId = "F66B25F0-8957-42F3-9BF7-6C5DDCB0258B";
shapes = (
{
closed = 1;
nodes = (
(186,0,l),
(198,543,l),
(298,0,l),
(411,0,l),
(505,539,l),
(520,0,l),
(647,0,l),
(633,810,l),
(448,810,l),
(352,339,l),
(263,810,l),
(71,810,l),
(57,0,l)
);
}
);
width = 704;
}
);
unicode = 77;
userData = {
com.fontlab.hintData = {
vhints = (
{
position = 86;
width = 290;
},
{
position = 113;
width = 291;
},
{
position = 1012;
width = 291;
},
{
position = 1044;
width = 286;
}
);
};
com.typemytype.robofont.layerData = {
b = {
anchors = (
);
components = (
);
contours = (
);
lib = {
};
name = M;
unicodes = (
);
width = 1472;
};
};
};
},
{
glyphname = N;
kernLeft = H;
kernRight = H;
layers = (
{
anchors = (
{
name = bottom;
pos = (258,0);
},
{
name = top;
pos = (258,810);
}
);
layerId = "FCD7E481-103E-4A6C-AD70-01DA443B2AD0";
shapes = (
{
closed = 1;
nodes = (
(123,0,l),
(123,685,l),
(398,0,l),
(441,0,l),
(441,810,l),
(393,810,l),
(393,126,l),
(118,810,l),
(75,810,l),
(75,0,l)
);
}
);
width = 515;
},
{
associatedMasterId = "FCD7E481-103E-4A6C-AD70-01DA443B2AD0";
layerId = "4CD37C39-0352-4B22-A848-33A8B2948BB6";
name = b;
width = 571;
},
{
anchors = (
{
name = bottom;
pos = (264,0);
},
{
name = top;
pos = (264,810);
}
);
layerId = "8AC5A1D3-32A8-4416-86FC-94176A419B8F";
shapes = (
{
closed = 1;
nodes = (
(159,0,l),
(159,553,l),
(392,0,l),
(464,0,l),
(464,810,l),
(370,810,l),
(370,272,l),
(140,810,l),
(63,810,l),
(63,0,l)
);
}
);
width = 528;
},
{
anchors = (
{
name = bottom;
pos = (280,0);
},
{
name = top;
pos = (280,810);
}
);
layerId = "F66B25F0-8957-42F3-9BF7-6C5DDCB0258B";
shapes = (
{
closed = 1;
nodes = (
(213,0,l),
(213,420,l),
(379,0,l),
(500,0,l),
(500,810,l),
(352,810,l),
(352,420,l),
(186,810,l),
(60,810,l),
(60,0,l)
);
}
);
width = 561;
}
);
unicode = 78;
userData = {
com.typemytype.robofont.layerData = {
b = {
anchors = (
);
components = (
);
contours = (
);
lib = {
};
name = N;
unicodes = (
);
width = 1170;
};
};
};
},
{
glyphname = Eng;
kernLeft = H;
kernRight = J;
layers = (
{
layerId = "FCD7E481-103E-4A6C-AD70-01DA443B2AD0";
shapes = (
{
closed = 1;
nodes = (
(316,-141,ls),
(417,-141,o),
(441,-92,o),
(441,0,cs),
(441,810,l),
(395,810,l),
(395,126,l),
(118,810,l),
(75,810,l),
(75,0,l),
(121,0,l),
(121,685,l),
(393,12,l),
(393,-14,ls),
(393,-81,o),
(375,-103,o),
(286,-103,c),
(286,-141,l)
);
}
);
width = 538;
},
{
associatedMasterId = "FCD7E481-103E-4A6C-AD70-01DA443B2AD0";
layerId = "C3B7BAF3-4B51-4BEB-98BD-563683A19381";
name = b;
width = 581;
},
{
layerId = "8AC5A1D3-32A8-4416-86FC-94176A419B8F";
shapes = (
{
closed = 1;
nodes = (
(305,-183,ls),
(434,-183,o),
(464,-120,o),
(464,0,cs),
(464,810,l),
(376,810,l),
(376,272,l),
(140,810,l),
(63,810,l),
(63,0,l),
(153,0,l),
(153,553,l),
(375,42,l),
(375,9,ls),
(375,-78,o),
(368,-106,o),
(267,-106,c),
(267,-183,l)
);
}
);
width = 531;
},
{
layerId = "F66B25F0-8957-42F3-9BF7-6C5DDCB0258B";
shapes = (
{
closed = 1;
nodes = (
(319,-209,ls),
(469,-209,o),
(504,-137,o),
(504,0,cs),
(504,810,l),
(357,810,l),
(357,420,l),
(190,810,l),
(63,810,l),
(63,0,l),
(215,0,l),
(215,420,l),
(365,76,l),
(365,-15,ls),
(365,-81,o),
(335,-102,o),
(245,-102,c),
(245,-209,l)
);
}
);
width = 568;
}
);
unicode = 330;
userData = {
com.fontlab.hintData = {
hhints = (
{
position = -444;
width = 237;
}
);
};
com.typemytype.robofont.layerData = {
b = {
anchors = (
);
components = (
);
contours = (
);
lib = {
};
name = Eng;
unicodes = (
);
width = 1190;
};
};
};
},
{
glyphname = O;
kernLeft = O;
kernRight = O;
layers = (
{
anchors = (
{
name = bottom;
pos = (258,0);
},
{
name = center;
pos = (258,405);
},
{
name = ogonek;
pos = (302,0);
},
{
name = top;
pos = (258,810);
},
{
name = topleft;
pos = (20,810);
},
{
name = topright;
pos = (333,810);
}
);
guides = (
{
angle = 90;
pos = (458,721);
}
);
layerId = "FCD7E481-103E-4A6C-AD70-01DA443B2AD0";
shapes = (
{
closed = 1;
nodes = (
(416,-11,o),
(458,91,o),
(458,229,cs),
(458,584,ls),
(458,721,o),
(411,819,o),
(258,819,cs),
(104,819,o),
(58,722,o),
(58,584,cs),
(58,230,ls),
(58,92,o),
(100,-11,o),
(258,-11,cs)
);
},
{
closed = 1;
nodes = (
(141,34,o),
(113,108,o),
(113,218,cs),
(113,592,ls),
(113,702,o),
(141,774,o),
(258,774,cs),
(375,774,o),
(403,702,o),
(403,592,cs),
(403,218,ls),
(403,108,o),
(374,34,o),
(258,34,cs)
);
}
);
width = 516;
},
{
associatedMasterId = "FCD7E481-103E-4A6C-AD70-01DA443B2AD0";
layerId = "B4959A76-FC0C-461F-B1D1-8B95049AEAF7";
name = b;
width = 506;
},
{
anchors = (
{
name = bottom;
pos = (270,0);
},
{
name = center;
pos = (270,405);
},
{
name = ogonek;
pos = (310,0);
},
{
name = top;
pos = (270,810);
},
{
name = topleft;
pos = (20,810);
},
{
name = topright;
pos = (334,810);
}
);
guides = (
{
angle = 90;
pos = (491,720);
}
);
layerId = "8AC5A1D3-32A8-4416-86FC-94176A419B8F";
shapes = (
{
closed = 1;
nodes = (
(433,-9,o),
(491,94,o),
(491,253,cs),
(491,561,ls),
(491,720,o),
(433,817,o),
(270,817,cs),
(106,817,o),
(48,721,o),
(48,561,cs),
(48,254,ls),
(48,93,o),
(105,-9,o),
(270,-9,cs)
);
},
{
closed = 1;
nodes = (
(179,80,o),
(162,139,o),
(162,229,cs),
(162,584,ls),
(162,674,o),
(179,729,o),
(270,729,cs),
(360,729,o),
(377,674,o),
(377,584,cs),
(377,229,ls),
(377,139,o),
(360,80,o),
(270,80,cs)
);
}
);
width = 539;
},
{
anchors = (
{
name = bottom;
pos = (293,0);
},
{
name = center;
pos = (293,405);
},
{
name = ogonek;
pos = (318,0);
},
{
name = top;
pos = (293,810);
},
{
name = topleft;
pos = (20,810);
},
{
name = topright;
pos = (364,810);
}
);
layerId = "F66B25F0-8957-42F3-9BF7-6C5DDCB0258B";
shapes = (
{
closed = 1;
nodes = (
(475,-12,o),
(537,88,o),
(537,255,cs),
(537,556,ls),
(537,723,o),
(475,821,o),
(292,821,cs),
(110,821,o),
(49,723,o),
(49,556,cs),
(49,255,ls),
(49,88,o),
(110,-12,o),
(292,-12,cs)
);
},
{
closed = 1;
nodes = (
(236,115,o),
(232,164,o),
(232,210,cs),
(232,600,ls),
(232,648,o),
(239,695,o),
(292,695,cs),
(348,695,o),
(354,648,o),
(354,600,cs),
(354,210,ls),
(354,164,o),
(348,115,o),
(292,115,cs)
);
}
);
width = 586;
}
);
unicode = 79;
userData = {
com.fontlab.hintData = {
};
com.typemytype.robofont.layerData = {
b = {
anchors = (
);
components = (
);
contours = (
);
lib = {
};
name = O;
unicodes = (
);
width = 1036;
};
};
hhints = {
};
position = 866;
vhints = {
};
width = 64;
};
},
{
glyphname = Oslash;
kernLeft = O;
kernRight = O;
layers = (
{
anchors = (
{
name = bottom;
pos = (262,0);
},
{
name = top;
pos = (262,810);
}
);
layerId = "FCD7E481-103E-4A6C-AD70-01DA443B2AD0";
shapes = (
{
closed = 1;
nodes = (
(413,889,l),
(388,896,l),
(104,-87,l),
(129,-95,l)
);
},
{
ref = O;
}
);
width = 523;
},
{
associatedMasterId = "FCD7E481-103E-4A6C-AD70-01DA443B2AD0";
layerId = "EADDB7A6-053E-4193-A566-E9DE4461B331";
name = b;
width = 516;
},
{
anchors = (
{
name = bottom;
pos = (270,0);
},
{
name = top;
pos = (270,810);
}
);
layerId = "8AC5A1D3-32A8-4416-86FC-94176A419B8F";
shapes = (
{
closed = 1;
nodes = (
(413,870,l),
(373,880,l),
(121,-62,l),
(160,-74,l)
);
},
{
ref = O;
}
);
width = 540;
},
{
anchors = (
{
name = bottom;
pos = (286,0);
},
{
name = top;
pos = (286,810);
}
);
layerId = "F66B25F0-8957-42F3-9BF7-6C5DDCB0258B";
shapes = (
{
closed = 1;
nodes = (
(480,869,l),
(440,884,l),
(81,-74,l),
(120,-90,l)
);
},
{
alignment = -1;
ref = O;
}
);
width = 572;
}
);
unicode = 216;
userData = {
com.fontlab.hintData = {
hhints = (
{
position = -26;
width = 284;
},
{
position = 1400;
width = 284;
}
);
vhints = (
{
position = 80;
width = 424;
},
{
position = 688;
width = 424;
}
);
};
com.typemytype.robofont.layerData = {
b = {
anchors = (
);
components = (
);
contours = (
);
lib = {
};
name = Oslash;
unicodes = (
);
width = 1056;
};
};
};
},
{
glyphname = OE;
kernLeft = O;
kernRight = E;
layers = (
{
anchors = (
{
name = bottom;
pos = (310,0);
},
{
name = top;
pos = (366,810);
}
);
layerId = "FCD7E481-103E-4A6C-AD70-01DA443B2AD0";
shapes = (
{
closed = 1;
nodes = (
(590,0,l),
(590,45,l),
(393,45,l),
(393,402,l),
(557,402,l),
(557,445,l),
(393,445,l),
(393,765,l),
(589,765,l),
(589,810,l),
(264,810,l),
(109,810,o),
(58,714,o),
(58,577,cs),
(58,229,ls),
(58,98,o),
(104,0,o),
(267,0,cs)
);
},
{
closed = 1;
nodes = (
(144,46,o),
(112,117,o),
(112,229,cs),
(112,574,ls),
(112,690,o),
(141,765,o),
(267,765,cs),
(338,765,l),
(338,46,l),
(267,46,l)
);
}
);
width = 620;
},
{
associatedMasterId = "FCD7E481-103E-4A6C-AD70-01DA443B2AD0";
layerId = "883CEE7D-0B28-4EE0-818D-9E62B936EEC5";
name = b;
width = 729;
},
{
anchors = (
{
name = bottom;
pos = (342,0);
},
{
name = top;
pos = (401,810);
}
);
layerId = "8AC5A1D3-32A8-4416-86FC-94176A419B8F";
shapes = (
{
closed = 1;
nodes = (
(656,0,l),
(656,81,l),
(457,81,l),
(457,378,l),
(617,378,l),
(617,459,l),
(457,459,l),
(457,726,l),
(654,726,l),
(654,810,l),
(280,810,l),
(110,810,o),
(48,718,o),
(48,546,cs),
(48,247,ls),
(48,82,o),
(107,0,o),
(288,0,cs)
);
},
{
closed = 1;
nodes = (
(174,84,o),
(162,136,o),
(162,259,cs),
(162,525,ls),
(162,657,o),
(165,729,o),
(288,729,cs),
(344,729,l),
(344,84,l),
(290,84,l)
);
}
);
width = 683;
},
{
anchors = (
{
name = bottom;
pos = (359,0);
},
{
name = top;
pos = (434,810);
}
);
layerId = "F66B25F0-8957-42F3-9BF7-6C5DDCB0258B";
shapes = (
{
closed = 1;
nodes = (
(692,0,l),
(692,121,l),
(523,121,l),
(523,356,l),
(647,356,l),
(647,481,l),
(523,481,l),
(523,685,l),
(691,685,l),
(691,807,l),
(293,807,l),
(108,807,o),
(49,684,o),
(49,520,cs),
(49,278,ls),
(49,109,o),
(111,0,o),
(295,0,cs)
);
},
{
closed = 1;
nodes = (
(233,124,o),
(228,185,o),
(228,244,cs),
(228,552,ls),
(228,612,o),
(231,680,o),
(295,680,cs),
(345,680,l),
(345,124,l),
(295,124,l)
);
}
);
width = 718;
}
);
unicode = 338;
userData = {
com.fontlab.hintData = {
vhints = (
{
position = 80;
width = 412;
}
);
};
com.typemytype.robofont.layerData = {
b = {
anchors = (
);
components = (
);
contours = (
);
lib = {
};
name = OE;
unicodes = (
);
width = 1493;
};
};
};
},
{
glyphname = P;
kernLeft = H;
kernRight = P;
layers = (
{
anchors = (
{
name = bottom;
pos = (243,0);
},
{
name = top;
pos = (243,810);
}
);
layerId = "FCD7E481-103E-4A6C-AD70-01DA443B2AD0";
shapes = (
{
closed = 1;
nodes = (
(129,0,l),
(129,387,l),
(266,387,ls),
(410,387,o),
(453,493,o),
(453,601,cs),
(453,721,o),
(411,810,o),
(265,810,cs),
(75,810,l),
(75,0,l)
);
},
{
closed = 1;
nodes = (
(129,768,l),
(255,768,ls),
(358,768,o),
(397,731,o),
(397,601,cs),
(397,475,o),
(352,429,o),
(254,429,cs),
(129,429,l)
);
}
);
width = 485;
},
{
associatedMasterId = "FCD7E481-103E-4A6C-AD70-01DA443B2AD0";
layerId = "6DD606EF-651A-43F8-A6FA-A31BF9FC0228";
name = b;
width = 488;
},
{
anchors = (
{
name = bottom;
pos = (240,0);
},
{
name = top;
pos = (240,810);
}
);
layerId = "8AC5A1D3-32A8-4416-86FC-94176A419B8F";
shapes = (
{
closed = 1;
nodes = (
(176,0,l),
(176,377,l),
(265,377,ls),
(397,377,o),
(464,457,o),
(464,586,cs),
(464,727,o),
(409,810,o),
(264,810,cs),
(63,810,l),
(63,0,l)
);
},
{
closed = 1;
nodes = (
(176,729,l),
(229,729,ls),
(342,729,o),
(357,700,o),
(357,585,cs),
(357,485,o),
(325,458,o),
(228,458,cs),
(176,458,l)
);
}
);
width = 480;
},
{
anchors = (
{
name = bottom;
pos = (286,0);
},
{
name = top;
pos = (286,810);
}
);
layerId = "F66B25F0-8957-42F3-9BF7-6C5DDCB0258B";
shapes = (
{
closed = 1;
nodes = (
(239,0,l),
(239,344,l),
(311,344,ls),
(442,344,o),
(545,388,o),
(545,575,cs),
(545,725,o),
(477,810,o),
(332,810,cs),
(60,810,l),
(60,0,l)
);
},
{
closed = 1;
nodes = (
(239,684,l),
(298,684,ls),
(370,684,o),
(377,639,o),
(377,578,cs),
(377,504,o),
(365,469,o),
(299,469,cs),
(239,469,l)
);
}
);
width = 571;
}
);
unicode = 80;
userData = {
com.fontlab.hintData = {
vhints = (
{
position = 766;
width = 386;
}
);
};
com.typemytype.robofont.layerData = {
b = {
anchors = (
);
components = (
);
contours = (
);
lib = {
};
name = P;
unicodes = (
);
width = 999;
};
};
};
},
{
glyphname = Thorn;
kernLeft = H;
layers = (
{
layerId = "FCD7E481-103E-4A6C-AD70-01DA443B2AD0";
shapes = (
{
closed = 1;
nodes = (
(129,0,l),
(129,250,l),
(276,250,ls),
(435,250,o),
(472,379,o),
(472,485,cs),
(472,602,o),
(424,706,o),
(281,706,cs),
(129,706,l),
(129,810,l),
(75,810,l),
(75,0,l)
);
},
{
closed = 1;
nodes = (
(129,659,l),
(272,659,ls),
(360,659,o),
(416,610,o),
(416,483,cs),
(416,353,o),
(368,298,o),
(268,298,cs),
(129,298,l)
);
}
);
width = 505;
},
{
layerId = "8AC5A1D3-32A8-4416-86FC-94176A419B8F";
shapes = (
{
closed = 1;
nodes = (
(176,0,l),
(176,233,l),
(274,233,ls),
(419,233,o),
(486,317,o),
(486,469,cs),
(486,611,o),
(428,704,o),
(293,704,cs),
(176,704,l),
(176,810,l),
(63,810,l),
(63,0,l)
);
},
{
closed = 1;
nodes = (
(176,610,l),
(259,610,ls),
(343,610,o),
(376,573,o),
(376,469,cs),
(376,356,o),
(335,324,o),
(246,324,cs),
(176,324,l)
);
}
);
width = 503;
},
{
layerId = "F66B25F0-8957-42F3-9BF7-6C5DDCB0258B";
shapes = (
{
closed = 1;
nodes = (
(231,0,l),
(231,234,l),
(300,234,ls),
(468,234,o),
(547,285,o),
(547,477,cs),
(547,638,o),
(469,702,o),
(309,702,cs),
(231,702,l),
(231,810,l),
(51,810,l),
(51,0,l)
);
},
{
closed = 1;
nodes = (
(231,573,l),
(292,573,ls),
(359,573,o),
(384,540,o),
(384,468,cs),
(384,390,o),
(357,361,o),
(288,361,cs),
(231,361,l)
);
}
);
width = 562;
}
);
unicode = 222;
userData = {
com.fontlab.hintData = {
vhints = (
{
position = 792;
width = 372;
}
);
};
};
},
{
glyphname = Q;
kernLeft = O;
kernRight = O;
layers = (
{
anchors = (
{
name = bottom;
pos = (262,0);
},
{
name = top;
pos = (262,810);
}
);
layerId = "FCD7E481-103E-4A6C-AD70-01DA443B2AD0";
shapes = (
{
closed = 1;
nodes = (
(434,-107,l),
(408,-90,o),
(359,-35,o),
(333,-1,c),
(434,25,o),
(465,115,o),
(465,229,cs),
(465,584,ls),
(465,721,o),
(415,819,o),
(261,819,cs),
(108,819,o),
(58,722,o),
(58,584,cs),
(58,230,ls),
(58,92,o),
(103,-11,o),
(261,-11,cs),
(271,-11,o),
(281,-10,o),
(291,-9,c),
(339,-77,o),
(391,-137,o),
(429,-156,c)
);
},
{
closed = 1;
nodes = (
(145,34,o),
(113,108,o),
(113,218,cs),
(113,592,ls),
(113,702,o),
(145,774,o),
(261,774,cs),
(378,774,o),
(410,702,o),
(410,592,cs),
(410,218,ls),
(410,108,o),
(377,34,o),
(261,34,cs)
);
}
);
width = 523;
},
{
associatedMasterId = "FCD7E481-103E-4A6C-AD70-01DA443B2AD0";
layerId = "AE92701C-7094-4239-81BC-C7658D932877";
name = b;
width = 602;
},
{
anchors = (
{
name = bottom;
pos = (271,0);
},
{
name = top;
pos = (271,810);
}
);
layerId = "8AC5A1D3-32A8-4416-86FC-94176A419B8F";
shapes = (
{
closed = 1;
nodes = (
(453,-75,l),
(428,-58,o),
(397,-21,o),
(373,10,c),
(459,46,o),
(492,134,o),
(492,253,cs),
(492,561,ls),
(492,720,o),
(433,817,o),
(270,817,cs),
(106,817,o),
(48,721,o),
(48,561,cs),
(48,254,ls),
(48,93,o),
(105,-9,o),
(270,-9,cs),
(277,-9,o),
(283,-9,o),
(289,-8,c),
(327,-64,o),
(381,-137,o),
(435,-164,c)
);
},
{
closed = 1;
nodes = (
(179,80,o),
(162,139,o),
(162,229,cs),
(162,584,ls),
(162,674,o),
(179,729,o),
(270,729,cs),
(361,729,o),
(378,674,o),
(378,584,cs),
(378,229,ls),
(378,139,o),
(361,80,o),
(270,80,cs)
);
}
);
width = 541;
},
{
anchors = (
{
name = bottom;
pos = (293,0);
},
{
name = top;
pos = (293,810);
}
);
layerId = "F66B25F0-8957-42F3-9BF7-6C5DDCB0258B";
shapes = (
{
closed = 1;
nodes = (
(513,-53,l),
(485,-39,o),
(456,-10,o),
(430,18,c),
(508,58,o),
(537,141,o),
(537,255,cs),
(537,556,ls),
(537,723,o),
(475,821,o),
(292,821,cs),
(110,821,o),
(49,723,o),
(49,556,cs),
(49,255,ls),
(49,88,o),
(110,-12,o),
(292,-12,cs),
(298,-12,o),
(304,-12,o),
(309,-11,c),
(351,-76,o),
(431,-140,o),
(475,-159,c)
);
},
{
closed = 1;
nodes = (
(236,115,o),
(232,164,o),
(232,210,cs),
(232,600,ls),
(232,648,o),
(236,695,o),
(292,695,cs),
(348,695,o),
(354,648,o),
(354,600,cs),
(354,210,ls),
(354,164,o),
(348,115,o),
(292,115,cs)
);
}
);
width = 586;
}
);
unicode = 81;
userData = {
com.fontlab.hintData = {
hhints = (
{
position = -26;
width = 284;
},
{
position = 1400;
width = 284;
}
);
vhints = (
{
position = 80;
width = 424;
},
{
position = 688;
width = 424;
}
);
};
com.typemytype.robofont.layerData = {
b = {
anchors = (
);
components = (
);
contours = (
);
lib = {
};
name = Q;
unicodes = (
);
width = 1232;
};
};
};
},
{
glyphname = R;
kernLeft = H;
kernRight = R;
layers = (
{
anchors = (
{
name = bottom;
pos = (254,0);
},
{
name = top;
pos = (254,810);
}
);
layerId = "FCD7E481-103E-4A6C-AD70-01DA443B2AD0";
shapes = (
{
closed = 1;
nodes = (
(129,0,l),
(129,408,l),
(280,408,l),
(406,0,l),
(460,0,l),
(330,418,l),
(428,434,o),
(449,519,o),
(449,610,cs),
(449,722,o),
(415,810,o),
(271,810,cs),
(75,810,l),
(75,0,l)
);
},
{
closed = 1;
nodes = (
(129,767,l),
(268,767,ls),
(370,767,o),
(396,713,o),
(396,610,cs),
(396,511,o),
(372,450,o),
(269,450,cs),
(129,450,l)
);
}
);
width = 508;
},
{
associatedMasterId = "FCD7E481-103E-4A6C-AD70-01DA443B2AD0";
layerId = "976C4752-0032-4835-9B72-2CAB36F2192E";
name = b;
width = 628;
},
{
anchors = (
{
name = bottom;
pos = (260,0);
},
{
name = top;
pos = (260,810);
}
);
layerId = "8AC5A1D3-32A8-4416-86FC-94176A419B8F";
shapes = (
{
closed = 1;
nodes = (
(176,0,l),
(176,380,l),
(264,380,l),
(370,0,l),
(479,0,l),
(364,406,l),
(436,430,o),
(464,500,o),
(464,595,cs),
(464,749,o),
(388,810,o),
(226,810,cs),
(63,810,l),
(63,0,l)
);
},
{
closed = 1;
nodes = (
(176,729,l),
(226,729,ls),
(329,729,o),
(355,690,o),
(355,595,cs),
(355,491,o),
(314,461,o),
(219,461,cs),
(176,461,l)
);
}
);
width = 519;
},
{
anchors = (
{
name = bottom;
pos = (300,0);
},
{
name = top;
pos = (300,810);
}
);
layerId = "F66B25F0-8957-42F3-9BF7-6C5DDCB0258B";
shapes = (
{
closed = 1;
nodes = (
(239,0,l),
(239,363,l),
(290,363,l),
(379,0,l),
(564,0,l),
(453,392,l),
(533,430,o),
(552,496,o),
(552,596,cs),
(552,766,o),
(446,810,o),
(283,810,cs),
(60,810,l),
(60,0,l)
);
},
{
closed = 1;
nodes = (
(239,690,l),
(297,690,ls),
(365,690,o),
(386,649,o),
(386,580,cs),
(386,508,o),
(364,466,o),
(289,466,cs),
(239,466,l)
);
}
);
width = 600;
}
);
unicode = 82;
userData = {
com.fontlab.hintData = {
vhints = (
{
position = 747;
width = 399;
}
);
};
com.typemytype.robofont.layerData = {
b = {
anchors = (
);
components = (
);
contours = (
);
lib = {
};
name = R;
unicodes = (
);
width = 1286;
};
};
};
},
{
glyphname = S;
kernLeft = S;
kernRight = S;
layers = (
{
anchors = (
{
name = bottom;
pos = (226,0);
},
{
name = top;
pos = (226,810);
}
);
layerId = "FCD7E481-103E-4A6C-AD70-01DA443B2AD0";
shapes = (
{
closed = 1;
nodes = (
(343,-10,o),
(418,46,o),
(418,168,cs),
(418,254,o),
(363,326,o),
(298,390,cs),
(152,534,ls),
(107,579,o),
(93,616,o),
(93,657,cs),
(93,739,o),
(148,775,o),
(222,775,cs),
(319,775,o),
(354,719,o),
(363,605,c),
(409,616,l),
(399,769,o),
(331,819,o),
(221,819,cs),
(115,819,o),
(43,760,o),
(43,653,cs),
(43,600,o),
(64,549,o),
(114,499,cs),
(262,352,ls),
(328,286,o),
(367,236,o),
(367,165,cs),
(367,72,o),
(318,35,o),
(238,35,cs),
(132,35,o),
(103,108,o),
(89,215,c),
(42,200,l),
(52,72,o),
(109,-10,o),
(237,-10,cs)
);
}
);
width = 452;
},
{
associatedMasterId = "FCD7E481-103E-4A6C-AD70-01DA443B2AD0";
layerId = "73FD5D31-99F3-4634-B1A8-937133ED0A47";
name = b;
width = 528;
},
{
anchors = (
{
name = bottom;
pos = (237,0);
},
{
name = top;
pos = (237,810);
}
);
layerId = "8AC5A1D3-32A8-4416-86FC-94176A419B8F";
shapes = (
{
closed = 1;
nodes = (
(367,-9,o),
(448,64,o),
(448,184,cs),
(448,285,o),
(393,357,o),
(332,411,cs),
(195,531,ls),
(157,564,o),
(142,592,o),
(142,641,cs),
(142,700,o),
(175,730,o),
(231,730,cs),
(315,730,o),
(333,662,o),
(339,582,c),
(435,608,l),
(422,750,o),
(360,817,o),
(231,817,cs),
(114,817,o),
(41,749,o),
(41,630,cs),
(41,549,o),
(65,498,o),
(119,451,cs),
(255,331,ls),
(306,286,o),
(343,248,o),
(343,175,cs),
(343,113,o),
(312,80,o),
(254,80,cs),
(167,80,o),
(145,167,o),
(139,254,c),
(39,227,l),
(47,87,o),
(113,-9,o),
(254,-9,cs)
);
}
);
width = 473;
},
{
anchors = (
{
name = bottom;
pos = (257,0);
},
{
name = top;
pos = (257,810);
}
);
layerId = "F66B25F0-8957-42F3-9BF7-6C5DDCB0258B";
shapes = (
{
closed = 1;
nodes = (
(404,-12,o),
(487,77,o),
(487,192,cs),
(487,304,o),
(431,375,o),
(361,435,cs),
(294,494,ls),
(247,535,o),
(216,567,o),
(216,627,cs),
(216,655,o),
(231,690,o),
(264,690,cs),
(310,690,o),
(315,644,o),
(317,572,c),
(471,591,l),
(468,686,o),
(443,821,o),
(270,821,cs),
(130,821,o),
(43,746,o),
(43,609,cs),
(43,511,o),
(90,450,o),
(152,398,cs),
(222,337,ls),
(277,290,o),
(311,250,o),
(311,183,cs),
(311,155,o),
(303,124,o),
(266,124,cs),
(221,124,o),
(197,163,o),
(195,268,c),
(42,245,l),
(48,65,o),
(122,-12,o),
(275,-12,cs)
);
}
);
width = 514;
}
);
unicode = 83;
userData = {
com.fontlab.hintData = {
hhints = (
{
position = -26;
width = 310;
},
{
position = 1387;
width = 297;
}
);
vhints = (
{
position = 32;
width = 404;
},
{
position = 32;
width = 350;
},
{
position = 558;
width = 409;
},
{
position = 576;
width = 358;
}
);
};
com.typemytype.robofont.layerData = {
b = {
anchors = (
);
components = (
);
contours = (
);
lib = {
};
name = S;
unicodes = (
);
width = 1081;
};
};
};
},
{
glyphname = Germandbls;
layers = (
{
layerId = "FCD7E481-103E-4A6C-AD70-01DA443B2AD0";
shapes = (
{
closed = 1;
nodes = (
(274,-9,ls),
(395,-9,o),
(462,72,o),
(462,230,cs),
(462,385,o),
(395,469,o),
(258,469,c),
(264,439,l),
(446,733,l),
(446,778,l),
(397,803,o),
(342,819,o),
(270,819,cs),
(135,819,o),
(62,733,o),
(62,607,cs),
(62,0,l),
(117,0,l),
(117,612,ls),
(117,718,o),
(177,774,o),
(275,774,cs),
(325,774,o),
(367,763,o),
(400,746,c),
(230,472,l),
(230,427,l),
(254,427,ls),
(357,427,o),
(407,370,o),
(407,227,cs),
(407,89,o),
(357,36,o),
(254,36,cs),
(220,36,l),
(220,-9,l)
);
}
);
width = 498;
},
{
layerId = "8AC5A1D3-32A8-4416-86FC-94176A419B8F";
shapes = (
{
closed = 1;
nodes = (
(308,-9,ls),
(437,-9,o),
(509,62,o),
(509,230,cs),
(509,375,o),
(445,453,o),
(313,453,c),
(328,407,l),
(480,687,l),
(480,776,l),
(431,801,o),
(376,817,o),
(304,817,cs),
(132,817,o),
(56,711,o),
(56,557,cs),
(56,0,l),
(169,0,l),
(169,562,ls),
(169,671,o),
(213,729,o),
(309,729,cs),
(344,729,o),
(374,724,o),
(397,716,c),
(264,472,l),
(264,386,l),
(288,386,ls),
(364,386,o),
(401,341,o),
(401,227,cs),
(401,115,o),
(364,72,o),
(288,72,cs),
(254,72,l),
(254,-9,l)
);
}
);
width = 539;
},
{
layerId = "F66B25F0-8957-42F3-9BF7-6C5DDCB0258B";
shapes = (
{
closed = 1;
nodes = (
(331,-12,ls),
(497,-12,o),
(589,61,o),
(589,235,cs),
(589,378,o),
(514,456,o),
(360,456,c),
(419,399,l),
(551,647,l),
(551,766,l),
(489,799,o),
(421,821,o),
(330,821,cs),
(139,821,o),
(54,713,o),
(54,557,cs),
(54,0,l),
(234,0,l),
(234,562,ls),
(234,649,o),
(270,695,o),
(348,695,cs),
(377,695,o),
(401,689,o),
(420,680,c),
(311,472,l),
(311,354,l),
(320,354,ls),
(387,354,o),
(417,313,o),
(417,232,cs),
(417,148,o),
(381,110,o),
(320,110,cs),
(301,110,l),
(301,-12,l)
);
}
);
width = 623;
}
);
unicode = 7838;
},
{
glyphname = T;
kernLeft = T;
kernRight = T;
layers = (
{
anchors = (
{
name = bottom;
pos = (207,0);
},
{
name = center;
pos = (207,405);
},
{
name = top;
pos = (207,810);
}
);
layerId = "FCD7E481-103E-4A6C-AD70-01DA443B2AD0";
shapes = (
{
closed = 1;
nodes = (
(236,0,l),
(236,766,l),
(394,766,l),
(394,810,l),
(20,810,l),
(20,766,l),
(182,766,l),
(182,0,l)
);
}
);
width = 414;
},
{
associatedMasterId = "FCD7E481-103E-4A6C-AD70-01DA443B2AD0";
layerId = "3DFE9A14-98E4-4EE3-BB38-DCEA24441BA9";
name = b;
width = 463;
},
{
anchors = (
{
name = bottom;
pos = (206,0);
},
{
name = center;
pos = (206,405);
},
{
name = top;
pos = (206,810);
}
);
layerId = "8AC5A1D3-32A8-4416-86FC-94176A419B8F";
shapes = (
{
closed = 1;
nodes = (
(265,0,l),
(265,726,l),
(398,726,l),
(398,810,l),
(15,810,l),
(15,726,l),
(152,726,l),
(152,0,l)
);
}
);
width = 413;
},
{
anchors = (
{
name = bottom;
pos = (222,0);
},
{
name = center;
pos = (222,405);
},
{
name = top;
pos = (222,810);
}
);
layerId = "F66B25F0-8957-42F3-9BF7-6C5DDCB0258B";
shapes = (
{
closed = 1;
nodes = (
(313,0,l),
(313,677,l),
(434,677,l),
(434,810,l),
(11,810,l),
(11,677,l),
(133,677,l),
(133,0,l)
);
}
);
width = 445;
}
);
unicode = 84;
userData = {
com.typemytype.robofont.layerData = {
b = {
anchors = (
);
components = (
);
contours = (
);
lib = {
};
name = T;
unicodes = (
);
width = 948;
};
};
};
},
{
glyphname = Tbar;
kernLeft = T;
kernRight = T;
layers = (
{
layerId = "FCD7E481-103E-4A6C-AD70-01DA443B2AD0";
shapes = (
{
closed = 1;
nodes = (
(354,417,l),
(354,454,l),
(61,454,l),
(61,417,l)
);
},
{
ref = T;
}
);
width = 414;
},
{
associatedMasterId = "FCD7E481-103E-4A6C-AD70-01DA443B2AD0";
layerId = "896901C8-D66A-4E71-8CF7-DFD7B2B0D626";
name = b;
width = 463;
},
{
layerId = "8AC5A1D3-32A8-4416-86FC-94176A419B8F";
shapes = (
{
closed = 1;
nodes = (
(366,391,l),
(366,455,l),
(48,455,l),
(48,391,l)
);
},
{
ref = T;
}
);
width = 413;
},
{
layerId = "F66B25F0-8957-42F3-9BF7-6C5DDCB0258B";
shapes = (
{
closed = 1;
nodes = (
(402,369,l),
(402,456,l),
(42,456,l),
(42,369,l)
);
},
{
alignment = -1;
ref = T;
}
);
width = 445;
}
);
unicode = 358;
userData = {
com.typemytype.robofont.layerData = {
b = {
anchors = (
);
components = (
);
contours = (
);
lib = {
};
name = Tbar;
unicodes = (
);
width = 948;
};
};
};
},
{
glyphname = U;
kernLeft = U;
kernRight = U;
layers = (
{
anchors = (
{
name = bottom;
pos = (267,0);
},
{
name = ogonek;
pos = (317,0);
},
{
name = top;
pos = (267,810);
},
{
name = topright;
pos = (437,810);
}
);
layerId = "FCD7E481-103E-4A6C-AD70-01DA443B2AD0";
shapes = (
{
closed = 1;
nodes = (
(418,-11,o),
(468,76,o),
(468,190,cs),
(468,810,l),
(415,810,l),
(415,189,ls),
(415,101,o),
(377,34,o),
(267,34,cs),
(150,34,o),
(119,100,o),
(119,189,cs),
(119,810,l),
(65,810,l),
(65,190,ls),
(65,76,o),
(108,-11,o),
(267,-11,cs)
);
}
);
width = 533;
},
{
associatedMasterId = "FCD7E481-103E-4A6C-AD70-01DA443B2AD0";
layerId = "5252F698-2E8D-4428-89F9-8E623A5D3776";
name = b;
width = 603;
},
{
anchors = (
{
name = bottom;
pos = (272,0);
},
{
name = ogonek;
pos = (312,0);
},
{
name = top;
pos = (272,810);
},
{
name = topright;
pos = (422,810);
}
);
layerId = "8AC5A1D3-32A8-4416-86FC-94176A419B8F";
shapes = (
{
closed = 1;
nodes = (
(448,-9,o),
(487,103,o),
(487,273,cs),
(487,810,l),
(380,810,l),
(380,268,ls),
(380,163,o),
(367,80,o),
(272,80,cs),
(177,80,o),
(164,163,o),
(164,268,cs),
(164,810,l),
(56,810,l),
(56,273,ls),
(56,103,o),
(95,-9,o),
(272,-9,cs)
);
}
);
width = 543;
},
{
anchors = (
{
name = bottom;
pos = (294,0);
},
{
name = ogonek;
pos = (319,0);
},
{
name = top;
pos = (294,810);
},
{
name = topright;
pos = (435,810);
}
);
layerId = "F66B25F0-8957-42F3-9BF7-6C5DDCB0258B";
shapes = (
{
closed = 1;
nodes = (
(480,-12,o),
(534,81,o),
(534,251,cs),
(534,810,l),
(356,810,l),
(356,224,ls),
(356,173,o),
(351,117,o),
(294,117,cs),
(237,117,o),
(231,173,o),
(231,224,cs),
(231,810,l),
(54,810,l),
(54,251,ls),
(54,81,o),
(107,-12,o),
(294,-12,cs)
);
}
);
width = 588;
}
);
unicode = 85;
userData = {
com.fontlab.hintData = {
hhints = (
{
position = -26;
width = 293;
}
);
};
com.typemytype.robofont.layerData = {
b = {
anchors = (
);
components = (
);
contours = (
);
lib = {
};
name = U;
unicodes = (
);
width = 1235;
};
};
};
},
{
glyphname = V;
layers = (
{
anchors = (
{
name = bottom;
pos = (240,0);
},
{
name = top;
pos = (240,810);
}
);
layerId = "FCD7E481-103E-4A6C-AD70-01DA443B2AD0";
shapes = (
{
closed = 1;
nodes = (
(271,0,l),
(456,810,l),
(403,810,l),
(246,95,l),
(78,810,l),
(24,810,l),
(220,0,l)
);
}
);
width = 480;
},
{
associatedMasterId = "FCD7E481-103E-4A6C-AD70-01DA443B2AD0";
layerId = "25B35F87-EB65-43E6-BCFE-474BD5444AE8";
name = b;
width = 470;
},
{
anchors = (
{
name = bottom;
pos = (253,0);
},
{
name = top;
pos = (253,810);
}
);
layerId = "8AC5A1D3-32A8-4416-86FC-94176A419B8F";
shapes = (
{
closed = 1;
nodes = (
(303,0,l),
(482,810,l),
(379,810,l),
(257,213,l),
(129,810,l),
(23,810,l),
(204,0,l)
);
}
);
width = 505;
},
{
anchors = (
{
name = bottom;
pos = (263,0);
},
{
name = top;
pos = (263,810);
}
);
layerId = "F66B25F0-8957-42F3-9BF7-6C5DDCB0258B";
shapes = (
{
closed = 1;
nodes = (
(357,0,l),
(505,810,l),
(343,810,l),
(262,260,l),
(175,810,l),
(22,810,l),
(168,0,l)
);
}
);
width = 526;
}
);
unicode = 86;
userData = {
com.typemytype.robofont.layerData = {
b = {
anchors = (
);
components = (
);
contours = (
);
lib = {
};
name = V;
unicodes = (
);
width = 963;
};
};
};
},
{
glyphname = W;
kernLeft = W;
kernRight = W;
layers = (
{
anchors = (
{
name = bottom;
pos = (353,0);
},
{
name = top;
pos = (353,810);
}
);
layerId = "FCD7E481-103E-4A6C-AD70-01DA443B2AD0";
shapes = (
{
closed = 1;
nodes = (
(222,0,l),
(357,709,l),
(495,0,l),
(541,0,l),
(672,810,l),
(625,810,l),
(517,107,l),
(383,792,l),
(331,792,l),
(201,107,l),
(82,810,l),
(34,810,l),
(175,0,l)
);
}
);
width = 706;
},
{
associatedMasterId = "FCD7E481-103E-4A6C-AD70-01DA443B2AD0";
layerId = "8A9D5D33-8D55-4C17-9E6C-E3F8150AB489";
name = b;
width = 697;
},
{
anchors = (
{
name = bottom;
pos = (365,0);
},
{
name = top;
pos = (365,810);
}
);
layerId = "8AC5A1D3-32A8-4416-86FC-94176A419B8F";
shapes = (
{
closed = 1;
nodes = (
(254,0,l),
(368,600,l),
(481,0,l),
(563,0,l),
(693,810,l),
(601,810,l),
(516,225,l),
(406,807,l),
(326,807,l),
(217,228,l),
(130,810,l),
(36,810,l),
(168,0,l)
);
}
);
width = 729;
},
{
anchors = (
{
name = bottom;
pos = (349,0);
},
{
name = top;
pos = (349,810);
}
);
layerId = "F66B25F0-8957-42F3-9BF7-6C5DDCB0258B";
shapes = (
{
closed = 1;
nodes = (
(283,0,l),
(348,489,l),
(417,0,l),
(573,0,l),
(670,810,l),
(520,810,l),
(471,341,l),
(407,809,l),
(288,809,l),
(227,338,l),
(179,810,l),
(27,810,l),
(125,0,l)
);
}
);
width = 697;
}
);
unicode = 87;
userData = {
com.typemytype.robofont.layerData = {
b = {
anchors = (
);
components = (
);
contours = (
);
lib = {
};
name = W;
unicodes = (
);
width = 1427;
};
};
};
},
{
glyphname = X;
layers = (
{
anchors = (
{
name = bottom;
pos = (226,0);
},
{
name = top;
pos = (226,810);
}
);
layerId = "FCD7E481-103E-4A6C-AD70-01DA443B2AD0";
shapes = (
{
closed = 1;
nodes = (
(69,0,l),
(218,364,l),
(385,0,l),
(438,0,l),
(249,412,l),
(434,810,l),
(380,810,l),
(225,464,l),
(66,810,l),
(16,810,l),
(193,420,l),
(15,0,l)
);
}
);
width = 452;
},
{
associatedMasterId = "FCD7E481-103E-4A6C-AD70-01DA443B2AD0";
layerId = "81C1061A-6A9B-494B-9176-00E6D82AA5BD";
name = b;
width = 526;
},
{
anchors = (
{
name = bottom;
pos = (241,0);
},
{
name = top;
pos = (241,810);
}
);
layerId = "8AC5A1D3-32A8-4416-86FC-94176A419B8F";
shapes = (
{
closed = 1;
nodes = (
(118,0,l),
(232,305,l),
(364,0,l),
(469,0,l),
(291,415,l),
(461,810,l),
(356,810,l),
(244,524,l),
(121,810,l),
(16,810,l),
(182,424,l),
(13,0,l)
);
}
);
width = 482;
},
{
anchors = (
{
name = bottom;
pos = (257,0);
},
{
name = top;
pos = (257,810);
}
);
layerId = "F66B25F0-8957-42F3-9BF7-6C5DDCB0258B";
shapes = (
{
closed = 1;
nodes = (
(155,0,l),
(242,242,l),
(341,0,l),
(509,0,l),
(351,389,l),
(493,810,l),
(344,810,l),
(272,591,l),
(183,810,l),
(14,810,l),
(164,436,l),
(7,0,l)
);
}
);
width = 515;
}
);
unicode = 88;
userData = {
com.typemytype.robofont.layerData = {
b = {
anchors = (
);
components = (
);
contours = (
);
lib = {
};
name = X;
unicodes = (
);
width = 1077;
};
};
};
},
{
glyphname = Y;
kernLeft = Y;
kernRight = Y;
layers = (
{
anchors = (
{
name = bottom;
pos = (231,0);
},
{
name = top;
pos = (231,810);
},
{
name = topleft;
pos = (20,810);
}
);
layerId = "FCD7E481-103E-4A6C-AD70-01DA443B2AD0";
shapes = (
{
closed = 1;
nodes = (
(261,0,l),
(261,259,l),
(442,810,l),
(386,810,l),
(235,324,l),
(76,810,l),
(20,810,l),
(207,259,l),
(207,0,l)
);
}
);
width = 462;
},
{
associatedMasterId = "FCD7E481-103E-4A6C-AD70-01DA443B2AD0";
layerId = "F41A3D51-BC81-427C-8AAA-BE79254EB3CC";
name = b;
width = 454;
},
{
anchors = (
{
name = bottom;
pos = (241,0);
},
{
name = top;
pos = (241,810);
},
{
name = topleft;
pos = (20,810);
}
);
layerId = "8AC5A1D3-32A8-4416-86FC-94176A419B8F";
shapes = (
{
closed = 1;
nodes = (
(295,0,l),
(295,286,l),
(469,810,l),
(363,810,l),
(241,419,l),
(117,810,l),
(12,810,l),
(187,286,l),
(187,0,l)
);
}
);
width = 481;
},
{
anchors = (
{
name = bottom;
pos = (247,0);
},
{
name = top;
pos = (247,810);
},
{
name = topleft;
pos = (20,810);
}
);
layerId = "F66B25F0-8957-42F3-9BF7-6C5DDCB0258B";
shapes = (
{
closed = 1;
nodes = (
(334,0,l),
(334,331,l),
(485,810,l),
(323,810,l),
(254,554,l),
(177,810,l),
(8,810,l),
(162,331,l),
(162,0,l)
);
}
);
width = 493;
}
);
unicode = 89;
userData = {
com.typemytype.robofont.layerData = {
b = {
anchors = (
);
components = (
);
contours = (
);
lib = {
};
name = Y;
unicodes = (
);
width = 930;
};
};
};
},
{
glyphname = Z;
kernLeft = Z;
kernRight = Z;
layers = (
{
anchors = (
{
name = bottom;
pos = (201,0);
},
{
name = top;
pos = (213,810);
}
);
layerId = "FCD7E481-103E-4A6C-AD70-01DA443B2AD0";
shapes = (
{
closed = 1;
nodes = (
(382,0,l),
(382,43,l),
(87,43,l),
(381,776,l),
(381,810,l),
(57,810,l),
(57,767,l),
(322,767,l),
(31,43,l),
(31,0,l)
);
}
);
width = 401;
},
{
associatedMasterId = "FCD7E481-103E-4A6C-AD70-01DA443B2AD0";
layerId = "BCAAF822-A4E2-402C-8F8F-43D45829B4EB";
name = b;
width = 438;
},
{
anchors = (
{
name = bottom;
pos = (209,0);
},
{
name = top;
pos = (219,810);
}
);
layerId = "8AC5A1D3-32A8-4416-86FC-94176A419B8F";
shapes = (
{
closed = 1;
nodes = (
(396,0,l),
(396,81,l),
(145,81,l),
(396,761,l),
(396,810,l),
(53,810,l),
(53,729,l),
(276,729,l),
(38,81,l),
(38,0,l)
);
}
);
width = 417;
},
{
anchors = (
{
name = bottom;
pos = (217,0);
},
{
name = top;
pos = (217,810);
}
);
layerId = "F66B25F0-8957-42F3-9BF7-6C5DDCB0258B";
shapes = (
{
closed = 1;
nodes = (
(405,0,l),
(405,121,l),
(202,121,l),
(403,709,l),
(403,810,l),
(38,810,l),
(38,689,l),
(227,689,l),
(29,108,l),
(29,0,l)
);
}
);
width = 433;
}
);
unicode = 90;
userData = {
com.typemytype.robofont.layerData = {
b = {
anchors = (
);
components = (
);
contours = (
);
lib = {
};
name = Z;
unicodes = (
);
width = 896;
};
};
};
},
{
glyphname = a;
kernLeft = a;
kernRight = a;
layers = (
{
anchors = (
{
name = bottom;
pos = (190,0);
},
{
name = ogonek;
pos = (308,0);
},
{
name = top;
pos = (195,578);
}
);
layerId = "FCD7E481-103E-4A6C-AD70-01DA443B2AD0";
shapes = (
{
closed = 1;
nodes = (
(212,-9,o),
(258,29,o),
(275,77,c),
(276,64,o),
(281,28,o),
(284,0,c),
(330,0,l),
(328,11,o),
(327,85,o),
(327,101,cs),
(327,392,ls),
(327,529,o),
(293,587,o),
(196,587,cs),
(90,587,o),
(50,533,o),
(50,423,c),
(102,423,l),
(102,438,l),
(102,530,o),
(148,547,o),
(194,547,cs),
(253,547,o),
(274,512,o),
(274,386,cs),
(274,345,l),
(77,252,o),
(38,216,o),
(38,117,cs),
(38,42,o),
(84,-9,o),
(154,-9,c)
);
},
{
closed = 1;
nodes = (
(130,35,o),
(91,56,o),
(91,125,cs),
(91,211,o),
(132,232,o),
(274,306,c),
(274,116,l),
(253,73,o),
(216,35,o),
(167,35,cs)
);
}
);
width = 379;
},
{
associatedMasterId = "FCD7E481-103E-4A6C-AD70-01DA443B2AD0";
layerId = "282618B7-8C23-48BF-9B85-1F597464C782";
name = b;
width = 494;
},
{
anchors = (
{
name = bottom;
pos = (213,0);
},
{
name = ogonek;
pos = (343,0);
},
{
name = top;
pos = (219,578);
}
);
layerId = "8AC5A1D3-32A8-4416-86FC-94176A419B8F";
shapes = (
{
closed = 1;
nodes = (
(224,-8,o),
(261,40,o),
(275,85,c),
(278,58,o),
(285,21,o),
(289,0,c),
(387,0,l),
(382,37,o),
(377,85,o),
(377,139,cs),
(377,403,ls),
(377,522,o),
(333,586,o),
(219,586,cs),
(101,586,o),
(47,527,o),
(45,399,c),
(151,395,l),
(151,424,ls),
(151,474,o),
(168,506,o),
(212,506,cs),
(262,506,o),
(270,472,o),
(270,402,cs),
(270,361,l),
(146,312,o),
(42,270,o),
(42,126,cs),
(42,58,o),
(90,-8,o),
(158,-8,c)
);
},
{
closed = 1;
nodes = (
(167,84,o),
(149,112,o),
(149,159,cs),
(149,226,o),
(204,258,o),
(270,296,c),
(270,132,l),
(261,117,o),
(231,84,o),
(200,84,cs)
);
}
);
width = 426;
},
{
anchors = (
{
name = bottom;
pos = (213,0);
},
{
name = ogonek;
pos = (343,0);
},
{
name = top;
pos = (219,578);
}
);
associatedMasterId = "8AC5A1D3-32A8-4416-86FC-94176A419B8F";
layerId = "FF8DF415-A6F0-4E8B-B81F-CAB18DFAD95D";
name = "Sep 22 17, 11:08";
shapes = (
{
closed = 1;
nodes = (
(224,-8,o),
(261,40,o),
(275,85,c),
(278,58,o),
(285,21,o),
(289,0,c),
(387,0,l),
(382,37,o),
(377,85,o),
(377,139,cs),
(377,403,ls),
(377,522,o),
(333,586,o),
(219,586,cs),
(114,586,o),
(53,539,o),
(46,420,cs),
(46,414,o),
(45,406,o),
(45,399,c),
(151,395,l),
(151,424,l),
(151,474,o),
(168,506,o),
(212,506,cs),
(262,506,o),
(270,472,o),
(270,402,cs),
(270,361,l),
(146,312,o),
(42,270,o),
(42,126,cs),
(42,58,o),
(90,-8,o),
(158,-8,c)
);
},
{
closed = 1;
nodes = (
(167,84,o),
(149,112,o),
(149,159,cs),
(149,226,o),
(204,258,o),
(270,296,c),
(270,132,l),
(261,117,o),
(231,84,o),
(200,84,cs)
);
}
);
width = 426;
},
{
anchors = (
{
name = bottom;
pos = (190,0);
},
{
name = ogonek;
pos = (308,0);
},
{
name = top;
pos = (195,578);
}
);
associatedMasterId = "FCD7E481-103E-4A6C-AD70-01DA443B2AD0";
layerId = "6222981D-4DA5-4C65-98CC-1AB4E26E3B3A";
name = "Sep 22 17, 11:08";
shapes = (
{
closed = 1;
nodes = (
(212,-9,o),
(258,29,o),
(275,77,c),
(276,64,o),
(281,28,o),
(284,0,c),
(330,0,l),
(328,11,o),
(327,85,o),
(327,101,cs),
(327,392,ls),
(327,529,o),
(293,587,o),
(196,587,cs),
(104,587,o),
(53,546,o),
(50,438,cs),
(50,437,o),
(50,425,o),
(50,423,c),
(102,423,l),
(102,438,l),
(102,530,o),
(148,547,o),
(194,547,cs),
(253,547,o),
(274,512,o),
(274,386,cs),
(274,345,l),
(77,252,o),
(38,216,o),
(38,117,cs),
(38,42,o),
(84,-9,o),
(154,-9,c)
);
},
{
closed = 1;
nodes = (
(130,35,o),
(91,56,o),
(91,125,cs),
(91,211,o),
(132,232,o),
(274,306,c),
(274,116,l),
(253,73,o),
(216,35,o),
(167,35,cs)
);
}
);
visible = 1;
width = 379;
},
{
anchors = (
{
name = bottom;
pos = (239,0);
},
{
name = ogonek;
pos = (373,0);
},
{
name = top;
pos = (254,578);
}
);
layerId = "F66B25F0-8957-42F3-9BF7-6C5DDCB0258B";
shapes = (
{
closed = 1;
nodes = (
(231,-10,o),
(267,34,o),
(281,82,c),
(283,75,o),
(290,31,o),
(294,0,c),
(440,0,l),
(435,28,o),
(430,72,o),
(430,144,cs),
(430,414,ls),
(430,516,o),
(372,588,o),
(255,588,cs),
(120,588,o),
(54,524,o),
(48,385,c),
(200,379,l),
(204,421,ls),
(205,447,o),
(212,467,o),
(240,467,cs),
(267,467,o),
(274,446,o),
(274,416,cs),
(274,358,l),
(165,320,o),
(36,275,o),
(36,131,cs),
(36,63,o),
(82,-10,o),
(170,-10,c)
);
},
{
closed = 1;
nodes = (
(200,100,o),
(183,124,o),
(183,163,cs),
(183,221,o),
(220,256,o),
(274,287,c),
(274,129,l),
(263,114,o),
(248,100,o),
(228,100,cs)
);
}
);
width = 476;
}
);
unicode = 97;
userData = {
com.fontlab.hintData = {
};
com.typemytype.robofont.layerData = {
b = {
anchors = (
);
components = (
);
contours = (
);
lib = {
};
name = a;
unicodes = (
);
width = 1011;
};
};
hhints = {
};
position = 564;
vhints = {
};
width = 64;
};
},
{
glyphname = ae;
kernLeft = a;
kernRight = e;
layers = (
{
anchors = (
{
name = bottom;
pos = (298,0);
},
{
name = top;
pos = (298,578);
}
);
layerId = "FCD7E481-103E-4A6C-AD70-01DA443B2AD0";
shapes = (
{
closed = 1;
nodes = (
(205,-9,o),
(272,16,o),
(294,107,c),
(306,19,o),
(362,-9,o),
(421,-9,cs),
(529,-9,o),
(561,58,o),
(561,157,cs),
(561,195,l),
(509,195,l),
(509,155,ls),
(509,44,o),
(462,33,o),
(421,33,cs),
(354,33,o),
(328,84,o),
(328,223,cs),
(328,300,l),
(439,338,ls),
(515,364,o),
(557,396,o),
(557,471,cs),
(557,537,o),
(516,587,o),
(431,587,cs),
(367,587,o),
(299,556,o),
(299,454,c),
(306,454,l),
(306,542,o),
(259,587,o),
(182,587,cs),
(98,587,o),
(48,538,o),
(48,435,c),
(99,433,l),
(99,523,o),
(141,546,o),
(184,546,cs),
(247,546,o),
(274,516,o),
(274,409,cs),
(274,323,l),
(187,293,ls),
(53,247,o),
(38,187,o),
(38,117,cs),
(38,42,o),
(84,-9,o),
(154,-9,cs)
);
},
{
closed = 1;
nodes = (
(132,32,o),
(90,53,o),
(90,122,cs),
(90,180,o),
(97,218,o),
(201,259,cs),
(274,288,l),
(274,217,ls),
(274,73,o),
(218,32,o),
(166,32,cs)
);
},
{
closed = 1;
nodes = (
(328,384,ls),
(328,510,o),
(365,545,o),
(427,545,cs),
(487,545,o),
(508,506,o),
(508,467,cs),
(508,415,o),
(488,392,o),
(430,371,cs),
(328,335,l)
);
}
);
width = 604;
},
{
anchors = (
{
name = bottom;
pos = (325,0);
},
{
name = top;
pos = (325,578);
}
);
layerId = "8AC5A1D3-32A8-4416-86FC-94176A419B8F";
shapes = (
{
closed = 1;
nodes = (
(257,-8,o),
(297,38,o),
(314,109,c),
(325,39,o),
(362,-8,o),
(454,-8,cs),
(561,-8,o),
(608,62,o),
(608,177,cs),
(608,201,l),
(501,201,l),
(501,176,ls),
(501,120,o),
(489,77,o),
(440,77,cs),
(393,77,o),
(381,112,o),
(381,155,cs),
(381,282,l),
(452,297,ls),
(530,314,o),
(603,341,o),
(603,453,cs),
(603,534,o),
(557,586,o),
(462,586,cs),
(385,586,o),
(328,542,o),
(318,486,c),
(333,486,l),
(323,542,o),
(282,586,o),
(213,586,cs),
(106,586,o),
(45,517,o),
(44,409,c),
(150,409,l),
(150,465,o),
(166,504,o),
(213,504,cs),
(263,504,o),
(274,463,o),
(274,402,cs),
(274,327,l),
(196,306,ls),
(101,280,o),
(42,231,o),
(42,126,cs),
(42,50,o),
(86,-8,o),
(180,-8,cs)
);
},
{
closed = 1;
nodes = (
(167,75,o),
(149,106,o),
(149,149,cs),
(149,201,o),
(177,233,o),
(228,250,cs),
(274,265,l),
(274,171,ls),
(274,107,o),
(252,75,o),
(207,75,cs)
);
},
{
closed = 1;
nodes = (
(381,397,ls),
(381,458,o),
(396,499,o),
(446,499,cs),
(490,499,o),
(505,470,o),
(505,436,cs),
(505,384,o),
(483,364,o),
(436,353,cs),
(381,340,l)
);
}
);
width = 651;
},
{
anchors = (
{
name = bottom;
pos = (327,0);
},
{
name = top;
pos = (327,578);
}
);
associatedMasterId = "8AC5A1D3-32A8-4416-86FC-94176A419B8F";
layerId = "D3EF0F27-29E0-4E8F-BC91-F7684267E6ED";
name = "Sep 22 17, 11:10";
shapes = (
{
closed = 1;
nodes = (
(253,-8,o),
(292,39,o),
(315,109,c),
(325,39,o),
(374,-8,o),
(444,-8,cs),
(559,-8,o),
(609,62,o),
(609,177,cs),
(609,201,l),
(502,201,l),
(502,176,ls),
(502,120,o),
(491,77,o),
(445,77,cs),
(379,77,o),
(382,138,o),
(382,185,cs),
(382,282,l),
(453,297,ls),
(531,314,o),
(604,338,o),
(604,443,cs),
(604,530,o),
(558,586,o),
(463,586,cs),
(386,586,o),
(329,542,o),
(319,486,c),
(334,486,l),
(324,542,o),
(283,586,o),
(214,586,cs),
(107,586,o),
(46,517,o),
(45,409,c),
(151,409,l),
(151,465,o),
(167,504,o),
(214,504,cs),
(264,504,o),
(275,463,o),
(275,402,cs),
(275,327,l),
(197,306,ls),
(102,280,o),
(43,231,o),
(43,126,cs),
(43,50,o),
(89,-8,o),
(168,-8,cs)
);
},
{
closed = 1;
nodes = (
(168,75,o),
(150,106,o),
(150,149,cs),
(150,201,o),
(178,233,o),
(229,250,cs),
(275,265,l),
(275,171,ls),
(275,107,o),
(253,75,o),
(208,75,cs)
);
},
{
closed = 1;
nodes = (
(382,397,ls),
(382,458,o),
(397,499,o),
(447,499,cs),
(491,499,o),
(506,470,o),
(506,436,cs),
(506,384,o),
(484,364,o),
(437,353,cs),
(382,340,l)
);
}
);
visible = 1;
width = 653;
},
{
anchors = (
{
name = bottom;
pos = (326,0);
},
{
name = top;
pos = (326,578);
}
);
associatedMasterId = "8AC5A1D3-32A8-4416-86FC-94176A419B8F";
layerId = "7F372203-C061-4E0D-96A2-54059A3DC5BB";
name = "Sep 22 17, 11:18";
shapes = (
{
closed = 1;
nodes = (
(351,491,l),
(337,550,o),
(296,586,o),
(220,586,cs),
(102,586,o),
(47,527,o),
(45,399,c),
(151,395,l),
(151,424,ls),
(151,474,o),
(168,506,o),
(212,506,cs),
(262,506,o),
(270,472,o),
(270,402,cs),
(270,326,l),
(140,283,o),
(42,240,o),
(42,118,cs),
(42,37,o),
(92,-8,o),
(162,-8,cs),
(244,-8,o),
(290,55,o),
(308,115,c),
(284,110,l),
(301,35,o),
(346,-8,o),
(441,-8,cs),
(562,-8,o),
(608,63,o),
(608,179,cs),
(608,201,l),
(504,201,l),
(504,166,ls),
(504,108,o),
(494,71,o),
(446,71,cs),
(400,71,o),
(381,101,o),
(381,171,cs),
(381,287,l),
(469,315,o),
(609,324,o),
(609,461,cs),
(609,525,o),
(568,586,o),
(463,586,cs),
(382,586,o),
(333,558,o),
(320,491,c)
);
},
{
closed = 1;
nodes = (
(167,84,o),
(149,106,o),
(149,144,cs),
(149,203,o),
(201,241,o),
(270,264,c),
(270,132,l),
(261,117,o),
(231,84,o),
(200,84,cs)
);
},
{
closed = 1;
nodes = (
(381,436,ls),
(381,486,o),
(404,507,o),
(448,507,cs),
(491,507,o),
(504,480,o),
(504,452,cs),
(504,390,o),
(459,369,o),
(381,351,c)
);
}
);
width = 652;
},
{
anchors = (
{
name = bottom;
pos = (341,0);
},
{
name = top;
pos = (341,578);
}
);
layerId = "F66B25F0-8957-42F3-9BF7-6C5DDCB0258B";
shapes = (
{
closed = 1;
nodes = (
(250,-12,o),
(312,21,o),
(335,83,c),
(348,20,o),
(413,-12,o),
(471,-12,cs),
(578,-12,o),
(635,49,o),
(635,155,cs),
(635,202,l),
(485,202,l),
(485,164,ls),
(485,129,o),
(482,104,o),
(455,104,cs),
(428,104,o),
(424,128,o),
(424,168,cs),
(424,282,l),
(490,297,ls),
(576,317,o),
(640,352,o),
(640,449,cs),
(640,529,o),
(590,588,o),
(482,588,cs),
(403,588,o),
(341,550,o),
(335,503,c),
(352,503,l),
(345,550,o),
(300,588,o),
(219,588,cs),
(94,588,o),
(38,516,o),
(38,387,c),
(196,382,l),
(196,449,o),
(209,467,o),
(235,467,cs),
(258,467,o),
(269,452,o),
(269,410,cs),
(269,329,l),
(209,315,ls),
(117,293,o),
(36,247,o),
(36,133,cs),
(36,43,o),
(96,-12,o),
(189,-12,cs)
);
},
{
closed = 1;
nodes = (
(193,98,o),
(179,124,o),
(179,158,cs),
(179,199,o),
(196,225,o),
(238,244,cs),
(269,257,l),
(269,160,ls),
(269,116,o),
(252,98,o),
(225,98,cs)
);
},
{
closed = 1;
nodes = (
(423,414,ls),
(423,451,o),
(436,470,o),
(466,470,cs),
(492,470,o),
(505,450,o),
(505,424,cs),
(505,387,o),
(484,368,o),
(439,359,cs),
(423,356,l)
);
}
);
width = 678;
}
);
metricLeft = a;
metricRight = e;
unicode = 230;
userData = {
com.fontlab.hintData = {
hhints = (
{
position = -27;
width = 245;
},
{
position = 603;
width = 161;
},
{
position = 1016;
width = 229;
}
);
vhints = (
{
position = 50;
width = 318;
},
{
position = 529;
width = 347;
},
{
position = 1014;
width = 303;
}
);
};
};
},
{
glyphname = b;
kernLeft = h;
kernRight = o;
layers = (
{
anchors = (
{
name = bottom;
pos = (199,0);
},
{
name = top;
pos = (84,810);
}
);
layerId = "FCD7E481-103E-4A6C-AD70-01DA443B2AD0";
shapes = (
{
closed = 1;
nodes = (
(320,-9,o),
(352,76,o),
(352,238,cs),
(352,349,ls),
(352,494,o),
(328,587,o),
(221,587,cs),
(168,587,o),
(131,557,o),
(110,529,c),
(110,810,l),
(57,810,l),
(57,0,l),
(110,0,l),
(110,48,l),
(131,22,o),
(166,-9,o),
(216,-9,cs)
);
},
{
closed = 1;
nodes = (
(167,32,o),
(133,57,o),
(110,84,c),
(110,492,l),
(131,515,o),
(167,546,o),
(210,546,cs),
(285,546,o),
(298,487,o),
(298,349,cs),
(298,236,ls),
(298,95,o),
(282,32,o),
(209,32,cs)
);
}
);
width = 397;
},
{
associatedMasterId = "FCD7E481-103E-4A6C-AD70-01DA443B2AD0";
layerId = "7299F130-3C4F-4A39-8F64-121A1F638363";
name = b;
width = 526;
},
{
anchors = (
{
name = bottom;
pos = (224,0);
},
{
name = top;
pos = (110,810);
}
);
layerId = "8AC5A1D3-32A8-4416-86FC-94176A419B8F";
shapes = (
{
closed = 1;
nodes = (
(375,-8,o),
(404,106,o),
(404,229,cs),
(404,369,ls),
(404,438,o),
(393,586,o),
(272,586,cs),
(223,586,o),
(188,561,o),
(163,532,c),
(163,810,l),
(56,810,l),
(56,0,l),
(163,0,l),
(163,42,l),
(187,16,o),
(220,-8,o),
(261,-8,cs)
);
},
{
closed = 1;
nodes = (
(208,76,o),
(182,87,o),
(163,102,c),
(163,473,l),
(182,488,o),
(207,502,o),
(235,502,cs),
(290,502,o),
(297,441,o),
(297,369,cs),
(297,229,ls),
(297,144,o),
(294,76,o),
(239,76,cs)
);
}
);
width = 447;
},
{
anchors = (
{
name = bottom;
pos = (253,0);
},
{
name = top;
pos = (133,810);
}
);
layerId = "F66B25F0-8957-42F3-9BF7-6C5DDCB0258B";
shapes = (
{
closed = 1;
nodes = (
(420,-10,o),
(464,61,o),
(464,169,cs),
(464,418,ls),
(464,512,o),
(428,588,o),
(340,588,cs),
(299,588,o),
(254,571,o),
(214,536,c),
(214,810,l),
(51,810,l),
(51,0,l),
(214,0,l),
(214,44,l),
(252,11,o),
(295,-10,o),
(338,-10,cs)
);
},
{
closed = 1;
nodes = (
(244,95,o),
(228,101,o),
(214,111,c),
(214,471,l),
(228,482,o),
(243,490,o),
(261,490,cs),
(290,490,o),
(301,463,o),
(301,430,cs),
(301,160,ls),
(301,124,o),
(290,95,o),
(259,95,cs)
);
}
);
width = 506;
}
);
unicode = 98;
userData = {
com.typemytype.robofont.layerData = {
b = {
anchors = (
);
components = (
);
contours = (
);
lib = {
};
name = b;
unicodes = (
);
width = 1077;
};
};
};
},
{
glyphname = c;
kernLeft = o;
kernRight = c;
layers = (
{
anchors = (
{
name = bottom;
pos = (188,0);
},
{
name = top;
pos = (188,578);
}
);
layerId = "FCD7E481-103E-4A6C-AD70-01DA443B2AD0";
shapes = (
{
closed = 1;
nodes = (
(318,-9,o),
(333,79,o),
(333,195,cs),
(333,216,l),
(283,216,l),
(283,194,ls),
(283,79,o),
(271,31,o),
(193,31,cs),
(117,31,o),
(99,83,o),
(99,209,cs),
(99,359,ls),
(99,496,o),
(114,547,o),
(192,547,cs),
(256,547,o),
(283,517,o),
(283,400,cs),
(283,377,l),
(333,377,l),
(333,400,ls),
(333,506,o),
(312,587,o),
(192,587,cs),
(79,587,o),
(46,523,o),
(46,353,cs),
(46,217,ls),
(46,91,o),
(62,-9,o),
(192,-9,cs)
);
}
);
width = 375;
},
{
associatedMasterId = "FCD7E481-103E-4A6C-AD70-01DA443B2AD0";
layerId = "AD89B645-3C04-4879-83D0-D43B0945470C";
name = b;
width = 488;
},
{
anchors = (
{
name = bottom;
pos = (206,0);
},
{
name = top;
pos = (206,578);
}
);
layerId = "8AC5A1D3-32A8-4416-86FC-94176A419B8F";
shapes = (
{
closed = 1;
nodes = (
(336,-8,o),
(370,61,o),
(370,178,cs),
(370,218,l),
(273,218,l),
(273,171,ls),
(273,112,o),
(267,71,o),
(214,71,cs),
(166,71,o),
(150,96,o),
(150,195,cs),
(150,377,ls),
(150,475,o),
(160,507,o),
(213,507,cs),
(260,507,o),
(273,480,o),
(273,405,cs),
(273,370,l),
(370,370,l),
(370,404,ls),
(370,523,o),
(338,586,o),
(212,586,cs),
(72,586,o),
(43,500,o),
(43,355,cs),
(43,222,ls),
(43,83,o),
(70,-8,o),
(212,-8,cs)
);
}
);
width = 411;
},
{
anchors = (
{
name = bottom;
pos = (235,0);
},
{
name = top;
pos = (235,578);
}
);
layerId = "F66B25F0-8957-42F3-9BF7-6C5DDCB0258B";
shapes = (
{
closed = 1;
nodes = (
(361,-10,o),
(434,49,o),
(434,166,cs),
(434,236,l),
(277,236,l),
(277,159,ls),
(277,117,o),
(265,102,o),
(240,102,cs),
(216,102,o),
(203,117,o),
(203,169,cs),
(203,409,ls),
(203,460,o),
(215,477,o),
(239,477,cs),
(263,477,o),
(277,465,o),
(277,419,cs),
(277,353,l),
(434,353,l),
(434,414,ls),
(434,531,o),
(362,588,o),
(239,588,cs),
(113,588,o),
(39,518,o),
(39,395,cs),
(39,183,ls),
(39,62,o),
(113,-10,o),
(239,-10,cs)
);
}
);
width = 468;
}
);
unicode = 99;
userData = {
com.fontlab.hintData = {
hhints = (
{
position = -22;
width = 263;
},
{
position = 945;
width = 261;
}
);
vhints = (
{
position = 72;
width = 374;
}
);
};
com.typemytype.robofont.layerData = {
b = {
anchors = (
);
components = (
);
contours = (
);
lib = {
};
name = c;
unicodes = (
);
width = 1000;
};
};
};
},
{
glyphname = d;
kernLeft = o;
kernRight = d;
layers = (
{
anchors = (
{
name = bottom;
pos = (198,0);
},
{
name = center;
pos = (198,289);
},
{
name = top;
pos = (311,810);
},
{
name = topright;
pos = (392,810);
}
);
layerId = "FCD7E481-103E-4A6C-AD70-01DA443B2AD0";
shapes = (
{
closed = 1;
nodes = (
(229,-9,o),
(263,19,o),
(284,44,c),
(284,0,l),
(337,0,l),
(337,810,l),
(284,810,l),
(284,534,l),
(263,560,o),
(228,587,o),
(179,587,cs),
(73,587,o),
(46,503,o),
(46,340,cs),
(46,237,ls),
(46,62,o),
(82,-9,o),
(182,-9,cs)
);
},
{
closed = 1;
nodes = (
(117,32,o),
(99,93,o),
(99,233,cs),
(99,353,ls),
(99,488,o),
(114,546,o),
(188,546,cs),
(229,546,o),
(263,517,o),
(284,496,c),
(284,81,l),
(261,55,o),
(227,32,o),
(189,32,cs)
);
}
);
width = 395;
},
{
associatedMasterId = "FCD7E481-103E-4A6C-AD70-01DA443B2AD0";
layerId = "0C242771-698E-4ECF-88BF-BA92679E2B8D";
name = b;
width = 524;
},
{
anchors = (
{
name = bottom;
pos = (221,0);
},
{
name = center;
pos = (221,289);
},
{
name = top;
pos = (335,810);
},
{
name = topright;
pos = (436,810);
}
);
layerId = "8AC5A1D3-32A8-4416-86FC-94176A419B8F";
shapes = (
{
closed = 1;
nodes = (
(226,-8,o),
(256,10,o),
(281,37,c),
(281,0,l),
(388,0,l),
(388,810,l),
(281,810,l),
(281,541,l),
(256,566,o),
(224,586,o),
(185,586,cs),
(67,586,o),
(43,471,o),
(43,339,cs),
(43,227,ls),
(43,56,o),
(90,-8,o),
(188,-8,cs)
);
},
{
closed = 1;
nodes = (
(158,76,o),
(150,137,o),
(150,218,cs),
(150,381,ls),
(150,447,o),
(163,502,o),
(213,502,cs),
(239,502,o),
(262,490,o),
(281,477,c),
(281,98,l),
(258,83,o),
(235,76,o),
(215,76,cs)
);
}
);
width = 442;
},
{
anchors = (
{
name = bottom;
pos = (252,0);
},
{
name = center;
pos = (252,289);
},
{
name = top;
pos = (371,810);
},
{
name = topright;
pos = (503,810);
}
);
layerId = "F66B25F0-8957-42F3-9BF7-6C5DDCB0258B";
shapes = (
{
closed = 1;
nodes = (
(215,-10,o),
(254,10,o),
(290,45,c),
(290,0,l),
(453,0,l),
(453,810,l),
(290,810,l),
(290,542,l),
(258,570,o),
(219,588,o),
(176,588,cs),
(87,588,o),
(42,514,o),
(42,407,cs),
(42,168,ls),
(42,50,o),
(90,-10,o),
(176,-10,cs)
);
},
{
closed = 1;
nodes = (
(217,94,o),
(206,122,o),
(206,158,cs),
(206,424,ls),
(206,459,o),
(218,487,o),
(248,487,cs),
(261,487,o),
(277,481,o),
(290,474,c),
(290,109,l),
(274,99,o),
(258,94,o),
(247,94,cs)
);
}
);
width = 503;
}
);
unicode = 100;
userData = {
com.fontlab.hintData = {
hhints = (
{
position = -22;
width = 226;
},
{
position = 986;
width = 220;
}
);
};
com.typemytype.robofont.layerData = {
b = {
anchors = (
);
components = (
);
contours = (
);
lib = {
};
name = d;
unicodes = (
);
width = 1074;
};
};
};
},
{
glyphname = dcroat;
kernLeft = o;
kernRight = d;
layers = (
{
layerId = "FCD7E481-103E-4A6C-AD70-01DA443B2AD0";
shapes = (
{
closed = 1;
nodes = (
(229,-9,o),
(263,19,o),
(284,44,c),
(284,0,l),
(337,0,l),
(337,690,l),
(394,690,l),
(394,725,l),
(337,725,l),
(337,810,l),
(284,810,l),
(284,725,l),
(200,725,l),
(200,690,l),
(284,690,l),
(284,534,l),
(263,560,o),
(228,587,o),
(179,587,cs),
(73,587,o),
(46,503,o),
(46,340,cs),
(46,237,ls),
(46,62,o),
(82,-9,o),
(182,-9,cs)
);
},
{
closed = 1;
nodes = (
(117,32,o),
(99,93,o),
(99,233,cs),
(99,353,ls),
(99,488,o),
(114,546,o),
(188,546,cs),
(229,546,o),
(263,517,o),
(284,496,c),
(284,81,l),
(261,55,o),
(227,32,o),
(189,32,cs)
);
}
);
width = 410;
},
{
associatedMasterId = "FCD7E481-103E-4A6C-AD70-01DA443B2AD0";
layerId = "4A8C991C-2B0D-4517-B7B2-82E8361DA185";
name = b;
width = 515;
},
{
layerId = "8AC5A1D3-32A8-4416-86FC-94176A419B8F";
shapes = (
{
closed = 1;
nodes = (
(226,-8,o),
(256,10,o),
(281,37,c),
(281,0,l),
(388,0,l),
(388,679,l),
(447,679,l),
(447,738,l),
(388,738,l),
(388,810,l),
(281,810,l),
(281,738,l),
(169,738,l),
(169,679,l),
(281,679,l),
(281,541,l),
(256,566,o),
(224,586,o),
(185,586,cs),
(67,586,o),
(43,471,o),
(43,339,cs),
(43,227,ls),
(43,56,o),
(90,-8,o),
(188,-8,cs)
);
},
{
closed = 1;
nodes = (
(158,76,o),
(150,137,o),
(150,218,cs),
(150,381,ls),
(150,447,o),
(163,502,o),
(213,502,cs),
(239,502,o),
(262,490,o),
(281,477,c),
(281,98,l),
(258,83,o),
(235,76,o),
(215,76,cs)
);
}
);
width = 454;
},
{
layerId = "F66B25F0-8957-42F3-9BF7-6C5DDCB0258B";
shapes = (
{
closed = 1;
nodes = (
(213,-10,o),
(251,10,o),
(285,45,c),
(285,0,l),
(448,0,l),
(448,681,l),
(497,681,l),
(497,747,l),
(448,747,l),
(448,810,l),
(285,810,l),
(285,747,l),
(151,747,l),
(151,681,l),
(285,681,l),
(285,542,l),
(253,570,o),
(215,588,o),
(173,588,cs),
(84,588,o),
(39,514,o),
(39,407,cs),
(39,168,ls),
(39,50,o),
(87,-10,o),
(173,-10,cs)
);
},
{
closed = 1;
nodes = (
(214,94,o),
(203,122,o),
(203,158,cs),
(203,424,ls),
(203,459,o),
(215,487,o),
(245,487,cs),
(258,487,o),
(272,481,o),
(285,474,c),
(285,109,l),
(270,99,o),
(255,94,o),
(244,94,cs)
);
}
);
width = 500;
}
);
unicode = 273;
userData = {
com.fontlab.hintData = {
hhints = (
{
position = -22;
width = 226;
},
{
position = 986;
width = 220;
}
);
};
com.typemytype.robofont.layerData = {
b = {
anchors = (
);
components = (
);
contours = (
);
lib = {
};
name = dcroat;
unicodes = (
);
width = 1055;
};
};
};
},
{
glyphname = eth;
kernLeft = o;
layers = (
{
layerId = "FCD7E481-103E-4A6C-AD70-01DA443B2AD0";
shapes = (
{
closed = 1;
nodes = (
(337,-11,o),
(370,79,o),
(370,248,cs),
(370,332,ls),
(370,503,o),
(331,638,o),
(313,679,c),
(380,697,l),
(380,730,l),
(299,709,l),
(258,793,o),
(183,822,o),
(84,828,c),
(81,791,l),
(170,783,o),
(228,754,o),
(256,695,c),
(168,671,l),
(168,638,l),
(271,666,l),
(287,635,o),
(299,575,o),
(306,529,c),
(276,545,o),
(243,556,o),
(208,556,cs),
(110,556,o),
(56,477,o),
(55,302,cs),
(55,223,ls),
(55,79,o),
(97,-11,o),
(215,-11,cs)
);
},
{
closed = 1;
nodes = (
(141,32,o),
(107,103,o),
(107,257,cs),
(107,448,o),
(146,514,o),
(220,514,cs),
(252,514,o),
(281,502,o),
(308,489,c),
(310,480,o),
(318,335,o),
(318,283,cs),
(318,101,o),
(305,32,o),
(217,32,cs)
);
}
);
width = 430;
},
{
associatedMasterId = "FCD7E481-103E-4A6C-AD70-01DA443B2AD0";
layerId = "6E2118F9-BBA8-48C2-BC42-30B97830501D";
name = b;
shapes = (
{
closed = 1;
nodes = (
(197,15,cs),
(134,15,o),
(86,71,o),
(86,246,cs),
(86,440,o),
(129,489,o),
(216,489,cs),
(243,489,o),
(280,481,o),
(308,466,c),
(311,455,o),
(322,380,o),
(322,309,cs),
(322,87,o),
(291,15,o)
);
},
{
closed = 1;
nodes = (
(196,-12,cs),
(310,-12,o),
(351,83,o),
(351,260,cs),
(351,303,ls),
(351,471,o),
(297,643,o),
(284,676,c),
(354,694,l),
(354,719,l),
(274,698,l),
(233,791,o),
(171,824,o),
(85,831,c),
(82,808,l),
(169,797,o),
(218,761,o),
(247,689,c),
(175,671,l),
(175,646,l),
(258,667,l),
(275,626,o),
(293,561,o),
(306,489,c),
(274,507,o),
(240,515,o),
(212,515,cs),
(120,514,o),
(51,459,o),
(55,262,cs),
(56,223,ls),
(60,79,o),
(102,-12,o)
);
}
);
width = 413;
},
{
layerId = "8AC5A1D3-32A8-4416-86FC-94176A419B8F";
shapes = (
{
closed = 1;
nodes = (
(369,-9,o),
(416,88,o),
(416,237,cs),
(416,377,ls),
(416,501,o),
(395,588,o),
(353,681,c),
(442,705,l),
(442,759,l),
(326,725,l),
(282,789,o),
(211,818,o),
(82,819,c),
(77,749,l),
(172,748,o),
(214,730,o),
(242,698,c),
(152,672,l),
(152,618,l),
(271,655,l),
(290,626,o),
(301,573,o),
(306,521,c),
(287,538,o),
(255,557,o),
(209,557,cs),
(77,557,o),
(52,438,o),
(52,292,cs),
(52,225,ls),
(52,80,o),
(112,-9,o),
(237,-9,cs)
);
},
{
closed = 1;
nodes = (
(165,76,o),
(159,147,o),
(159,284,cs),
(159,410,o),
(176,469,o),
(236,469,cs),
(266,469,o),
(290,452,o),
(308,436,c),
(308,364,o),
(308,291,o),
(308,219,cs),
(308,133,o),
(295,76,o),
(237,76,cs)
);
}
);
width = 471;
},
{
associatedMasterId = "8AC5A1D3-32A8-4416-86FC-94176A419B8F";
layerId = "C302B57D-4511-4125-9800-54048E6D8BDD";
name = "Sep 22 17, 11:23";
shapes = (
{
closed = 1;
nodes = (
(366,-9,o),
(416,88,o),
(416,237,cs),
(416,377,ls),
(416,501,o),
(395,588,o),
(353,681,c),
(442,705,l),
(442,759,l),
(326,725,l),
(282,789,o),
(211,818,o),
(82,819,c),
(77,749,l),
(172,748,o),
(214,730,o),
(242,698,c),
(152,672,l),
(152,618,l),
(271,655,l),
(290,626,o),
(301,573,o),
(306,521,c),
(287,538,o),
(255,557,o),
(209,557,cs),
(77,557,o),
(52,438,o),
(52,292,cs),
(52,225,ls),
(52,80,o),
(79,-9,o),
(227,-9,cs)
);
},
{
closed = 1;
nodes = (
(144,76,o),
(159,181,o),
(159,284,cs),
(159,410,o),
(176,469,o),
(236,469,cs),
(266,469,o),
(290,452,o),
(308,436,c),
(308,364,o),
(308,291,o),
(308,219,cs),
(308,133,o),
(300,76,o),
(230,76,cs)
);
}
);
visible = 1;
width = 471;
},
{
layerId = "F66B25F0-8957-42F3-9BF7-6C5DDCB0258B";
shapes = (
{
closed = 1;
nodes = (
(376,-14,o),
(469,35,o),
(469,215,cs),
(469,443,ls),
(469,608,o),
(430,693,o),
(402,741,c),
(477,782,l),
(459,823,l),
(373,776,l),
(332,820,o),
(257,844,o),
(143,844,c),
(136,742,l),
(201,742,o),
(242,729,o),
(256,710,c),
(177,668,l),
(195,627,l),
(282,673,l),
(294,657,o),
(305,616,o),
(306,564,c),
(287,574,o),
(261,582,o),
(230,582,cs),
(134,582,o),
(54,505,o),
(54,380,cs),
(54,211,ls),
(54,51,o),
(148,-14,o),
(262,-14,cs)
);
},
{
closed = 1;
nodes = (
(217,94,o),
(213,144,o),
(213,289,cs),
(213,434,o),
(223,477,o),
(269,477,cs),
(283,477,o),
(295,471,o),
(306,465,c),
(306,368,o),
(306,271,o),
(306,173,cs),
(306,124,o),
(297,94,o),
(266,94,cs)
);
}
);
width = 520;
}
);
unicode = 240;
userData = {
com.fontlab.hintData = {
hhints = (
{
position = -34;
width = 238;
},
{
position = 986;
width = 220;
},
{
position = 1486;
width = 259;
}
);
vhints = (
{
position = 72;
width = 364;
},
{
position = 588;
width = 372;
}
);
};
com.typemytype.robofont.layerData = {
b = {
anchors = (
);
components = (
);
contours = (
{
points = (
{
segmentType = curve;
smooth = 1;
x = 402.50049;
y = 30;
},
{
smooth = 0;
x = 273.50049;
y = 30;
},
{
smooth = 0;
x = 175.5005;
y = 146;
},
{
segmentType = curve;
smooth = 1;
x = 175.5005;
y = 504;
},
{
smooth = 0;
x = 175.5005;
y = 902;
},
{
smooth = 0;
x = 264;
y = 1001;
},
{
segmentType = curve;
smooth = 1;
x = 442;
y = 1001;
},
{
smooth = 0;
x = 497;
y = 1001;
},
{
smooth = 0;
x = 573;
y = 985;
},
{
segmentType = curve;
smooth = 0;
x = 631;
y = 955;
},
{
smooth = 0;
x = 636;
y = 931;
},
{
smooth = 0;
x = 658.50049;
y = 778;
},
{
segmentType = curve;
smooth = 1;
x = 658.50049;
y = 633;
},
{
smooth = 0;
x = 658.50049;
y = 178;
},
{
smooth = 0;
x = 596.50049;
y = 30;
}
);
},
{
points = (
{
segmentType = curve;
smooth = 1;
x = 400.50049;
y = -24;
},
{
smooth = 0;
x = 635.50049;
y = -24;
},
{
smooth = 0;
x = 718.50049;
y = 169;
},
{
segmentType = curve;
smooth = 1;
x = 718.50049;
y = 533;
},
{
segmentType = line;
smooth = 1;
x = 718.50049;
y = 621;
},
{
smooth = 0;
x = 718.50049;
y = 965;
},
{
smooth = 0;
x = 608.78748;
y = 1316.63;
},
{
segmentType = curve;
smooth = 0;
x = 581.50049;
y = 1384;
},
{
segmentType = line;
smooth = 0;
x = 725.50049;
y = 1421;
},
{
segmentType = line;
smooth = 0;
x = 725.50049;
y = 1472;
},
{
segmentType = line;
smooth = 0;
x = 560.50049;
y = 1430;
},
{
smooth = 0;
x = 477.50049;
y = 1620;
},
{
smooth = 0;
x = 349.50049;
y = 1687;
},
{
segmentType = curve;
smooth = 0;
x = 173.5005;
y = 1702;
},
{
segmentType = line;
smooth = 0;
x = 168.5005;
y = 1655;
},
{
smooth = 0;
x = 346.50049;
y = 1632;
},
{
smooth = 0;
x = 446.50049;
y = 1558;
},
{
segmentType = curve;
smooth = 0;
x = 505.50049;
y = 1412;
},
{
segmentType = line;
smooth = 0;
x = 358.50049;
y = 1374;
},
{
segmentType = line;
smooth = 0;
x = 358.50049;
y = 1324;
},
{
segmentType = line;
smooth = 0;
x = 528.50049;
y = 1367;
},
{
smooth = 0;
x = 562.50049;
y = 1282;
},
{
smooth = 0;
x = 601;
y = 1148;
},
{
segmentType = curve;
smooth = 0;
x = 626;
y = 1001;
},
{
smooth = 0;
x = 562;
y = 1038;
},
{
smooth = 0;
x = 491;
y = 1055;
},
{
segmentType = curve;
smooth = 1;
x = 434;
y = 1055;
},
{
smooth = 0;
x = 245;
y = 1053;
},
{
smooth = 0;
x = 103.5005;
y = 941;
},
{
segmentType = curve;
smooth = 1;
x = 113.5005;
y = 536;
},
{
segmentType = line;
smooth = 1;
x = 115.5005;
y = 456;
},
{
smooth = 0;
x = 122.5005;
y = 161;
},
{
smooth = 0;
x = 208.8085;
y = -24;
}
);
}
);
lib = {
};
name = eth;
unicodes = (
);
width = 845;
};
};
};
},
{
glyphname = e;
kernLeft = o;
kernRight = e;
layers = (
{
anchors = (
{
name = bottom;
pos = (190,0);
},
{
name = ogonek;
pos = (231,10);
},
{
name = top;
pos = (190,578);
}
);
layerId = "FCD7E481-103E-4A6C-AD70-01DA443B2AD0";
shapes = (
{
closed = 1;
nodes = (
(302,-9,o),
(336,58,o),
(336,157,cs),
(336,195,l),
(284,195,l),
(284,152,ls),
(284,41,o),
(235,31,o),
(193,31,cs),
(126,31,o),
(99,71,o),
(99,210,cs),
(99,302,l),
(336,302,l),
(336,357,ls),
(336,523,o),
(302,587,o),
(194,587,cs),
(103,587,o),
(46,549,o),
(46,368,cs),
(46,214,ls),
(46,35,o),
(101,-9,o),
(193,-9,cs)
);
},
{
closed = 1;
nodes = (
(99,378,ls),
(99,515,o),
(129,547,o),
(194,547,cs),
(275,547,o),
(284,482,o),
(284,379,cs),
(284,334,l),
(99,334,l)
);
}
);
width = 379;
},
{
associatedMasterId = "FCD7E481-103E-4A6C-AD70-01DA443B2AD0";
layerId = "00D77B0C-9F53-4E0E-8749-E1E3D46765C9";
name = b;
width = 486;
},
{
anchors = (
{
name = bottom;
pos = (211,0);
},
{
name = ogonek;
pos = (249,10);
},
{
name = top;
pos = (211,578);
}
);
layerId = "8AC5A1D3-32A8-4416-86FC-94176A419B8F";
shapes = (
{
closed = 1;
nodes = (
(332,-8,o),
(377,63,o),
(377,179,cs),
(377,201,l),
(273,201,l),
(273,166,ls),
(273,108,o),
(263,71,o),
(215,71,cs),
(169,71,o),
(150,101,o),
(150,171,cs),
(150,287,l),
(378,287,l),
(378,334,ls),
(378,492,o),
(359,586,o),
(214,586,cs),
(81,586,o),
(43,508,o),
(43,355,cs),
(43,223,ls),
(43,72,o),
(78,-8,o),
(214,-8,cs)
);
},
{
closed = 1;
nodes = (
(150,376,ls),
(150,476,o),
(161,507,o),
(213,507,cs),
(266,507,o),
(273,468,o),
(273,397,cs),
(273,345,l),
(150,345,l)
);
}
);
width = 421;
},
{
anchors = (
{
name = bottom;
pos = (211,0);
},
{
name = ogonek;
pos = (249,10);
},
{
name = top;
pos = (211,578);
}
);
associatedMasterId = "8AC5A1D3-32A8-4416-86FC-94176A419B8F";
layerId = "9B5F88BA-9BDD-490A-9416-77A90CB6AE2A";
name = "Sep 22 17, 11:11";
shapes = (
{
closed = 1;
nodes = (
(332,-8,o),
(377,63,o),
(377,179,cs),
(377,201,l),
(273,201,l),
(273,166,ls),
(273,108,o),
(263,71,o),
(213,71,cs),
(148,71,o),
(150,133,o),
(150,210,cs),
(150,287,l),
(378,287,l),
(378,334,ls),
(378,492,o),
(359,586,o),
(214,586,cs),
(81,586,o),
(43,508,o),
(43,355,cs),
(43,223,ls),
(43,72,o),
(78,-8,o),
(214,-8,cs)
);
},
{
closed = 1;
nodes = (
(150,376,ls),
(150,476,o),
(161,507,o),
(213,507,cs),
(266,507,o),
(273,468,o),
(273,397,cs),
(273,345,l),
(150,345,l)
);
}
);
visible = 1;
width = 421;
},
{
anchors = (
{
name = bottom;
pos = (235,0);
},
{
name = ogonek;
pos = (270,10);
},
{
name = top;
pos = (238,578);
}
);
layerId = "F66B25F0-8957-42F3-9BF7-6C5DDCB0258B";
shapes = (
{
closed = 1;
nodes = (
(360,-10,o),
(432,50,o),
(432,167,cs),
(432,223,l),
(282,223,l),
(282,162,ls),
(282,120,o),
(264,106,o),
(240,106,cs),
(216,106,o),
(200,123,o),
(200,168,cs),
(200,279,l),
(432,279,l),
(432,395,ls),
(432,521,o),
(368,588,o),
(240,588,cs),
(115,588,o),
(39,519,o),
(39,395,cs),
(39,183,ls),
(39,60,o),
(114,-10,o),
(240,-10,cs)
);
},
{
closed = 1;
nodes = (
(200,404,ls),
(200,457,o),
(215,472,o),
(239,472,cs),
(264,472,o),
(282,459,o),
(282,413,cs),
(282,355,l),
(200,355,l)
);
}
);
width = 470;
}
);
unicode = 101;
userData = {
com.fontlab.hintData = {
hhints = (
{
position = -22;
width = 263;
},
{
position = 943;
width = 263;
}
);
vhints = (
{
position = 72;
width = 368;
}
);
};
com.typemytype.robofont.layerData = {
b = {
anchors = (
);
components = (
);
contours = (
);
lib = {
};
name = e;
unicodes = (
);
width = 996;
};
};
};
},
{
glyphname = schwa;
kernRight = o;
layers = (
{
layerId = "FCD7E481-103E-4A6C-AD70-01DA443B2AD0";
shapes = (
{
closed = 1;
nodes = (
(276,-11,o),
(333,27,o),
(333,208,cs),
(333,364,ls),
(333,543,o),
(278,587,o),
(186,587,cs),
(77,587,o),
(43,520,o),
(43,421,cs),
(43,383,l),
(95,383,l),
(95,426,ls),
(95,537,o),
(144,547,o),
(186,547,cs),
(253,547,o),
(280,507,o),
(280,368,cs),
(280,274,l),
(43,274,l),
(43,219,ls),
(43,53,o),
(77,-11,o),
(185,-11,cs)
);
},
{
closed = 1;
nodes = (
(104,29,o),
(95,94,o),
(95,197,cs),
(95,242,l),
(280,242,l),
(280,198,ls),
(280,61,o),
(250,29,o),
(185,29,cs)
);
}
);
width = 379;
},
{
layerId = "8AC5A1D3-32A8-4416-86FC-94176A419B8F";
shapes = (
{
closed = 1;
nodes = (
(340,-9,o),
(378,69,o),
(378,222,cs),
(378,356,ls),
(378,506,o),
(343,586,o),
(207,586,cs),
(89,586,o),
(44,515,o),
(44,400,cs),
(44,378,l),
(148,378,l),
(148,413,ls),
(148,470,o),
(158,507,o),
(208,507,cs),
(263,507,o),
(271,460,o),
(271,402,cs),
(271,290,l),
(43,290,l),
(43,243,ls),
(43,85,o),
(62,-9,o),
(207,-9,cs)
);
},
{
closed = 1;
nodes = (
(155,70,o),
(148,109,o),
(148,180,cs),
(148,232,l),
(271,232,l),
(271,201,ls),
(271,101,o),
(260,70,o),
(208,70,cs)
);
}
);
width = 421;
},
{
associatedMasterId = "8AC5A1D3-32A8-4416-86FC-94176A419B8F";
layerId = "37A2F74A-D599-44A0-86ED-269CFA9CA59C";
name = "Sep 22 17, 11:24";
shapes = (
{
closed = 1;
nodes = (
(340,-9,o),
(378,69,o),
(378,222,cs),
(378,356,ls),
(378,506,o),
(343,586,o),
(207,586,cs),
(89,586,o),
(44,515,o),
(44,400,cs),
(44,378,l),
(148,378,l),
(148,413,ls),
(148,470,o),
(158,507,o),
(208,507,cs),
(273,507,o),
(271,445,o),
(271,369,cs),
(271,290,l),
(43,290,l),
(43,243,ls),
(43,85,o),
(62,-9,o),
(207,-9,cs)
);
},
{
closed = 1;
nodes = (
(155,70,o),
(148,109,o),
(148,180,cs),
(148,232,l),
(271,232,l),
(271,201,ls),
(271,101,o),
(260,70,o),
(208,70,cs)
);
}
);
visible = 1;
width = 421;
},
{
layerId = "F66B25F0-8957-42F3-9BF7-6C5DDCB0258B";
shapes = (
{
closed = 1;
nodes = (
(355,-12,o),
(431,57,o),
(431,182,cs),
(431,395,ls),
(431,518,o),
(355,588,o),
(230,588,cs),
(110,588,o),
(38,528,o),
(38,412,cs),
(38,355,l),
(188,355,l),
(188,416,ls),
(188,458,o),
(206,472,o),
(230,472,cs),
(256,472,o),
(269,451,o),
(269,409,cs),
(269,297,l),
(38,297,l),
(38,181,ls),
(38,55,o),
(102,-12,o),
(230,-12,cs)
);
},
{
closed = 1;
nodes = (
(205,104,o),
(188,118,o),
(188,164,cs),
(188,221,l),
(269,221,l),
(269,172,ls),
(269,120,o),
(255,104,o),
(230,104,cs)
);
}
);
width = 470;
}
);
metricLeft = "=|e";
metricRight = "=|e";
unicode = 601;
},
{
color = 4;
glyphname = ezh;
kernLeft = ezh;
kernRight = ezh;
layers = (
{
anchors = (
{
name = bottom;
pos = (200,0);
},
{
name = top;
pos = (200,578);
}
);
layerId = "FCD7E481-103E-4A6C-AD70-01DA443B2AD0";
shapes = (
{
closed = 1;
nodes = (
(319,-196,o),
(373,-102,o),
(373,31,cs),
(373,189,o),
(318,280,o),
(175,280,cs),
(129,280,l),
(135,262,l),
(338,543,l),
(338,578,l),
(49,578,l),
(49,537,l),
(329,537,l),
(305,573,l),
(88,274,l),
(88,233,l),
(188,233,ls),
(284,233,o),
(318,156,o),
(318,30,cs),
(318,-114,o),
(260,-153,o),
(185,-153,cs),
(100,-153,o),
(65,-100,o),
(65,-6,cs),
(65,-4,o),
(65,8,o),
(65,10,c),
(15,10,l),
(15,-5,ls),
(15,-120,o),
(63,-196,o),
(185,-196,cs)
);
}
);
width = 400;
},
{
anchors = (
{
name = bottom;
pos = (229,0);
},
{
name = top;
pos = (229,578);
}
);
layerId = "8AC5A1D3-32A8-4416-86FC-94176A419B8F";
shapes = (
{
closed = 1;
nodes = (
(370,-196,o),
(428,-102,o),
(428,42,cs),
(428,184,o),
(379,291,o),
(228,291,cs),
(167,291,l),
(199,264,l),
(385,520,l),
(385,578,l),
(62,578,l),
(62,498,l),
(322,498,l),
(282,533,l),
(97,288,l),
(97,219,l),
(198,219,ls),
(297,219,o),
(321,155,o),
(321,42,cs),
(321,-47,o),
(305,-107,o),
(228,-107,cs),
(154,-107,o),
(136,-52,o),
(136,21,cs),
(136,27,o),
(136,34,o),
(136,39,c),
(30,39,l),
(30,12,ls),
(30,-117,o),
(96,-196,o),
(228,-196,cs)
);
}
);
width = 458;
},
{
anchors = (
{
name = bottom;
pos = (243,0);
},
{
name = top;
pos = (243,578);
}
);
layerId = "F66B25F0-8957-42F3-9BF7-6C5DDCB0258B";
shapes = (
{
closed = 1;
nodes = (
(400,-205,o),
(458,-100,o),
(458,49,cs),
(458,207,o),
(411,297,o),
(238,297,cs),
(189,297,l),
(238,261,l),
(413,479,l),
(413,578,l),
(57,578,l),
(57,459,l),
(290,459,l),
(270,493,l),
(121,306,l),
(121,211,l),
(185,211,ls),
(277,211,o),
(295,167,o),
(295,44,cs),
(295,-49,o),
(286,-91,o),
(240,-91,cs),
(195,-91,o),
(182,-53,o),
(182,50,cs),
(182,61,o),
(182,77,o),
(182,79,c),
(22,79,l),
(22,50,ls),
(22,-101,o),
(76,-205,o),
(238,-205,cs)
);
}
);
width = 485;
}
);
unicode = 658;
},
{
glyphname = f;
kernLeft = f;
kernRight = f;
layers = (
{
anchors = (
{
name = bottom;
pos = (128,0);
},
{
name = top;
pos = (170,780);
}
);
layerId = "FCD7E481-103E-4A6C-AD70-01DA443B2AD0";
shapes = (
{
closed = 1;
nodes = (
(148,0,l),
(148,541,l),
(245,541,l),
(245,578,l),
(148,578,l),
(148,657,ls),
(148,720,o),
(155,746,o),
(200,746,cs),
(212,746,o),
(229,744,o),
(242,740,c),
(242,780,l),
(226,785,o),
(206,787,o),
(189,787,cs),
(102,787,o),
(95,729,o),
(95,656,cs),
(95,578,l),
(17,578,l),
(17,541,l),
(95,541,l),
(95,0,l)
);
}
);
width = 256;
},
{
associatedMasterId = "FCD7E481-103E-4A6C-AD70-01DA443B2AD0";
layerId = "93ADD118-AC46-4D1F-A501-A5E32E8290F7";
name = b;
width = 332;
},
{
anchors = (
{
name = bottom;
pos = (144,0);
},
{
name = top;
pos = (196,776);
}
);
layerId = "8AC5A1D3-32A8-4416-86FC-94176A419B8F";
shapes = (
{
closed = 1;
nodes = (
(195,0,l),
(195,499,l),
(283,499,l),
(283,578,l),
(195,578,l),
(195,626,ls),
(195,671,o),
(201,701,o),
(243,701,cs),
(255,701,o),
(271,699,o),
(283,696,c),
(283,774,l),
(258,779,o),
(240,781,o),
(213,781,cs),
(104,781,o),
(88,715,o),
(88,608,cs),
(88,578,l),
(19,578,l),
(19,499,l),
(88,499,l),
(88,0,l)
);
}
);
width = 287;
},
{
anchors = (
{
name = bottom;
pos = (160,0);
},
{
name = top;
pos = (196,785);
}
);
layerId = "F66B25F0-8957-42F3-9BF7-6C5DDCB0258B";
shapes = (
{
closed = 1;
nodes = (
(235,0,l),
(235,468,l),
(308,468,l),
(308,578,l),
(235,578,l),
(235,624,ls),
(235,656,o),
(249,669,o),
(273,669,cs),
(285,669,o),
(299,666,o),
(308,664,c),
(308,785,l),
(279,789,o),
(255,790,o),
(230,790,cs),
(90,790,o),
(72,723,o),
(72,621,cs),
(72,578,l),
(17,578,l),
(17,468,l),
(72,468,l),
(72,0,l)
);
}
);
width = 320;
}
);
unicode = 102;
userData = {
com.fontlab.hintData = {
hhints = (
{
position = 1348;
width = 277;
}
);
vhints = (
{
position = 16;
width = 615;
}
);
};
com.typemytype.robofont.layerData = {
b = {
anchors = (
);
components = (
);
contours = (
);
lib = {
};
name = f;
unicodes = (
);
width = 679;
};
};
};
},
{
glyphname = g;
kernLeft = g;
kernRight = g;
layers = (
{
anchors = (
{
name = bottom;
pos = (215,0);
},
{
name = top;
pos = (215,578);
}
);
layerId = "FCD7E481-103E-4A6C-AD70-01DA443B2AD0";
shapes = (
{
closed = 1;
nodes = (
(301,-196,o),
(388,-159,o),
(388,-68,cs),
(388,6,o),
(330,44,o),
(236,61,cs),
(142,78,ls),
(108,84,o),
(94,94,o),
(94,115,cs),
(94,142,o),
(123,172,o),
(151,200,c),
(127,215,l),
(80,176,o),
(48,144,o),
(48,105,cs),
(48,69,o),
(72,50,o),
(132,38,cs),
(216,21,ls),
(323,2,o),
(343,-27,o),
(343,-69,cs),
(343,-128,o),
(280,-153,o),
(202,-153,cs),
(111,-153,o),
(61,-132,o),
(61,-81,cs),
(61,-23,o),
(126,16,o),
(159,35,c),
(126,45,l),
(74,20,o),
(15,-32,o),
(15,-94,cs),
(15,-163,o),
(81,-196,o),
(202,-196,cs)
);
},
{
closed = 1;
nodes = (
(320,184,o),
(366,272,o),
(366,387,cs),
(366,489,o),
(313,587,o),
(205,587,cs),
(91,587,o),
(44,483,o),
(44,388,cs),
(44,276,o),
(94,184,o),
(207,184,cs)
);
},
{
closed = 1;
nodes = (
(108,223,o),
(93,326,o),
(93,388,cs),
(93,442,o),
(113,548,o),
(206,548,cs),
(298,548,o),
(317,449,o),
(317,388,cs),
(317,324,o),
(306,223,o),
(207,223,cs)
);
},
{
closed = 1;
nodes = (
(362,507,o),
(403,534,o),
(440,543,c),
(425,583,l),
(378,566,o),
(345,537,o),
(331,505,c),
(343,480,l)
);
}
);
width = 429;
},
{
anchors = (
{
name = bottom;
pos = (221,0);
},
{
name = top;
pos = (221,578);
}
);
layerId = "8AC5A1D3-32A8-4416-86FC-94176A419B8F";
shapes = (
{
closed = 1;
nodes = (
(346,-181,o),
(412,-131,o),
(412,-34,cs),
(412,52,o),
(369,99,o),
(278,107,cs),
(181,116,ls),
(147,119,o),
(133,128,o),
(133,143,cs),
(133,161,o),
(149,183,o),
(157,194,c),
(121,222,l),
(74,180,o),
(45,153,o),
(45,105,cs),
(45,73,o),
(70,43,o),
(122,36,cs),
(248,20,ls),
(311,14,o),
(328,-3,o),
(328,-38,cs),
(328,-77,o),
(292,-94,o),
(216,-94,cs),
(138,-94,o),
(113,-77,o),
(113,-42,cs),
(113,-10,o),
(140,13,o),
(166,38,c),
(116,45,l),
(67,26,o),
(20,-11,o),
(20,-71,cs),
(20,-149,o),
(100,-181,o),
(207,-181,cs)
);
},
{
closed = 1;
nodes = (
(333,178,o),
(374,259,o),
(374,378,cs),
(374,491,o),
(324,586,o),
(211,586,cs),
(101,586,o),
(43,515,o),
(43,381,cs),
(43,262,o),
(93,178,o),
(211,178,cs)
);
},
{
closed = 1;
nodes = (
(153,255,o),
(143,308,o),
(143,381,cs),
(143,464,o),
(154,510,o),
(212,510,cs),
(269,510,o),
(277,461,o),
(277,381,cs),
(277,300,o),
(269,255,o),
(211,255,cs)
);
},
{
closed = 1;
nodes = (
(354,489,o),
(425,515,o),
(453,521,c),
(425,591,l),
(382,572,o),
(339,540,o),
(329,521,c),
(354,481,l)
);
}
);
width = 441;
},
{
anchors = (
{
name = bottom;
pos = (251,0);
},
{
name = top;
pos = (251,578);
}
);
layerId = "F66B25F0-8957-42F3-9BF7-6C5DDCB0258B";
shapes = (
{
closed = 1;
nodes = (
(419,-200,o),
(488,-141,o),
(488,-29,cs),
(488,55,o),
(444,111,o),
(345,123,cs),
(208,141,ls),
(167,146,o),
(153,155,o),
(153,171,cs),
(153,188,o),
(163,201,o),
(179,217,c),
(122,249,l),
(75,210,o),
(44,171,o),
(44,125,cs),
(44,71,o),
(82,33,o),
(144,25,cs),
(288,7,ls),
(344,0,o),
(362,-9,o),
(362,-36,cs),
(362,-69,o),
(325,-78,o),
(261,-78,cs),
(183,-78,o),
(153,-64,o),
(153,-34,cs),
(153,-7,o),
(173,11,o),
(195,29,c),
(132,40,l),
(69,16,o),
(25,-23,o),
(25,-83,cs),
(25,-162,o),
(109,-200,o),
(240,-200,cs)
);
},
{
closed = 1;
nodes = (
(382,187,o),
(449,261,o),
(449,387,cs),
(449,514,o),
(377,588,o),
(250,588,cs),
(116,588,o),
(42,517,o),
(42,387,cs),
(42,261,o),
(114,187,o),
(250,187,cs)
);
},
{
closed = 1;
nodes = (
(213,284,o),
(205,313,o),
(205,387,cs),
(205,464,o),
(214,491,o),
(250,491,cs),
(286,491,o),
(294,463,o),
(294,387,cs),
(294,311,o),
(286,284,o),
(250,284,cs)
);
},
{
closed = 1;
nodes = (
(440,503,o),
(496,528,o),
(517,535,c),
(478,613,l),
(427,589,o),
(400,570,o),
(380,531,c),
(414,487,l)
);
}
);
width = 502;
}
);
unicode = 103;
userData = {
com.fontlab.hintData = {
hhints = (
{
position = -352;
width = 217;
},
{
position = 368;
width = 213;
},
{
position = 992;
width = 214;
}
);
vhints = (
{
position = 42;
width = 353;
},
{
position = 73;
width = 378;
},
{
position = 602;
width = 358;
}
);
};
com.typemytype.robofont.layerData = {
b = {
anchors = (
);
components = (
);
contours = (
);
lib = {
};
name = g;
unicodes = (
);
width = 873;
};
};
};
},
{
color = 4;
glyphname = gstroke;
kernLeft = g;
kernRight = g;
layers = (
{
anchors = (
{
name = bottom;
pos = (215,0);
},
{
name = top;
pos = (215,578);
}
);
layerId = "FCD7E481-103E-4A6C-AD70-01DA443B2AD0";
shapes = (
{
closed = 1;
nodes = (
(301,-196,o),
(388,-159,o),
(388,-68,cs),
(388,6,o),
(330,44,o),
(236,61,cs),
(142,78,ls),
(108,84,o),
(94,94,o),
(94,115,cs),
(94,140,o),
(119,168,o),
(145,194,c),
(159,188,o),
(185,184,o),
(207,184,cs),
(320,184,o),
(366,272,o),
(366,387,cs),
(366,411,o),
(357,459,o),
(347,485,c),
(367,510,o),
(405,535,o),
(440,543,c),
(425,583,l),
(411,578,ls),
(379,567,o),
(346,535,o),
(333,510,c),
(312,549,o),
(276,587,o),
(205,587,cs),
(91,587,o),
(44,483,o),
(44,388,cs),
(44,316,o),
(63,250,o),
(120,209,c),
(77,173,o),
(48,142,o),
(48,105,cs),
(48,72,o),
(68,54,o),
(118,41,c),
(68,15,o),
(15,-35,o),
(15,-94,cs),
(15,-163,o),
(81,-196,o),
(202,-196,cs)
);
},
{
closed = 1;
nodes = (
(419,-79,l),
(419,-42,l),
(-19,-42,l),
(-19,-79,l)
);
},
{
closed = 1;
nodes = (
(111,-153,o),
(61,-132,o),
(61,-81,cs),
(61,-26,o),
(119,12,o),
(153,32,c),
(216,21,ls),
(323,2,o),
(343,-27,o),
(343,-69,cs),
(343,-128,o),
(280,-153,o),
(202,-153,cs)
);
},
{
closed = 1;
nodes = (
(108,223,o),
(93,326,o),
(93,388,cs),
(93,442,o),
(113,548,o),
(206,548,cs),
(298,548,o),
(317,449,o),
(317,388,cs),
(317,324,o),
(306,223,o),
(207,223,cs)
);
}
);
width = 429;
},
{
anchors = (
{
name = bottom;
pos = (218,0);
},
{
name = top;
pos = (218,578);
}
);
layerId = "8AC5A1D3-32A8-4416-86FC-94176A419B8F";
shapes = (
{
closed = 1;
nodes = (
(339,-179,o),
(405,-130,o),
(405,-35,cs),
(405,52,o),
(362,98,o),
(271,106,cs),
(181,114,ls),
(147,117,o),
(133,125,o),
(133,140,cs),
(133,155,o),
(144,172,o),
(152,184,c),
(168,180,o),
(190,177,o),
(207,177,cs),
(328,177,o),
(367,259,o),
(367,377,cs),
(367,410,o),
(358,460,o),
(349,483,c),
(359,492,o),
(421,515,o),
(447,520,c),
(420,589,l),
(404,582,l),
(365,564,o),
(333,532,o),
(326,522,c),
(306,564,o),
(269,586,o),
(207,586,cs),
(100,586,o),
(44,515,o),
(44,380,cs),
(44,288,o),
(67,241,o),
(111,208,c),
(71,172,o),
(47,146,o),
(47,103,cs),
(47,77,o),
(65,52,o),
(103,41,c),
(60,21,o),
(20,-15,o),
(20,-70,cs),
(20,-148,o),
(99,-179,o),
(204,-179,cs)
);
},
{
closed = 1;
nodes = (
(440,-62,l),
(440,-11,l),
(-15,-11,l),
(-15,-62,l)
);
},
{
closed = 1;
nodes = (
(134,-95,o),
(110,-78,o),
(110,-43,cs),
(110,-15,o),
(131,7,o),
(153,29,c),
(244,21,ls),
(307,15,o),
(323,-3,o),
(323,-38,cs),
(323,-78,o),
(288,-95,o),
(212,-95,cs)
);
},
{
closed = 1;
nodes = (
(147,252,o),
(137,308,o),
(137,380,cs),
(137,464,o),
(148,512,o),
(208,512,cs),
(268,512,o),
(276,461,o),
(276,380,cs),
(276,299,o),
(268,252,o),
(207,252,cs)
);
}
);
width = 435;
},
{
anchors = (
{
name = bottom;
pos = (251,0);
},
{
name = top;
pos = (251,578);
}
);
layerId = "F66B25F0-8957-42F3-9BF7-6C5DDCB0258B";
shapes = (
{
closed = 1;
nodes = (
(417,-200,o),
(486,-141,o),
(486,-30,cs),
(486,71,o),
(441,125,o),
(342,136,cs),
(190,154,ls),
(149,158,o),
(135,162,o),
(135,175,cs),
(135,185,o),
(142,194,o),
(150,203,c),
(178,193,o),
(212,187,o),
(249,187,cs),
(381,187,o),
(448,261,o),
(448,386,cs),
(448,426,o),
(439,465,o),
(425,494,c),
(452,509,o),
(497,529,o),
(515,535,c),
(477,613,l),
(456,603,l),
(425,588,o),
(400,566,o),
(386,543,c),
(354,573,o),
(309,588,o),
(249,588,cs),
(116,588,o),
(42,517,o),
(42,387,cs),
(42,318,o),
(62,270,o),
(99,237,c),
(59,202,o),
(35,171,o),
(35,125,cs),
(35,91,o),
(63,62,o),
(113,47,c),
(60,23,o),
(25,-17,o),
(25,-72,cs),
(25,-162,o),
(109,-200,o),
(239,-200,cs)
);
},
{
closed = 1;
nodes = (
(522,-53,l),
(522,-2,l),
(-9,-2,l),
(-9,-53,l)
);
},
{
closed = 1;
nodes = (
(166,-89,o),
(140,-66,o),
(140,-26,cs),
(140,-1,o),
(159,19,o),
(180,35,c),
(287,24,ls),
(354,17,o),
(374,8,o),
(374,-28,cs),
(374,-73,o),
(339,-89,o),
(260,-89,cs)
);
},
{
closed = 1;
nodes = (
(212,284,o),
(204,313,o),
(204,387,cs),
(204,464,o),
(212,491,o),
(249,491,cs),
(286,491,o),
(294,463,o),
(294,387,cs),
(294,311,o),
(286,284,o),
(249,284,cs)
);
}
);
width = 501;
}
);
unicode = 485;
},
{
glyphname = h;
kernLeft = h;
kernRight = n;
layers = (
{
anchors = (
{
name = bottom;
pos = (196,0);
},
{
name = center;
pos = (196,289);
},
{
name = top;
pos = (83,810);
}
);
layerId = "FCD7E481-103E-4A6C-AD70-01DA443B2AD0";
shapes = (
{
closed = 1;
nodes = (
(110,0,l),
(110,482,l),
(145,520,o),
(186,546,o),
(225,546,cs),
(262,546,o),
(285,526,o),
(285,455,cs),
(285,0,l),
(339,0,l),
(339,461,ls),
(339,553,o),
(299,587,o),
(248,587,cs),
(195,587,o),
(147,559,o),
(110,517,c),
(110,810,l),
(57,810,l),
(57,0,l)
);
}
);
width = 392;
},
{
associatedMasterId = "FCD7E481-103E-4A6C-AD70-01DA443B2AD0";
layerId = "0B3A8EAD-9463-4001-8320-4ED4E0BE02A9";
name = b;
width = 531;
},
{
anchors = (
{
name = bottom;
pos = (223,0);
},
{
name = center;
pos = (223,289);
},
{
name = top;
pos = (111,810);
}
);
layerId = "8AC5A1D3-32A8-4416-86FC-94176A419B8F";
shapes = (
{
closed = 1;
nodes = (
(164,0,l),
(164,464,l),
(188,485,o),
(217,502,o),
(242,502,cs),
(279,502,o),
(288,478,o),
(288,437,cs),
(288,0,l),
(395,0,l),
(395,468,ls),
(395,524,o),
(377,586,o),
(309,586,cs),
(250,586,o),
(203,555,o),
(164,518,c),
(164,810,l),
(57,810,l),
(57,0,l)
);
}
);
width = 445;
},
{
anchors = (
{
name = bottom;
pos = (255,0);
},
{
name = center;
pos = (255,289);
},
{
name = top;
pos = (133,810);
}
);
layerId = "F66B25F0-8957-42F3-9BF7-6C5DDCB0258B";
shapes = (
{
closed = 1;
nodes = (
(214,0,l),
(214,452,l),
(234,465,o),
(253,473,o),
(267,473,cs),
(292,473,o),
(300,458,o),
(300,430,cs),
(300,0,l),
(462,0,l),
(462,453,ls),
(462,530,o),
(425,588,o),
(356,588,cs),
(303,588,o),
(257,570,o),
(214,527,c),
(214,810,l),
(52,810,l),
(52,0,l)
);
}
);
width = 509;
}
);
unicode = 104;
userData = {
com.typemytype.robofont.layerData = {
b = {
anchors = (
);
components = (
);
contours = (
);
lib = {
};
name = h;
unicodes = (
);
width = 1087;
};
};
};
},
{
glyphname = hbar;
kernLeft = h;
kernRight = n;
layers = (
{
layerId = "FCD7E481-103E-4A6C-AD70-01DA443B2AD0";
shapes = (
{
closed = 1;
nodes = (
(110,0,l),
(110,482,l),
(144,520,o),
(185,546,o),
(224,546,cs),
(261,546,o),
(285,526,o),
(285,455,cs),
(285,0,l),
(338,0,l),
(338,461,ls),
(338,553,o),
(298,587,o),
(247,587,cs),
(194,587,o),
(146,559,o),
(110,517,c),
(110,701,l),
(228,701,l),
(228,735,l),
(110,735,l),
(110,810,l),
(57,810,l),
(57,735,l),
(-9,735,l),
(-9,701,l),
(57,701,l),
(57,0,l)
);
}
);
width = 391;
},
{
associatedMasterId = "FCD7E481-103E-4A6C-AD70-01DA443B2AD0";
layerId = "96324D6F-9FAD-426A-A417-8F462CF01042";
name = b;
width = 532;
},
{
layerId = "8AC5A1D3-32A8-4416-86FC-94176A419B8F";
shapes = (
{
closed = 1;
nodes = (
(164,0,l),
(164,464,l),
(188,485,o),
(217,502,o),
(242,502,cs),
(279,502,o),
(288,478,o),
(288,437,cs),
(288,0,l),
(395,0,l),
(395,468,ls),
(395,524,o),
(377,586,o),
(308,586,cs),
(250,586,o),
(202,555,o),
(164,518,c),
(164,690,l),
(286,690,l),
(286,750,l),
(164,750,l),
(164,810,l),
(57,810,l),
(57,750,l),
(-6,750,l),
(-6,690,l),
(57,690,l),
(57,0,l)
);
}
);
width = 445;
},
{
layerId = "F66B25F0-8957-42F3-9BF7-6C5DDCB0258B";
shapes = (
{
closed = 1;
nodes = (
(215,0,l),
(215,452,l),
(235,465,o),
(253,473,o),
(268,473,cs),
(293,473,o),
(300,458,o),
(300,430,cs),
(300,0,l),
(462,0,l),
(462,453,ls),
(462,530,o),
(426,588,o),
(356,588,cs),
(304,588,o),
(258,570,o),
(215,527,c),
(215,671,l),
(333,671,l),
(333,746,l),
(215,746,l),
(215,810,l),
(52,810,l),
(52,746,l),
(6,746,l),
(6,671,l),
(52,671,l),
(52,0,l)
);
}
);
width = 510;
}
);
unicode = 295;
userData = {
com.typemytype.robofont.layerData = {
b = {
anchors = (
);
components = (
);
contours = (
);
lib = {
};
name = hbar;
unicodes = (
);
width = 1089;
};
};
};
},
{
glyphname = i;
kernLeft = i;
kernRight = i;
layers = (
{
anchors = (
{
name = bottom;
pos = (95,0);
},
{
name = ogonek;
pos = (92,0);
}
);
layerId = "FCD7E481-103E-4A6C-AD70-01DA443B2AD0";
shapes = (
{
closed = 1;
nodes = (
(119,0,l),
(119,578,l),
(65,578,l),
(65,0,l)
);
},
{
closed = 1;
nodes = (
(119,654,l),
(119,746,l),
(65,746,l),
(65,654,l)
);
}
);
width = 189;
},
{
associatedMasterId = "FCD7E481-103E-4A6C-AD70-01DA443B2AD0";
layerId = "2AF6B5B3-4A77-4AFD-8D99-6C7C98E4A942";
name = b;
width = 278;
},
{
anchors = (
{
name = bottom;
pos = (115,0);
},
{
name = ogonek;
pos = (115,0);
}
);
layerId = "8AC5A1D3-32A8-4416-86FC-94176A419B8F";
shapes = (
{
closed = 1;
nodes = (
(168,0,l),
(168,578,l),
(61,578,l),
(61,0,l)
);
},
{
closed = 1;
nodes = (
(168,664,l),
(168,776,l),
(61,776,l),
(61,664,l)
);
}
);
width = 229;
},
{
anchors = (
{
name = bottom;
pos = (133,0);
},
{
name = ogonek;
pos = (134,0);
}
);
layerId = "F66B25F0-8957-42F3-9BF7-6C5DDCB0258B";
shapes = (
{
closed = 1;
nodes = (
(215,0,l),
(215,578,l),
(52,578,l),
(52,0,l)
);
},
{
closed = 1;
nodes = (
(215,676,l),
(215,789,l),
(51,789,l),
(51,676,l)
);
}
);
width = 265;
}
);
unicode = 105;
userData = {
com.typemytype.robofont.layerData = {
b = {
anchors = (
);
components = (
);
contours = (
);
lib = {
};
name = i;
unicodes = (
);
width = 570;
};
};
};
},
{
glyphname = idotless;
kernLeft = i;
kernRight = i;
layers = (
{
anchors = (
{
name = bottom;
pos = (92,0);
},
{
name = ogonek;
pos = (92,0);
},
{
name = top;
pos = (92,578);
}
);
layerId = "FCD7E481-103E-4A6C-AD70-01DA443B2AD0";
shapes = (
{
closed = 1;
nodes = (
(118,0,l),
(118,578,l),
(65,578,l),
(65,0,l)
);
}
);
width = 182;
},
{
anchors = (
{
name = bottom;
pos = (115,0);
},
{
name = ogonek;
pos = (115,0);
},
{
name = top;
pos = (115,578);
}
);
layerId = "8AC5A1D3-32A8-4416-86FC-94176A419B8F";
shapes = (
{
closed = 1;
nodes = (
(168,0,l),
(168,578,l),
(61,578,l),
(61,0,l)
);
}
);
width = 224;
},
{
anchors = (
{
name = bottom;
pos = (141,0);
},
{
name = ogonek;
pos = (147,0);
},
{
name = top;
pos = (141,578);
}
);
layerId = "F66B25F0-8957-42F3-9BF7-6C5DDCB0258B";
shapes = (
{
closed = 1;
nodes = (
(222,0,l),
(222,578,l),
(59,578,l),
(59,0,l)
);
}
);
width = 280;
}
);
unicode = 305;
userData = {
com.fontlab.hintData = {
vhints = (
{
position = 120;
width = 372;
}
);
};
};
},
{
glyphname = j;
kernLeft = j;
kernRight = j;
layers = (
{
layerId = "FCD7E481-103E-4A6C-AD70-01DA443B2AD0";
shapes = (
{
closed = 1;
nodes = (
(89,-155,o),
(134,-121,o),
(134,-28,cs),
(134,578,l),
(81,578,l),
(81,-25,ls),
(81,-67,o),
(78,-111,o),
(8,-111,cs),
(5,-111,o),
(-14,-111,o),
(-16,-110,c),
(-16,-153,l),
(-12,-154,o),
(9,-155,o),
(14,-155,cs)
);
},
{
closed = 1;
nodes = (
(134,654,l),
(134,746,l),
(81,746,l),
(81,654,l)
);
}
);
width = 202;
},
{
associatedMasterId = "FCD7E481-103E-4A6C-AD70-01DA443B2AD0";
layerId = "085BC3EB-CEAC-4DBF-B190-8A801A1D6A32";
name = b;
width = 292;
},
{
layerId = "8AC5A1D3-32A8-4416-86FC-94176A419B8F";
shapes = (
{
closed = 1;
nodes = (
(123,-146,o),
(176,-97,o),
(176,-6,cs),
(176,578,l),
(69,578,l),
(69,5,ls),
(69,-36,o),
(55,-65,o),
(9,-65,cs),
(2,-65,o),
(-12,-63,o),
(-19,-62,c),
(-19,-139,l),
(-5,-145,o),
(18,-146,o),
(36,-146,cs)
);
},
{
closed = 1;
nodes = (
(177,664,l),
(177,776,l),
(69,776,l),
(69,664,l)
);
}
);
width = 230;
},
{
layerId = "F66B25F0-8957-42F3-9BF7-6C5DDCB0258B";
shapes = (
{
closed = 1;
nodes = (
(169,-180,o),
(219,-116,o),
(219,-25,cs),
(219,578,l),
(57,578,l),
(57,-5,ls),
(57,-41,o),
(40,-54,o),
(12,-54,cs),
(4,-54,o),
(-7,-52,o),
(-17,-50,c),
(-17,-167,l),
(10,-175,o),
(40,-180,o),
(70,-180,cs)
);
},
{
closed = 1;
nodes = (
(220,676,l),
(220,789,l),
(56,789,l),
(56,676,l)
);
}
);
width = 269;
}
);
unicode = 106;
userData = {
com.fontlab.hintData = {
hhints = (
{
position = -393;
width = 289;
}
);
};
com.typemytype.robofont.layerData = {
b = {
anchors = (
);
components = (
);
contours = (
);
lib = {
};
name = j;
unicodes = (
);
width = 598;
};
};
};
},
{
glyphname = jdotless;
kernLeft = j;
kernRight = j;
layers = (
{
anchors = (
{
name = bottom;
pos = (108,-155);
},
{
name = top;
pos = (108,578);
}
);
layerId = "FCD7E481-103E-4A6C-AD70-01DA443B2AD0";
shapes = (
{
closed = 1;
nodes = (
(89,-155,o),
(134,-121,o),
(134,-28,cs),
(134,578,l),
(81,578,l),
(81,-25,ls),
(81,-67,o),
(78,-111,o),
(8,-111,cs),
(5,-111,o),
(-14,-111,o),
(-16,-110,c),
(-16,-153,l),
(-12,-154,o),
(9,-155,o),
(14,-155,cs)
);
}
);
width = 202;
},
{
anchors = (
{
name = bottom;
pos = (123,-190);
},
{
name = top;
pos = (123,578);
}
);
layerId = "8AC5A1D3-32A8-4416-86FC-94176A419B8F";
shapes = (
{
closed = 1;
nodes = (
(123,-146,o),
(176,-97,o),
(176,-6,cs),
(176,578,l),
(69,578,l),
(69,5,ls),
(69,-36,o),
(55,-65,o),
(9,-65,cs),
(2,-65,o),
(-12,-63,o),
(-19,-62,c),
(-19,-139,l),
(-5,-145,o),
(18,-146,o),
(36,-146,cs)
);
}
);
width = 230;
},
{
anchors = (
{
name = bottom;
pos = (146,-190);
},
{
name = top;
pos = (146,578);
}
);
layerId = "F66B25F0-8957-42F3-9BF7-6C5DDCB0258B";
shapes = (
{
closed = 1;
nodes = (
(176,-180,o),
(227,-116,o),
(227,-25,cs),
(227,578,l),
(64,578,l),
(64,-5,ls),
(64,-41,o),
(47,-54,o),
(20,-54,cs),
(11,-54,o),
(0,-52,o),
(-9,-50,c),
(-9,-167,l),
(17,-175,o),
(47,-180,o),
(78,-180,cs)
);
}
);
width = 277;
}
);
unicode = 567;
},
{
glyphname = k;
kernLeft = h;
kernRight = k;
layers = (
{
anchors = (
{
name = bottom;
pos = (192,0);
},
{
name = top;
pos = (230,740);
}
);
layerId = "FCD7E481-103E-4A6C-AD70-01DA443B2AD0";
shapes = (
{
closed = 1;
nodes = (
(110,0,l),
(110,217,l),
(190,325,l),
(320,0,l),
(374,0,l),
(230,357,l),
(382,578,l),
(325,578,l),
(110,276,l),
(110,810,l),
(57,810,l),
(57,0,l)
);
}
);
width = 383;
},
{
associatedMasterId = "FCD7E481-103E-4A6C-AD70-01DA443B2AD0";
layerId = "E70678F0-92C3-450C-B581-0AD31B345CD8";
name = b;
width = 580;
},
{
anchors = (
{
name = bottom;
pos = (215,0);
},
{
name = top;
pos = (284,759);
}
);
layerId = "8AC5A1D3-32A8-4416-86FC-94176A419B8F";
shapes = (
{
closed = 1;
nodes = (
(163,1,l),
(163,222,l),
(212,296,l),
(320,0,l),
(427,0,l),
(295,352,l),
(431,578,l),
(319,578,l),
(163,328,l),
(163,811,l),
(56,811,l),
(56,1,l)
);
}
);
width = 429;
},
{
anchors = (
{
name = bottom;
pos = (260,0);
},
{
name = top;
pos = (331,751);
}
);
layerId = "F66B25F0-8957-42F3-9BF7-6C5DDCB0258B";
shapes = (
{
closed = 1;
nodes = (
(208,0,l),
(208,220,l),
(244,275,l),
(330,0,l),
(506,0,l),
(368,341,l),
(507,578,l),
(326,578,l),
(208,361,l),
(208,810,l),
(51,810,l),
(51,0,l)
);
}
);
width = 510;
}
);
unicode = 107;
userData = {
com.typemytype.robofont.layerData = {
b = {
anchors = (
);
components = (
);
contours = (
);
lib = {
};
name = k;
unicodes = (
);
width = 1187;
};
};
};
},
{
glyphname = kgreenlandic;
kernLeft = n;
kernRight = k;
layers = (
{
layerId = "FCD7E481-103E-4A6C-AD70-01DA443B2AD0";
shapes = (
{
closed = 1;
nodes = (
(117,0,l),
(117,214,l),
(189,316,l),
(324,0,l),
(378,0,l),
(227,352,l),
(375,578,l),
(318,578,l),
(117,276,l),
(117,578,l),
(64,578,l),
(64,0,l)
);
}
);
width = 411;
},
{
associatedMasterId = "FCD7E481-103E-4A6C-AD70-01DA443B2AD0";
layerId = "755B9717-320A-45E8-A0AA-4C45CBC8FEA1";
name = b;
width = 535;
},
{
layerId = "8AC5A1D3-32A8-4416-86FC-94176A419B8F";
shapes = (
{
closed = 1;
nodes = (
(166,0,l),
(166,200,l),
(222,284,l),
(319,0,l),
(426,0,l),
(294,357,l),
(426,578,l),
(318,578,l),
(166,324,l),
(166,578,l),
(59,578,l),
(59,0,l)
);
}
);
width = 430;
},
{
layerId = "F66B25F0-8957-42F3-9BF7-6C5DDCB0258B";
shapes = (
{
closed = 1;
nodes = (
(213,0,l),
(213,229,l),
(239,267,l),
(331,0,l),
(502,0,l),
(382,321,l),
(500,578,l),
(324,578,l),
(213,337,l),
(213,578,l),
(50,578,l),
(50,0,l)
);
}
);
width = 508;
}
);
unicode = 312;
userData = {
com.typemytype.robofont.layerData = {
b = {
anchors = (
);
components = (
);
contours = (
);
lib = {
};
name = kgreenlandic;
unicodes = (
);
width = 1095;
};
};
};
},
{
glyphname = l;
kernLeft = l;
kernRight = l;
layers = (
{
anchors = (
{
name = bottom;
pos = (94,0);
},
{
name = center;
pos = (93,289);
},
{
name = top;
pos = (94,810);
},
{
name = topright;
pos = (175,810);
}
);
layerId = "FCD7E481-103E-4A6C-AD70-01DA443B2AD0";
shapes = (
{
closed = 1;
nodes = (
(120,0,l),
(120,810,l),
(67,810,l),
(67,0,l)
);
}
);
width = 186;
},
{
associatedMasterId = "FCD7E481-103E-4A6C-AD70-01DA443B2AD0";
layerId = "F1BF985C-30B8-498C-8048-FAC765DB4322";
name = b;
width = 168;
},
{
anchors = (
{
name = bottom;
pos = (118,0);
},
{
name = center;
pos = (115,289);
},
{
name = top;
pos = (118,810);
},
{
name = topright;
pos = (219,810);
}
);
layerId = "8AC5A1D3-32A8-4416-86FC-94176A419B8F";
shapes = (
{
closed = 1;
nodes = (
(171,0,l),
(171,810,l),
(64,810,l),
(64,0,l)
);
}
);
width = 229;
},
{
anchors = (
{
name = bottom;
pos = (139,0);
},
{
name = center;
pos = (137,289);
},
{
name = top;
pos = (139,810);
},
{
name = topright;
pos = (269,810);
}
);
layerId = "F66B25F0-8957-42F3-9BF7-6C5DDCB0258B";
shapes = (
{
closed = 1;
nodes = (
(220,0,l),
(220,810,l),
(58,810,l),
(58,0,l)
);
}
);
width = 274;
}
);
unicode = 108;
userData = {
com.fontlab.hintData = {
vhints = (
{
position = 88;
width = 372;
}
);
};
com.typemytype.robofont.layerData = {
b = {
anchors = (
);
components = (
);
contours = (
);
lib = {
};
name = l;
unicodes = (
);
width = 344;
};
};
};
},
{
glyphname = lslash;
kernLeft = l;
layers = (
{
layerId = "FCD7E481-103E-4A6C-AD70-01DA443B2AD0";
shapes = (
{
closed = 1;
nodes = (
(150,0,l),
(150,488,l),
(210,521,l),
(210,567,l),
(150,534,l),
(150,810,l),
(97,810,l),
(97,506,l),
(35,473,l),
(35,426,l),
(97,460,l),
(97,0,l)
);
}
);
width = 247;
},
{
layerId = "8AC5A1D3-32A8-4416-86FC-94176A419B8F";
shapes = (
{
closed = 1;
nodes = (
(192,0,l),
(192,465,l),
(253,495,l),
(253,578,l),
(192,548,l),
(192,810,l),
(85,810,l),
(85,499,l),
(17,467,l),
(17,383,l),
(85,416,l),
(85,0,l)
);
}
);
width = 267;
},
{
layerId = "F66B25F0-8957-42F3-9BF7-6C5DDCB0258B";
shapes = (
{
closed = 1;
nodes = (
(249,0,l),
(249,484,l),
(326,516,l),
(326,607,l),
(249,574,l),
(249,810,l),
(87,810,l),
(87,505,l),
(20,476,l),
(20,385,l),
(87,414,l),
(87,0,l)
);
}
);
width = 334;
}
);
unicode = 322;
userData = {
com.fontlab.hintData = {
vhints = (
{
position = 44;
width = 673;
}
);
};
};
},
{
glyphname = m;
kernLeft = n;
kernRight = n;
layers = (
{
anchors = (
{
name = bottom;
pos = (312,0);
},
{
name = top;
pos = (312,578);
}
);
layerId = "FCD7E481-103E-4A6C-AD70-01DA443B2AD0";
shapes = (
{
closed = 1;
nodes = (
(107,0,l),
(107,483,l),
(143,523,o),
(186,550,o),
(226,550,cs),
(261,550,o),
(288,533,o),
(288,458,cs),
(288,0,l),
(339,0,l),
(339,457,ls),
(339,466,o),
(338,475,o),
(337,482,c),
(373,523,o),
(416,550,o),
(457,550,cs),
(492,550,o),
(519,533,o),
(519,458,cs),
(519,0,l),
(570,0,l),
(570,457,ls),
(570,561,o),
(522,588,o),
(474,588,cs),
(421,588,o),
(371,560,o),
(333,511,c),
(319,571,o),
(281,588,o),
(243,588,cs),
(192,588,o),
(144,562,o),
(107,517,c),
(107,578,l),
(57,578,l),
(57,0,l)
);
}
);
width = 623;
},
{
associatedMasterId = "FCD7E481-103E-4A6C-AD70-01DA443B2AD0";
layerId = "C6FAC1BE-CCAC-4BBC-A9CE-EB3A7D35CEFB";
name = b;
width = 778;
},
{
anchors = (
{
name = bottom;
pos = (340,0);
},
{
name = top;
pos = (340,578);
}
);
layerId = "8AC5A1D3-32A8-4416-86FC-94176A419B8F";
shapes = (
{
closed = 1;
nodes = (
(153,0,l),
(153,471,l),
(181,500,o),
(214,518,o),
(243,518,cs),
(273,518,o),
(293,503,o),
(293,447,cs),
(293,0,l),
(391,0,l),
(391,454,ls),
(391,460,o),
(391,465,o),
(391,471,c),
(418,500,o),
(452,518,o),
(481,518,cs),
(511,518,o),
(531,503,o),
(531,447,cs),
(531,0,l),
(629,0,l),
(629,454,ls),
(629,550,o),
(583,588,o),
(527,588,cs),
(474,588,o),
(424,565,o),
(383,515,c),
(368,569,o),
(331,588,o),
(289,588,cs),
(240,588,o),
(192,567,o),
(153,523,c),
(153,578,l),
(54,578,l),
(54,0,l)
);
}
);
width = 680;
},
{
anchors = (
{
name = bottom;
pos = (376,0);
},
{
name = top;
pos = (376,578);
}
);
layerId = "F66B25F0-8957-42F3-9BF7-6C5DDCB0258B";
shapes = (
{
closed = 1;
nodes = (
(211,0,l),
(211,456,l),
(230,469,o),
(250,477,o),
(265,477,cs),
(288,477,o),
(300,464,o),
(300,432,cs),
(300,0,l),
(458,0,l),
(458,449,ls),
(458,451,o),
(458,453,o),
(458,456,c),
(476,469,o),
(498,477,o),
(512,477,cs),
(535,477,o),
(546,464,o),
(546,432,cs),
(546,0,l),
(706,0,l),
(706,449,ls),
(706,537,o),
(662,589,o),
(594,589,cs),
(543,589,o),
(492,571,o),
(447,520,c),
(429,565,o),
(394,589,o),
(348,589,cs),
(300,589,o),
(253,573,o),
(211,532,c),
(211,578,l),
(51,578,l),
(51,0,l)
);
}
);
width = 753;
}
);
unicode = 109;
userData = {
com.typemytype.robofont.layerData = {
b = {
anchors = (
);
components = (
);
contours = (
);
lib = {
};
name = m;
unicodes = (
);
width = 1593;
};
};
};
},
{
glyphname = n;
kernLeft = n;
kernRight = n;
layers = (
{
anchors = (
{
name = bottom;
pos = (196,0);
},
{
name = top;
pos = (196,578);
}
);
layerId = "FCD7E481-103E-4A6C-AD70-01DA443B2AD0";
shapes = (
{
closed = 1;
nodes = (
(110,0,l),
(110,482,l),
(144,520,o),
(185,546,o),
(224,546,cs),
(261,546,o),
(285,526,o),
(285,455,cs),
(285,0,l),
(338,0,l),
(338,461,ls),
(338,553,o),
(298,587,o),
(247,587,cs),
(194,587,o),
(146,559,o),
(110,516,c),
(110,578,l),
(57,578,l),
(57,0,l)
);
}
);
width = 391;
},
{
associatedMasterId = "FCD7E481-103E-4A6C-AD70-01DA443B2AD0";
layerId = "90730BB9-A166-4B05-9450-8E246BC158DC";
name = b;
width = 531;
},
{
anchors = (
{
name = bottom;
pos = (220,0);
},
{
name = top;
pos = (220,578);
}
);
layerId = "8AC5A1D3-32A8-4416-86FC-94176A419B8F";
shapes = (
{
closed = 1;
nodes = (
(161,0,l),
(161,466,l),
(185,486,o),
(212,502,o),
(236,502,cs),
(273,502,o),
(282,478,o),
(282,437,cs),
(282,0,l),
(389,0,l),
(389,468,ls),
(389,524,o),
(371,586,o),
(302,586,cs),
(246,586,o),
(199,557,o),
(161,521,c),
(161,578,l),
(54,578,l),
(54,0,l)
);
}
);
width = 439;
},
{
anchors = (
{
name = bottom;
pos = (254,0);
},
{
name = top;
pos = (254,578);
}
);
layerId = "F66B25F0-8957-42F3-9BF7-6C5DDCB0258B";
shapes = (
{
closed = 1;
nodes = (
(214,0,l),
(214,452,l),
(233,465,o),
(252,473,o),
(265,473,cs),
(290,473,o),
(298,458,o),
(298,430,cs),
(298,0,l),
(460,0,l),
(460,453,ls),
(460,530,o),
(424,588,o),
(353,588,cs),
(302,588,o),
(256,562,o),
(214,520,c),
(214,578,l),
(51,578,l),
(51,0,l)
);
}
);
width = 507;
}
);
unicode = 110;
userData = {
com.fontlab.hintData = {
};
com.typemytype.robofont.layerData = {
b = {
anchors = (
);
components = (
);
contours = (
);
lib = {
};
name = n;
unicodes = (
);
width = 1087;
};
};
hhints = {
};
position = 585;
vhints = {
};
width = 65;
};
},
{
glyphname = eng;
kernLeft = n;
kernRight = j;
layers = (
{
layerId = "FCD7E481-103E-4A6C-AD70-01DA443B2AD0";
shapes = (
{
closed = 1;
nodes = (
(177,-156,ls),
(261,-156,o),
(335,-125,o),
(335,-6,cs),
(335,461,ls),
(335,553,o),
(296,587,o),
(244,587,cs),
(191,587,o),
(144,559,o),
(107,516,c),
(107,578,l),
(54,578,l),
(54,0,l),
(107,0,l),
(107,482,l),
(141,520,o),
(182,546,o),
(221,546,cs),
(258,546,o),
(282,526,o),
(282,455,cs),
(282,-5,ls),
(282,-71,o),
(263,-113,o),
(164,-113,c),
(164,-156,l)
);
}
);
width = 388;
},
{
layerId = "8AC5A1D3-32A8-4416-86FC-94176A419B8F";
shapes = (
{
closed = 1;
nodes = (
(186,-184,ls),
(300,-184,o),
(379,-125,o),
(379,-6,cs),
(379,468,ls),
(379,524,o),
(361,586,o),
(293,586,cs),
(236,586,o),
(189,557,o),
(151,521,c),
(151,578,l),
(44,578,l),
(44,0,l),
(151,0,l),
(151,466,l),
(175,486,o),
(202,502,o),
(226,502,cs),
(264,502,o),
(272,478,o),
(272,437,cs),
(272,-5,ls),
(272,-71,o),
(253,-103,o),
(154,-103,c),
(154,-184,l)
);
}
);
width = 388;
},
{
layerId = "F66B25F0-8957-42F3-9BF7-6C5DDCB0258B";
shapes = (
{
closed = 1;
nodes = (
(237,-195,ls),
(398,-195,o),
(452,-142,o),
(452,-6,cs),
(452,453,ls),
(452,530,o),
(415,588,o),
(345,588,cs),
(293,588,o),
(248,570,o),
(205,527,c),
(205,578,l),
(42,578,l),
(42,0,l),
(205,0,l),
(205,452,l),
(224,465,o),
(242,473,o),
(257,473,cs),
(282,473,o),
(289,458,o),
(289,430,cs),
(289,-5,ls),
(289,-73,o),
(270,-92,o),
(178,-92,c),
(178,-195,l)
);
}
);
width = 476;
}
);
unicode = 331;
userData = {
com.fontlab.hintData = {
};
hhints = {
};
position = -406;
width = 237;
};
},
{
glyphname = o;
kernLeft = o;
kernRight = o;
layers = (
{
anchors = (
{
name = bottom;
pos = (192,0);
},
{
name = center;
pos = (192,289);
},
{
name = ogonek;
pos = (225,0);
},
{
name = top;
pos = (192,578);
},
{
name = topright;
pos = (242,578);
}
);
guides = (
{
angle = 90;
pos = (337,512);
}
);
layerId = "FCD7E481-103E-4A6C-AD70-01DA443B2AD0";
shapes = (
{
closed = 1;
nodes = (
(307,-9,o),
(337,66,o),
(337,211,cs),
(337,367,ls),
(337,512,o),
(307,587,o),
(191,587,cs),
(76,587,o),
(46,511,o),
(46,367,cs),
(46,211,ls),
(46,66,o),
(76,-9,o),
(191,-9,cs)
);
},
{
closed = 1;
nodes = (
(107,31,o),
(99,98,o),
(99,209,cs),
(99,369,ls),
(99,480,o),
(107,547,o),
(191,547,cs),
(275,547,o),
(284,480,o),
(284,369,cs),
(284,209,ls),
(284,98,o),
(275,31,o),
(191,31,cs)
);
}
);
width = 383;
},
{
associatedMasterId = "FCD7E481-103E-4A6C-AD70-01DA443B2AD0";
layerId = "38290473-242E-4E3A-816A-4CC36D58C6CA";
name = b;
width = 503;
},
{
anchors = (
{
name = bottom;
pos = (213,0);
},
{
name = center;
pos = (213,289);
},
{
name = ogonek;
pos = (263,8);
},
{
name = top;
pos = (213,578);
},
{
name = topright;
pos = (244,578);
}
);
guides = (
{
angle = 90;
pos = (381,503);
}
);
layerId = "8AC5A1D3-32A8-4416-86FC-94176A419B8F";
shapes = (
{
closed = 1;
nodes = (
(341,-8,o),
(381,75,o),
(381,205,cs),
(381,373,ls),
(381,503,o),
(341,586,o),
(213,586,cs),
(84,586,o),
(44,503,o),
(44,373,cs),
(44,205,ls),
(44,75,o),
(84,-8,o),
(213,-8,cs)
);
},
{
closed = 1;
nodes = (
(151,71,o),
(151,133,o),
(151,198,cs),
(151,379,ls),
(151,444,o),
(151,507,o),
(213,507,cs),
(274,507,o),
(274,444,o),
(274,379,cs),
(274,198,ls),
(274,133,o),
(274,71,o),
(213,71,cs)
);
}
);
width = 425;
},
{
anchors = (
{
name = bottom;
pos = (242,0);
},
{
name = center;
pos = (242,289);
},
{
name = ogonek;
pos = (276,2);
},
{
name = top;
pos = (241,578);
},
{
name = topright;
pos = (276,578);
}
);
layerId = "F66B25F0-8957-42F3-9BF7-6C5DDCB0258B";
shapes = (
{
closed = 1;
nodes = (
(364,-10,o),
(444,53,o),
(444,179,cs),
(444,399,ls),
(444,525,o),
(364,588,o),
(241,588,cs),
(117,588,o),
(39,525,o),
(39,399,cs),
(39,179,ls),
(39,53,o),
(117,-10,o),
(241,-10,cs)
);
},
{
closed = 1;
nodes = (
(210,98,o),
(200,124,o),
(200,168,cs),
(200,410,ls),
(200,453,o),
(210,480,o),
(242,480,cs),
(274,480,o),
(283,454,o),
(283,410,cs),
(283,168,ls),
(283,124,o),
(274,98,o),
(242,98,cs)
);
}
);
width = 483;
}
);
unicode = 111;
userData = {
com.fontlab.hintData = {
};
com.typemytype.robofont.layerData = {
b = {
anchors = (
);
components = (
);
contours = (
);
lib = {
};
name = o;
unicodes = (
);
width = 1031;
};
};
hhints = {
};
position = 590;
vhints = {
};
width = 64;
};
},
{
glyphname = oslash;
kernLeft = o;
kernRight = o;
layers = (
{
anchors = (
{
name = top;
pos = (192,578);
}
);
layerId = "FCD7E481-103E-4A6C-AD70-01DA443B2AD0";
shapes = (
{
closed = 1;
nodes = (
(335,625,l),
(314,634,l),
(58,-58,l),
(78,-65,l)
);
},
{
ref = o;
}
);
width = 383;
},
{
associatedMasterId = "FCD7E481-103E-4A6C-AD70-01DA443B2AD0";
layerId = "7AB7A3CF-2DAC-4880-ACAF-DA04C91D11B0";
name = b;
width = 366;
},
{
anchors = (
{
name = top;
pos = (212,578);
}
);
layerId = "8AC5A1D3-32A8-4416-86FC-94176A419B8F";
shapes = (
{
closed = 1;
nodes = (
(367,656,l),
(330,668,l),
(64,-84,l),
(96,-95,l)
);
},
{
ref = o;
}
);
width = 424;
},
{
anchors = (
{
name = top;
pos = (239,578);
}
);
layerId = "F66B25F0-8957-42F3-9BF7-6C5DDCB0258B";
shapes = (
{
closed = 1;
nodes = (
(406,657,l),
(367,673,l),
(67,-73,l),
(104,-89,l)
);
},
{
alignment = -1;
ref = o;
}
);
width = 477;
}
);
unicode = 248;
userData = {
com.fontlab.hintData = {
hhints = (
{
position = -22;
width = 263;
},
{
position = 943;
width = 263;
}
);
vhints = (
{
position = 72;
width = 366;
}
);
};
com.typemytype.robofont.layerData = {
b = {
anchors = (
);
components = (
);
contours = (
);
lib = {
};
name = oslash;
unicodes = (
);
width = 750;
};
};
};
},
{
glyphname = oe;
kernLeft = o;
kernRight = e;
layers = (
{
anchors = (
{
name = bottom;
pos = (314,0);
},
{
name = top;
pos = (314,578);
}
);
layerId = "FCD7E481-103E-4A6C-AD70-01DA443B2AD0";
shapes = (
{
closed = 1;
nodes = (
(262,-9,o),
(301,22,o),
(316,85,c),
(335,15,o),
(385,-9,o),
(441,-9,cs),
(544,-9,o),
(580,53,o),
(580,152,cs),
(580,195,l),
(527,195,l),
(527,151,ls),
(527,62,o),
(495,33,o),
(441,33,cs),
(370,33,o),
(342,84,o),
(342,223,cs),
(342,303,l),
(580,303,l),
(580,359,ls),
(580,524,o),
(543,587,o),
(438,587,cs),
(384,587,o),
(336,569,o),
(315,498,c),
(301,555,o),
(261,587,o),
(195,587,cs),
(81,587,o),
(50,511,o),
(50,368,cs),
(50,210,ls),
(50,65,o),
(81,-9,o),
(195,-9,cs)
);
},
{
closed = 1;
nodes = (
(111,33,o),
(103,100,o),
(103,210,cs),
(103,368,ls),
(103,479,o),
(111,545,o),
(195,545,cs),
(280,545,o),
(289,479,o),
(289,368,cs),
(289,210,ls),
(289,100,o),
(280,33,o),
(195,33,cs)
);
},
{
closed = 1;
nodes = (
(342,374,ls),
(342,502,o),
(370,545,o),
(437,545,cs),
(520,545,o),
(527,470,o),
(527,369,cs),
(527,334,l),
(342,334,l)
);
}
);
width = 627;
},
{
anchors = (
{
name = bottom;
pos = (343,0);
},
{
name = top;
pos = (343,578);
}
);
layerId = "8AC5A1D3-32A8-4416-86FC-94176A419B8F";
shapes = (
{
closed = 1;
nodes = (
(287,-8,o),
(324,20,o),
(343,62,c),
(365,19,o),
(409,-8,o),
(477,-8,cs),
(580,-8,o),
(628,44,o),
(628,163,cs),
(628,201,l),
(521,201,l),
(521,162,ls),
(521,110,o),
(505,80,o),
(465,80,cs),
(400,80,o),
(396,162,o),
(396,255,cs),
(396,291,l),
(628,291,l),
(628,340,ls),
(628,498,o),
(603,586,o),
(474,586,cs),
(411,586,o),
(364,561,o),
(343,518,c),
(322,558,o),
(285,586,o),
(221,586,cs),
(97,586,o),
(57,504,o),
(57,375,cs),
(57,203,ls),
(57,73,o),
(98,-8,o),
(226,-8,cs)
);
},
{
closed = 1;
nodes = (
(165,80,o),
(164,139,o),
(164,203,cs),
(164,375,ls),
(164,439,o),
(165,499,o),
(226,499,cs),
(288,499,o),
(289,439,o),
(289,375,cs),
(289,203,ls),
(289,139,o),
(288,80,o),
(226,80,cs)
);
},
{
closed = 1;
nodes = (
(396,376,ls),
(396,439,o),
(403,499,o),
(459,499,cs),
(518,499,o),
(521,436,o),
(521,376,cs),
(521,345,l),
(396,345,l)
);
}
);
width = 685;
},
{
anchors = (
{
name = bottom;
pos = (353,0);
},
{
name = top;
pos = (353,578);
}
);
layerId = "F66B25F0-8957-42F3-9BF7-6C5DDCB0258B";
shapes = (
{
closed = 1;
nodes = (
(289,-13,o),
(333,18,o),
(356,60,c),
(377,14,o),
(430,-13,o),
(502,-13,cs),
(612,-13,o),
(670,49,o),
(670,151,cs),
(670,227,l),
(517,227,l),
(517,150,ls),
(517,111,o),
(509,89,o),
(485,89,cs),
(457,89,o),
(449,126,o),
(449,175,cs),
(449,278,l),
(670,278,l),
(670,400,ls),
(670,520,o),
(625,602,o),
(497,602,cs),
(447,602,o),
(380,578,o),
(360,528,c),
(341,577,o),
(273,602,o),
(220,602,cs),
(113,602,o),
(41,545,o),
(41,426,cs),
(41,174,ls),
(41,47,o),
(117,-13,o),
(211,-13,cs)
);
},
{
closed = 1;
nodes = (
(211,89,o),
(201,122,o),
(201,170,cs),
(201,434,ls),
(201,482,o),
(215,502,o),
(240,502,cs),
(266,502,o),
(279,480,o),
(279,434,cs),
(279,169,ls),
(279,107,o),
(264,89,o),
(238,89,cs)
);
},
{
closed = 1;
nodes = (
(449,445,ls),
(449,482,o),
(463,502,o),
(483,502,cs),
(505,502,o),
(519,479,o),
(519,445,cs),
(519,364,l),
(449,364,l)
);
}
);
width = 705;
}
);
unicode = 339;
userData = {
com.fontlab.hintData = {
hhints = (
{
position = -28;
width = 214;
},
{
position = 1032;
width = 212;
}
);
vhints = (
{
position = 72;
width = 365;
},
{
position = 564;
width = 392;
},
{
position = 1061;
width = 339;
}
);
};
};
},
{
glyphname = p;
kernLeft = p;
kernRight = o;
layers = (
{
anchors = (
{
name = bottom;
pos = (200,0);
},
{
name = top;
pos = (200,578);
}
);
layerId = "FCD7E481-103E-4A6C-AD70-01DA443B2AD0";
shapes = (
{
closed = 1;
nodes = (
(110,-190,l),
(110,48,l),
(131,22,o),
(166,-9,o),
(216,-9,cs),
(320,-9,o),
(352,76,o),
(352,238,cs),
(352,349,ls),
(352,494,o),
(328,587,o),
(221,587,cs),
(168,587,o),
(132,557,o),
(110,529,c),
(110,578,l),
(57,578,l),
(57,-190,l)
);
},
{
closed = 1;
nodes = (
(168,32,o),
(133,57,o),
(110,84,c),
(110,492,l),
(131,515,o),
(167,546,o),
(210,546,cs),
(285,546,o),
(299,487,o),
(299,349,cs),
(299,236,ls),
(299,95,o),
(282,32,o),
(210,32,cs)
);
}
);
width = 400;
},
{
associatedMasterId = "FCD7E481-103E-4A6C-AD70-01DA443B2AD0";
layerId = "3CFB9F0A-91A9-47F1-81A5-FC9053BCC527";
name = b;
width = 525;
},
{
anchors = (
{
name = bottom;
pos = (223,0);
},
{
name = top;
pos = (223,578);
}
);
layerId = "8AC5A1D3-32A8-4416-86FC-94176A419B8F";
shapes = (
{
closed = 1;
nodes = (
(161,-190,l),
(161,43,l),
(186,16,o),
(218,-8,o),
(259,-8,cs),
(373,-8,o),
(403,106,o),
(403,229,cs),
(403,369,ls),
(403,438,o),
(392,586,o),
(271,586,cs),
(222,586,o),
(186,561,o),
(161,532,c),
(161,578,l),
(54,578,l),
(54,-190,l)
);
},
{
closed = 1;
nodes = (
(206,76,o),
(181,87,o),
(161,102,c),
(161,472,l),
(180,488,o),
(206,502,o),
(234,502,cs),
(289,502,o),
(296,441,o),
(296,369,cs),
(296,229,ls),
(296,144,o),
(293,76,o),
(238,76,cs)
);
}
);
width = 446;
},
{
anchors = (
{
name = bottom;
pos = (252,0);
},
{
name = top;
pos = (252,578);
}
);
layerId = "F66B25F0-8957-42F3-9BF7-6C5DDCB0258B";
shapes = (
{
closed = 1;
nodes = (
(214,-190,l),
(214,44,l),
(252,11,o),
(295,-10,o),
(337,-10,cs),
(419,-10,o),
(463,61,o),
(463,169,cs),
(463,418,ls),
(463,512,o),
(427,588,o),
(339,588,cs),
(299,588,o),
(253,571,o),
(214,536,c),
(214,578,l),
(51,578,l),
(51,-190,l)
);
},
{
closed = 1;
nodes = (
(242,95,o),
(228,101,o),
(214,110,c),
(214,470,l),
(227,482,o),
(243,490,o),
(260,490,cs),
(288,490,o),
(300,463,o),
(300,430,cs),
(300,160,ls),
(300,124,o),
(288,95,o),
(257,95,cs)
);
}
);
width = 505;
}
);
unicode = 112;
userData = {
com.typemytype.robofont.layerData = {
b = {
anchors = (
);
components = (
);
contours = (
);
lib = {
};
name = p;
unicodes = (
);
width = 1075;
};
};
};
},
{
glyphname = thorn;
kernLeft = h;
kernRight = o;
layers = (
{
layerId = "FCD7E481-103E-4A6C-AD70-01DA443B2AD0";
shapes = (
{
closed = 1;
nodes = (
(111,-190,l),
(111,48,l),
(131,22,o),
(167,-9,o),
(216,-9,cs),
(320,-9,o),
(352,76,o),
(352,238,cs),
(352,349,ls),
(352,494,o),
(328,587,o),
(222,587,cs),
(168,587,o),
(132,557,o),
(111,529,c),
(111,810,l),
(58,810,l),
(58,-190,l)
);
},
{
closed = 1;
nodes = (
(168,32,o),
(133,57,o),
(111,84,c),
(111,492,l),
(131,515,o),
(167,546,o),
(211,546,cs),
(286,546,o),
(299,487,o),
(299,349,cs),
(299,236,ls),
(299,95,o),
(282,32,o),
(210,32,cs)
);
}
);
width = 398;
},
{
layerId = "8AC5A1D3-32A8-4416-86FC-94176A419B8F";
shapes = (
{
closed = 1;
nodes = (
(162,-190,l),
(162,43,l),
(187,16,o),
(219,-8,o),
(260,-8,cs),
(374,-8,o),
(404,106,o),
(404,229,cs),
(404,369,ls),
(404,438,o),
(393,586,o),
(272,586,cs),
(222,586,o),
(187,561,o),
(162,532,c),
(162,810,l),
(55,810,l),
(55,-190,l)
);
},
{
closed = 1;
nodes = (
(207,76,o),
(182,87,o),
(162,102,c),
(162,472,l),
(181,488,o),
(206,502,o),
(234,502,cs),
(290,502,o),
(297,441,o),
(297,369,cs),
(297,229,ls),
(297,144,o),
(293,76,o),
(239,76,cs)
);
}
);
width = 447;
},
{
layerId = "F66B25F0-8957-42F3-9BF7-6C5DDCB0258B";
shapes = (
{
closed = 1;
nodes = (
(209,-190,l),
(209,43,l),
(247,11,o),
(289,-10,o),
(331,-10,cs),
(412,-10,o),
(457,61,o),
(457,169,cs),
(457,418,ls),
(457,512,o),
(421,588,o),
(334,588,cs),
(293,588,o),
(249,571,o),
(209,536,c),
(209,810,l),
(46,810,l),
(46,-190,l)
);
},
{
closed = 1;
nodes = (
(237,95,o),
(222,101,o),
(209,110,c),
(209,470,l),
(223,483,o),
(238,490,o),
(253,490,cs),
(282,490,o),
(293,463,o),
(293,430,cs),
(293,160,ls),
(293,124,o),
(282,95,o),
(252,95,cs)
);
}
);
width = 494;
}
);
unicode = 254;
},
{
glyphname = q;
kernLeft = o;
kernRight = q;
layers = (
{
anchors = (
{
name = bottom;
pos = (198,0);
},
{
name = top;
pos = (198,578);
}
);
layerId = "FCD7E481-103E-4A6C-AD70-01DA443B2AD0";
shapes = (
{
closed = 1;
nodes = (
(340,-190,l),
(340,578,l),
(287,578,l),
(287,533,l),
(266,560,o),
(230,587,o),
(182,587,cs),
(76,587,o),
(48,503,o),
(48,340,cs),
(48,237,ls),
(48,62,o),
(84,-9,o),
(184,-9,cs),
(232,-9,o),
(266,19,o),
(287,44,c),
(287,-190,l)
);
},
{
closed = 1;
nodes = (
(119,32,o),
(102,93,o),
(102,233,cs),
(102,353,ls),
(102,488,o),
(116,546,o),
(190,546,cs),
(231,546,o),
(266,517,o),
(287,495,c),
(287,82,l),
(263,55,o),
(230,32,o),
(192,32,cs)
);
}
);
width = 396;
},
{
associatedMasterId = "FCD7E481-103E-4A6C-AD70-01DA443B2AD0";
layerId = "80257898-4EB6-4C6B-8C21-3A60BC18CCD5";
name = b;
width = 525;
},
{
anchors = (
{
name = bottom;
pos = (222,0);
},
{
name = top;
pos = (222,578);
}
);
layerId = "8AC5A1D3-32A8-4416-86FC-94176A419B8F";
shapes = (
{
closed = 1;
nodes = (
(389,-190,l),
(389,578,l),
(282,578,l),
(282,541,l),
(257,566,o),
(225,586,o),
(186,586,cs),
(68,586,o),
(44,471,o),
(44,339,cs),
(44,227,ls),
(44,56,o),
(91,-8,o),
(189,-8,cs),
(227,-8,o),
(257,10,o),
(282,37,c),
(282,-190,l)
);
},
{
closed = 1;
nodes = (
(159,76,o),
(151,137,o),
(151,218,cs),
(151,381,ls),
(151,447,o),
(164,502,o),
(214,502,cs),
(240,502,o),
(263,490,o),
(282,477,c),
(282,98,l),
(260,83,o),
(236,76,o),
(216,76,cs)
);
}
);
width = 443;
},
{
anchors = (
{
name = bottom;
pos = (252,0);
},
{
name = top;
pos = (252,578);
}
);
layerId = "F66B25F0-8957-42F3-9BF7-6C5DDCB0258B";
shapes = (
{
closed = 1;
nodes = (
(455,-190,l),
(455,578,l),
(292,578,l),
(292,539,l),
(259,569,o),
(220,588,o),
(176,588,cs),
(87,588,o),
(42,514,o),
(42,407,cs),
(42,168,ls),
(42,50,o),
(89,-10,o),
(176,-10,cs),
(216,-10,o),
(255,12,o),
(292,48,c),
(292,-190,l)
);
},
{
closed = 1;
nodes = (
(218,94,o),
(205,122,o),
(205,158,cs),
(205,424,ls),
(205,459,o),
(218,487,o),
(249,487,cs),
(263,487,o),
(278,481,o),
(292,472,c),
(292,110,l),
(276,100,o),
(260,94,o),
(248,94,cs)
);
}
);
width = 504;
}
);
unicode = 113;
userData = {
com.fontlab.hintData = {
hhints = (
{
position = -22;
width = 226;
},
{
position = 986;
width = 220;
}
);
};
com.typemytype.robofont.layerData = {
b = {
anchors = (
);
components = (
);
contours = (
);
lib = {
};
name = q;
unicodes = (
);
width = 1076;
};
};
};
},
{
glyphname = r;
kernLeft = n;
kernRight = r;
layers = (
{
anchors = (
{
name = bottom;
pos = (91,0);
},
{
name = top;
pos = (162,578);
}
);
layerId = "FCD7E481-103E-4A6C-AD70-01DA443B2AD0";
shapes = (
{
closed = 1;
nodes = (
(117,0,l),
(117,457,l),
(146,505,o),
(188,531,o),
(242,531,cs),
(248,531,o),
(259,530,o),
(264,528,c),
(264,583,l),
(260,584,o),
(257,584,o),
(254,584,cs),
(209,584,o),
(151,557,o),
(117,500,c),
(117,578,l),
(64,578,l),
(64,0,l)
);
}
);
width = 284;
},
{
associatedMasterId = "FCD7E481-103E-4A6C-AD70-01DA443B2AD0";
layerId = "1648B2FC-6C9D-4BCB-B82A-A4C471982E27";
name = b;
width = 268;
},
{
anchors = (
{
name = bottom;
pos = (111,0);
},
{
name = top;
pos = (184,578);
}
);
layerId = "8AC5A1D3-32A8-4416-86FC-94176A419B8F";
shapes = (
{
closed = 1;
nodes = (
(164,0,l),
(164,422,l),
(191,466,o),
(217,478,o),
(250,478,cs),
(271,478,o),
(293,472,o),
(309,466,c),
(309,584,l),
(301,585,o),
(297,585,o),
(292,585,cs),
(249,585,o),
(206,566,o),
(164,496,c),
(164,578,l),
(57,578,l),
(57,0,l)
);
}
);
width = 321;
},
{
anchors = (
{
name = bottom;
pos = (135,0);
},
{
name = top;
pos = (198,578);
}
);
layerId = "F66B25F0-8957-42F3-9BF7-6C5DDCB0258B";
shapes = (
{
closed = 1;
nodes = (
(216,0,l),
(216,376,l),
(242,410,o),
(274,432,o),
(312,432,cs),
(332,432,o),
(350,426,o),
(365,420,c),
(365,582,l),
(358,584,o),
(350,585,o),
(340,585,cs),
(286,585,o),
(253,548,o),
(216,482,c),
(216,578,l),
(53,578,l),
(53,0,l)
);
}
);
width = 383;
}
);
unicode = 114;
userData = {
com.fontlab.hintData = {
hhints = (
{
position = 880;
width = 318;
}
);
vhints = (
{
position = 86;
width = 651;
}
);
};
com.typemytype.robofont.layerData = {
b = {
anchors = (
);
components = (
);
contours = (
);
lib = {
};
name = r;
unicodes = (
);
width = 549;
};
};
};
},
{
glyphname = s;
kernLeft = s;
kernRight = s;
layers = (
{
anchors = (
{
name = bottom;
pos = (178,0);
},
{
name = top;
pos = (178,578);
}
);
layerId = "FCD7E481-103E-4A6C-AD70-01DA443B2AD0";
shapes = (
{
closed = 1;
nodes = (
(274,-9,o),
(329,40,o),
(329,124,cs),
(329,207,o),
(275,254,o),
(224,299,cs),
(155,360,ls),
(109,401,o),
(96,427,o),
(96,470,cs),
(96,521,o),
(130,547,o),
(181,547,cs),
(233,547,o),
(267,514,o),
(270,424,c),
(309,436,l),
(306,528,o),
(264,587,o),
(178,587,cs),
(99,587,o),
(47,543,o),
(47,464,cs),
(47,406,o),
(72,366,o),
(130,317,cs),
(197,260,ls),
(256,210,o),
(282,166,o),
(282,125,cs),
(282,65,o),
(248,31,o),
(190,31,cs),
(125,31,o),
(86,72,o),
(79,169,c),
(34,156,l),
(42,54,o),
(97,-9,o),
(188,-9,cs)
);
}
);
width = 356;
},
{
associatedMasterId = "FCD7E481-103E-4A6C-AD70-01DA443B2AD0";
layerId = "7E0A1B02-F170-43EE-B8AC-0C70348D1842";
name = b;
width = 350;
},
{
anchors = (
{
name = bottom;
pos = (187,0);
},
{
name = top;
pos = (187,578);
}
);
layerId = "8AC5A1D3-32A8-4416-86FC-94176A419B8F";
shapes = (
{
closed = 1;
nodes = (
(283,-8,o),
(348,41,o),
(348,140,cs),
(348,214,o),
(307,258,o),
(266,296,cs),
(164,390,ls),
(143,409,o),
(135,428,o),
(135,448,cs),
(135,480,o),
(157,507,o),
(192,507,cs),
(240,507,o),
(258,467,o),
(266,407,c),
(342,434,l),
(334,518,o),
(284,586,o),
(188,586,cs),
(98,586,o),
(39,535,o),
(39,444,cs),
(39,376,o),
(70,337,o),
(110,303,cs),
(209,218,ls),
(242,190,o),
(256,165,o),
(256,132,cs),
(256,95,o),
(235,71,o),
(197,71,cs),
(148,71,o),
(124,107,o),
(114,181,c),
(25,154,l),
(33,57,o),
(93,-8,o),
(188,-8,cs)
);
}
);
width = 374;
},
{
anchors = (
{
name = bottom;
pos = (212,0);
},
{
name = top;
pos = (212,578);
}
);
layerId = "F66B25F0-8957-42F3-9BF7-6C5DDCB0258B";
shapes = (
{
closed = 1;
nodes = (
(321,-10,o),
(406,46,o),
(406,147,cs),
(406,221,o),
(352,269,o),
(302,311,cs),
(261,347,ls),
(210,388,o),
(180,416,o),
(180,441,cs),
(180,461,o),
(193,474,o),
(215,474,cs),
(252,474,o),
(280,428,o),
(292,391,c),
(399,439,l),
(372,534,o),
(307,588,o),
(211,588,cs),
(116,588,o),
(33,523,o),
(33,429,cs),
(33,357,o),
(71,315,o),
(132,263,cs),
(174,228,ls),
(234,178,o),
(254,161,o),
(254,130,cs),
(254,111,o),
(241,100,o),
(216,100,cs),
(181,100,o),
(152,132,o),
(131,184,c),
(20,135,l),
(62,32,o),
(128,-10,o),
(229,-10,cs)
);
}
);
width = 424;
}
);
unicode = 115;
userData = {
com.fontlab.hintData = {
hhints = (
{
position = -22;
width = 249;
}
);
vhints = (
{
position = 496;
width = 353;
}
);
};
com.typemytype.robofont.layerData = {
b = {
anchors = (
);
components = (
);
contours = (
);
lib = {
};
name = s;
unicodes = (
);
width = 716;
};
};
};
},
{
glyphname = germandbls;
layers = (
{
layerId = "FCD7E481-103E-4A6C-AD70-01DA443B2AD0";
shapes = (
{
closed = 1;
nodes = (
(392,-11,o),
(438,121,o),
(438,240,cs),
(438,336,o),
(405,432,o),
(299,456,c),
(365,477,o),
(396,538,o),
(396,634,cs),
(396,766,o),
(331,829,o),
(229,829,cs),
(122,829,o),
(64,782,o),
(64,610,cs),
(64,0,l),
(117,0,l),
(117,611,ls),
(117,760,o),
(159,787,o),
(230,787,cs),
(311,787,o),
(344,734,o),
(344,634,cs),
(344,548,o),
(318,475,o),
(229,475,c),
(227,430,l),
(351,430,o),
(386,334,o),
(386,237,cs),
(386,144,o),
(354,34,o),
(170,34,c),
(170,-11,l)
);
}
);
width = 484;
},
{
associatedMasterId = "FCD7E481-103E-4A6C-AD70-01DA443B2AD0";
layerId = "251A47F6-4F16-47CF-AC2C-C63A23189F56";
name = b;
width = 472;
},
{
layerId = "8AC5A1D3-32A8-4416-86FC-94176A419B8F";
shapes = (
{
closed = 1;
nodes = (
(391,-9,o),
(459,79,o),
(459,232,cs),
(459,333,o),
(413,406,o),
(330,428,c),
(395,462,o),
(429,516,o),
(429,611,cs),
(429,745,o),
(367,819,o),
(241,819,cs),
(120,819,o),
(59,738,o),
(59,612,cs),
(59,0,l),
(166,0,l),
(166,613,ls),
(166,687,o),
(181,731,o),
(244,731,cs),
(310,731,o),
(324,680,o),
(324,611,cs),
(324,538,o),
(303,464,o),
(231,464,c),
(231,375,l),
(315,375,o),
(353,316,o),
(353,232,cs),
(353,135,o),
(331,80,o),
(223,80,c),
(223,-9,l)
);
}
);
width = 515;
},
{
layerId = "F66B25F0-8957-42F3-9BF7-6C5DDCB0258B";
shapes = (
{
closed = 1;
nodes = (
(420,-15,o),
(518,49,o),
(518,210,cs),
(518,328,o),
(464,401,o),
(355,430,c),
(440,464,o),
(473,526,o),
(473,604,cs),
(473,741,o),
(407,822,o),
(256,822,cs),
(101,822,o),
(46,711,o),
(46,598,cs),
(46,0,l),
(209,0,l),
(209,598,ls),
(209,665,o),
(220,709,o),
(270,709,cs),
(317,709,o),
(335,669,o),
(335,601,cs),
(335,520,o),
(310,476,o),
(263,476,c),
(263,352,l),
(324,352,o),
(355,306,o),
(355,230,cs),
(355,140,o),
(323,109,o),
(254,109,c),
(254,-15,l)
);
}
);
width = 542;
}
);
unicode = 223;
userData = {
com.fontlab.hintData = {
hhints = (
{
position = 1437;
width = 249;
}
);
vhints = (
{
position = 694;
width = 306;
}
);
};
com.typemytype.robofont.layerData = {
b = {
anchors = (
);
components = (
);
contours = (
);
lib = {
};
name = germandbls;
unicodes = (
);
width = 967;
};
};
};
},
{
color = 4;
glyphname = longs;
kernLeft = f;
kernRight = f;
layers = (
{
layerId = "FCD7E481-103E-4A6C-AD70-01DA443B2AD0";
shapes = (
{
closed = 1;
nodes = (
(148,0,l),
(148,657,ls),
(148,720,o),
(155,746,o),
(200,746,cs),
(212,746,o),
(229,744,o),
(242,740,c),
(242,780,l),
(226,785,o),
(206,787,o),
(189,787,cs),
(102,787,o),
(95,729,o),
(95,656,cs),
(95,578,l),
(17,578,l),
(17,541,l),
(95,541,l),
(95,0,l)
);
}
);
width = 253;
},
{
layerId = "8AC5A1D3-32A8-4416-86FC-94176A419B8F";
shapes = (
{
closed = 1;
nodes = (
(195,0,l),
(195,626,ls),
(195,671,o),
(201,701,o),
(243,701,cs),
(255,701,o),
(271,699,o),
(283,696,c),
(283,774,l),
(258,779,o),
(240,781,o),
(213,781,cs),
(104,781,o),
(88,715,o),
(88,608,cs),
(88,578,l),
(19,578,l),
(19,499,l),
(88,499,l),
(88,0,l)
);
}
);
width = 287;
},
{
layerId = "F66B25F0-8957-42F3-9BF7-6C5DDCB0258B";
shapes = (
{
closed = 1;
nodes = (
(235,0,l),
(235,624,ls),
(235,656,o),
(249,669,o),
(273,669,cs),
(285,669,o),
(299,666,o),
(308,664,c),
(308,785,l),
(279,789,o),
(255,790,o),
(230,790,cs),
(90,790,o),
(72,723,o),
(72,621,cs),
(72,578,l),
(17,578,l),
(17,468,l),
(72,468,l),
(72,0,l)
);
}
);
width = 320;
}
);
unicode = 383;
},
{
glyphname = t;
kernLeft = t;
kernRight = t;
layers = (
{
anchors = (
{
name = bottom;
pos = (184,0);
},
{
name = center;
pos = (132,289);
},
{
name = top;
pos = (119,763);
},
{
name = topright;
pos = (185,830);
}
);
layerId = "FCD7E481-103E-4A6C-AD70-01DA443B2AD0";
shapes = (
{
closed = 1;
nodes = (
(200,-6,o),
(222,-4,o),
(238,0,c),
(238,41,l),
(224,38,o),
(208,36,o),
(195,36,cs),
(152,36,o),
(145,58,o),
(145,121,cs),
(145,543,l),
(243,543,l),
(243,578,l),
(145,578,l),
(145,763,l),
(92,763,l),
(92,578,l),
(16,578,l),
(16,543,l),
(92,543,l),
(92,114,ls),
(92,46,o),
(103,-6,o),
(184,-6,cs)
);
}
);
width = 263;
},
{
associatedMasterId = "FCD7E481-103E-4A6C-AD70-01DA443B2AD0";
layerId = "409EEF32-0E4D-4045-88E5-6BA20AFB5369";
name = b;
width = 369;
},
{
anchors = (
{
name = bottom;
pos = (208,0);
},
{
name = center;
pos = (154,289);
},
{
name = top;
pos = (137,747);
},
{
name = topright;
pos = (233,865);
}
);
layerId = "8AC5A1D3-32A8-4416-86FC-94176A419B8F";
shapes = (
{
closed = 1;
nodes = (
(235,-8,o),
(255,-6,o),
(282,-2,c),
(282,77,l),
(269,75,o),
(253,74,o),
(243,74,cs),
(201,74,o),
(190,92,o),
(190,137,cs),
(190,507,l),
(283,507,l),
(283,578,l),
(190,578,l),
(190,747,l),
(83,747,l),
(83,578,l),
(22,578,l),
(22,507,l),
(83,507,l),
(83,130,ls),
(83,46,o),
(117,-8,o),
(208,-8,cs)
);
}
);
width = 308;
},
{
anchors = (
{
name = bottom;
pos = (220,0);
},
{
name = center;
pos = (180,289);
},
{
name = top;
pos = (153,754);
},
{
name = topright;
pos = (280,918);
}
);
layerId = "F66B25F0-8957-42F3-9BF7-6C5DDCB0258B";
shapes = (
{
closed = 1;
nodes = (
(271,-6,o),
(312,-1,o),
(330,2,c),
(330,130,l),
(318,128,o),
(303,126,o),
(286,126,cs),
(257,126,o),
(235,140,o),
(235,173,cs),
(235,471,l),
(317,471,l),
(317,578,l),
(235,578,l),
(235,754,l),
(70,754,l),
(70,578,l),
(14,578,l),
(14,471,l),
(70,471,l),
(70,157,ls),
(70,53,o),
(102,-6,o),
(232,-6,cs)
);
}
);
width = 351;
}
);
unicode = 116;
userData = {
com.fontlab.hintData = {
hhints = (
{
position = -13;
width = 313;
}
);
};
com.typemytype.robofont.layerData = {
b = {
anchors = (
);
components = (
);
contours = (
);
lib = {
};
name = t;
unicodes = (
);
width = 755;
};
};
};
},
{
glyphname = tbar;
kernLeft = t;
kernRight = t;
layers = (
{
layerId = "FCD7E481-103E-4A6C-AD70-01DA443B2AD0";
shapes = (
{
closed = 1;
nodes = (
(233,362,l),
(233,395,l),
(29,395,l),
(29,362,l)
);
},
{
ref = t;
}
);
width = 244;
},
{
associatedMasterId = "FCD7E481-103E-4A6C-AD70-01DA443B2AD0";
layerId = "9E3458E5-430B-4A6C-9DB0-56F0B3DB062F";
name = b;
width = 244;
},
{
layerId = "8AC5A1D3-32A8-4416-86FC-94176A419B8F";
shapes = (
{
closed = 1;
nodes = (
(290,340,l),
(290,395,l),
(26,395,l),
(26,340,l)
);
},
{
ref = t;
}
);
width = 244;
},
{
layerId = "F66B25F0-8957-42F3-9BF7-6C5DDCB0258B";
shapes = (
{
closed = 1;
nodes = (
(315,303,l),
(315,373,l),
(13,373,l),
(13,303,l)
);
},
{
alignment = -1;
ref = t;
}
);
width = 337;
}
);
unicode = 359;
userData = {
com.fontlab.hintData = {
hhints = (
{
position = -13;
width = 313;
}
);
};
com.typemytype.robofont.layerData = {
b = {
anchors = (
);
components = (
);
contours = (
);
lib = {
};
name = tbar;
unicodes = (
);
width = 500;
};
};
};
},
{
glyphname = u;
kernLeft = u;
kernRight = u;
layers = (
{
anchors = (
{
name = bottom;
pos = (198,0);
},
{
name = ogonek;
pos = (311,0);
},
{
name = top;
pos = (198,578);
},
{
name = topright;
pos = (299,578);
}
);
layerId = "FCD7E481-103E-4A6C-AD70-01DA443B2AD0";
shapes = (
{
closed = 1;
nodes = (
(198,-9,o),
(248,21,o),
(285,68,c),
(285,0,l),
(337,0,l),
(337,578,l),
(285,578,l),
(285,102,l),
(250,61,o),
(207,32,o),
(166,32,cs),
(129,32,o),
(105,52,o),
(105,123,cs),
(105,578,l),
(52,578,l),
(52,117,ls),
(52,25,o),
(91,-9,o),
(143,-9,cs)
);
}
);
width = 395;
},
{
associatedMasterId = "FCD7E481-103E-4A6C-AD70-01DA443B2AD0";
layerId = "81EEA61D-F192-43C0-B3BA-30F3CCB75E1B";
name = b;
width = 525;
},
{
anchors = (
{
name = bottom;
pos = (220,0);
},
{
name = ogonek;
pos = (332,0);
},
{
name = top;
pos = (220,578);
},
{
name = topright;
pos = (303,578);
}
);
layerId = "8AC5A1D3-32A8-4416-86FC-94176A419B8F";
shapes = (
{
closed = 1;
nodes = (
(193,-8,o),
(240,21,o),
(278,57,c),
(278,0,l),
(385,0,l),
(385,578,l),
(278,578,l),
(278,112,l),
(254,92,o),
(227,76,o),
(203,76,cs),
(166,76,o),
(157,101,o),
(157,142,cs),
(157,578,l),
(50,578,l),
(50,110,ls),
(50,54,o),
(68,-8,o),
(137,-8,cs)
);
}
);
width = 440;
},
{
anchors = (
{
name = bottom;
pos = (252,0);
},
{
name = ogonek;
pos = (372,0);
},
{
name = top;
pos = (252,578);
},
{
name = topright;
pos = (350,578);
}
);
layerId = "F66B25F0-8957-42F3-9BF7-6C5DDCB0258B";
shapes = (
{
closed = 1;
nodes = (
(202,-10,o),
(248,14,o),
(290,53,c),
(290,0,l),
(452,0,l),
(452,578,l),
(290,578,l),
(290,118,l),
(272,108,o),
(256,100,o),
(242,100,cs),
(217,100,o),
(208,116,o),
(208,144,cs),
(208,578,l),
(45,578,l),
(45,125,ls),
(45,48,o),
(82,-10,o),
(153,-10,cs)
);
}
);
width = 504;
}
);
unicode = 117;
userData = {
com.fontlab.hintData = {
hhints = (
{
position = -22;
width = 258;
}
);
};
com.typemytype.robofont.layerData = {
b = {
anchors = (
);
components = (
);
contours = (
);
lib = {
};
name = u;
unicodes = (
);
width = 1075;
};
};
};
},
{
glyphname = v;
kernRight = v;
layers = (
{
anchors = (
{
name = bottom;
pos = (179,0);
},
{
name = top;
pos = (179,578);
}
);
layerId = "FCD7E481-103E-4A6C-AD70-01DA443B2AD0";
shapes = (
{
closed = 1;
nodes = (
(211,0,l),
(338,578,l),
(287,578,l),
(181,67,l),
(73,578,l),
(19,578,l),
(152,0,l)
);
}
);
width = 357;
},
{
associatedMasterId = "FCD7E481-103E-4A6C-AD70-01DA443B2AD0";
layerId = "C6B74EBF-483B-4C34-9A77-AFBF07549F9B";
name = b;
width = 346;
},
{
anchors = (
{
name = bottom;
pos = (193,0);
},
{
name = top;
pos = (193,578);
}
);
layerId = "8AC5A1D3-32A8-4416-86FC-94176A419B8F";
shapes = (
{
closed = 1;
nodes = (
(260,0,l),
(370,578,l),
(266,578,l),
(194,113,l),
(123,578,l),
(15,578,l),
(129,0,l)
);
}
);
width = 385;
},
{
anchors = (
{
name = bottom;
pos = (211,0);
},
{
name = top;
pos = (211,578);
}
);
layerId = "F66B25F0-8957-42F3-9BF7-6C5DDCB0258B";
shapes = (
{
closed = 1;
nodes = (
(295,0,l),
(414,578,l),
(258,578,l),
(214,209,l),
(166,578,l),
(10,578,l),
(126,0,l)
);
}
);
width = 421;
}
);
unicode = 118;
userData = {
com.typemytype.robofont.layerData = {
b = {
anchors = (
);
components = (
);
contours = (
);
lib = {
};
name = v;
unicodes = (
);
width = 708;
};
};
};
},
{
glyphname = w;
kernLeft = w;
kernRight = w;
layers = (
{
anchors = (
{
name = bottom;
pos = (283,0);
},
{
name = top;
pos = (283,578);
}
);
layerId = "FCD7E481-103E-4A6C-AD70-01DA443B2AD0";
shapes = (
{
closed = 1;
nodes = (
(188,0,l),
(286,507,l),
(386,0,l),
(441,0,l),
(534,578,l),
(487,578,l),
(412,63,l),
(311,578,l),
(259,578,l),
(160,61,l),
(80,578,l),
(33,578,l),
(128,0,l)
);
}
);
width = 566;
},
{
associatedMasterId = "FCD7E481-103E-4A6C-AD70-01DA443B2AD0";
layerId = "5F1A9E24-9E70-4E27-9F2A-D3F1D251C808";
name = b;
width = 558;
},
{
anchors = (
{
name = bottom;
pos = (294,0);
},
{
name = top;
pos = (294,578);
}
);
layerId = "8AC5A1D3-32A8-4416-86FC-94176A419B8F";
shapes = (
{
closed = 1;
nodes = (
(217,0,l),
(295,408,l),
(374,0,l),
(464,0,l),
(560,578,l),
(472,578,l),
(412,154,l),
(335,578,l),
(253,578,l),
(176,152,l),
(116,578,l),
(28,578,l),
(121,0,l)
);
}
);
width = 588;
},
{
anchors = (
{
name = bottom;
pos = (299,0);
},
{
name = top;
pos = (299,578);
}
);
layerId = "F66B25F0-8957-42F3-9BF7-6C5DDCB0258B";
shapes = (
{
closed = 1;
nodes = (
(244,0,l),
(300,325,l),
(350,0,l),
(490,0,l),
(576,578,l),
(450,578,l),
(401,242,l),
(362,578,l),
(244,578,l),
(199,250,l),
(157,578,l),
(21,578,l),
(106,0,l)
);
}
);
width = 597;
}
);
unicode = 119;
userData = {
com.fontlab.hintData = {
vhints = (
{
position = 495;
width = 266;
}
);
};
com.typemytype.robofont.layerData = {
b = {
anchors = (
);
components = (
);
contours = (
);
lib = {
};
name = w;
unicodes = (
);
width = 1142;
};
};
};
},
{
glyphname = x;
layers = (
{
anchors = (
{
name = bottom;
pos = (188,0);
},
{
name = top;
pos = (188,578);
}
);
layerId = "FCD7E481-103E-4A6C-AD70-01DA443B2AD0";
shapes = (
{
closed = 1;
nodes = (
(72,0,l),
(187,246,l),
(305,0,l),
(355,0,l),
(216,296,l),
(353,578,l),
(298,578,l),
(191,349,l),
(83,578,l),
(29,578,l),
(161,301,l),
(20,0,l)
);
}
);
width = 375;
},
{
associatedMasterId = "FCD7E481-103E-4A6C-AD70-01DA443B2AD0";
layerId = "CDD1C723-703C-486E-B65C-1FBCAA29EF53";
name = b;
width = 369;
},
{
anchors = (
{
name = bottom;
pos = (195,0);
},
{
name = top;
pos = (195,578);
}
);
layerId = "8AC5A1D3-32A8-4416-86FC-94176A419B8F";
shapes = (
{
closed = 1;
nodes = (
(110,0,l),
(188,196,l),
(279,0,l),
(381,0,l),
(247,291,l),
(379,578,l),
(274,578,l),
(199,395,l),
(114,578,l),
(12,578,l),
(139,304,l),
(9,0,l)
);
}
);
width = 389;
},
{
anchors = (
{
name = bottom;
pos = (221,0);
},
{
name = top;
pos = (221,578);
}
);
layerId = "F66B25F0-8957-42F3-9BF7-6C5DDCB0258B";
shapes = (
{
closed = 1;
nodes = (
(146,0,l),
(204,159,l),
(274,0,l),
(440,0,l),
(309,293,l),
(423,578,l),
(298,578,l),
(243,439,l),
(181,578,l),
(17,578,l),
(134,317,l),
(11,0,l)
);
}
);
width = 442;
}
);
unicode = 120;
userData = {
com.typemytype.robofont.layerData = {
b = {
anchors = (
);
components = (
);
contours = (
);
lib = {
};
name = x;
unicodes = (
);
width = 756;
};
};
};
},
{
glyphname = y;
kernLeft = v;
kernRight = v;
layers = (
{
anchors = (
{
name = bottom;
pos = (270,0);
},
{
name = top;
pos = (188,578);
}
);
layerId = "FCD7E481-103E-4A6C-AD70-01DA443B2AD0";
shapes = (
{
closed = 1;
nodes = (
(59,-144,l),
(153,-144,o),
(197,-114,o),
(212,-47,cs),
(353,578,l),
(300,578,l),
(190,50,l),
(76,578,l),
(24,578,l),
(146,59,ls),
(154,27,o),
(162,-5,o),
(162,-31,cs),
(162,-69,o),
(151,-101,o),
(37,-101,c),
(37,-144,l)
);
}
);
width = 375;
},
{
anchors = (
{
name = bottom;
pos = (318,0);
},
{
name = top;
pos = (196,578);
}
);
layerId = "8AC5A1D3-32A8-4416-86FC-94176A419B8F";
shapes = (
{
closed = 1;
nodes = (
(58,-145,l),
(163,-145,o),
(224,-116,o),
(243,-32,cs),
(381,578,l),
(273,578,l),
(198,146,l),
(120,578,l),
(12,578,l),
(128,86,ls),
(139,39,o),
(150,-8,o),
(150,-20,cs),
(150,-54,o),
(123,-63,o),
(45,-63,c),
(45,-145,l)
);
}
);
width = 392;
},
{
anchors = (
{
name = bottom;
pos = (403,0);
},
{
name = top;
pos = (224,578);
}
);
layerId = "F66B25F0-8957-42F3-9BF7-6C5DDCB0258B";
shapes = (
{
closed = 1;
nodes = (
(104,-168,l),
(206,-168,o),
(278,-134,o),
(305,-14,cs),
(438,578,l),
(284,578,l),
(229,244,l),
(156,578,l),
(3,578,l),
(139,91,ls),
(151,50,o),
(160,16,o),
(160,-6,cs),
(160,-45,o),
(128,-55,o),
(67,-55,c),
(67,-168,l)
);
}
);
width = 448;
}
);
unicode = 121;
userData = {
com.fontlab.hintData = {
};
hhints = {
};
position = -294;
width = 56;
};
},
{
glyphname = z;
kernLeft = z;
kernRight = z;
layers = (
{
anchors = (
{
name = bottom;
pos = (163,0);
},
{
name = top;
pos = (172,578);
}
);
layerId = "FCD7E481-103E-4A6C-AD70-01DA443B2AD0";
shapes = (
{
closed = 1;
nodes = (
(292,0,l),
(292,41,l),
(88,41,l),
(295,543,l),
(295,578,l),
(54,578,l),
(54,537,l),
(241,537,l),
(32,39,l),
(32,0,l)
);
}
);
width = 325;
},
{
associatedMasterId = "FCD7E481-103E-4A6C-AD70-01DA443B2AD0";
layerId = "2B42D809-E944-4BD9-8968-66C364E1B0A4";
name = b;
width = 316;
},
{
anchors = (
{
name = bottom;
pos = (174,0);
},
{
name = top;
pos = (184,578);
}
);
layerId = "8AC5A1D3-32A8-4416-86FC-94176A419B8F";
shapes = (
{
closed = 1;
nodes = (
(320,0,l),
(320,81,l),
(146,81,l),
(324,520,l),
(324,578,l),
(50,578,l),
(50,498,l),
(209,498,l),
(32,72,l),
(32,0,l)
);
}
);
width = 347;
},
{
anchors = (
{
name = bottom;
pos = (196,0);
},
{
name = top;
pos = (196,578);
}
);
layerId = "F66B25F0-8957-42F3-9BF7-6C5DDCB0258B";
shapes = (
{
closed = 1;
nodes = (
(366,0,l),
(366,119,l),
(203,119,l),
(364,479,l),
(364,578,l),
(47,578,l),
(47,459,l),
(194,459,l),
(35,105,l),
(35,0,l)
);
}
);
width = 392;
}
);
unicode = 122;
userData = {
com.fontlab.hintData = {
vhints = (
{
position = 56;
width = 676;
}
);
};
com.typemytype.robofont.layerData = {
b = {
anchors = (
);
components = (
);
contours = (
);
lib = {
};
name = z;
unicodes = (
);
width = 648;
};
};
};
},
{
glyphname = f_f_i;
kernLeft = f;
kernRight = i;
layers = (
{
anchors = (
{
name = caret_1;
pos = (227.333,0);
},
{
name = caret_2;
pos = (454.667,0);
}
);
layerId = "FCD7E481-103E-4A6C-AD70-01DA443B2AD0";
shapes = (
{
closed = 1;
nodes = (
(148,0,l),
(148,541,l),
(328,541,l),
(328,0,l),
(381,0,l),
(381,541,l),
(558,541,l),
(558,0,l),
(611,0,l),
(611,578,l),
(381,578,l),
(381,657,ls),
(381,720,o),
(388,746,o),
(433,746,cs),
(445,746,o),
(462,743,o),
(475,740,c),
(475,780,l),
(459,785,o),
(439,787,o),
(422,787,cs),
(334,787,o),
(328,729,o),
(328,656,cs),
(328,578,l),
(148,578,l),
(148,657,ls),
(148,720,o),
(155,746,o),
(200,746,cs),
(212,746,o),
(229,743,o),
(242,740,c),
(242,780,l),
(226,785,o),
(206,787,o),
(189,787,cs),
(102,787,o),
(95,729,o),
(95,656,cs),
(95,578,l),
(17,578,l),
(17,541,l),
(95,541,l),
(95,0,l)
);
},
{
closed = 1;
nodes = (
(611,654,l),
(611,746,l),
(558,746,l),
(558,654,l)
);
}
);
width = 682;
},
{
associatedMasterId = "FCD7E481-103E-4A6C-AD70-01DA443B2AD0";
layerId = "44E494FB-1D23-4073-A5F6-59B471DCABF3";
name = b;
width = 660;
},
{
anchors = (
{
name = caret_1;
pos = (245.333,0);
},
{
name = caret_2;
pos = (490.667,0);
}
);
layerId = "8AC5A1D3-32A8-4416-86FC-94176A419B8F";
shapes = (
{
closed = 1;
nodes = (
(195,0,l),
(195,499,l),
(329,499,l),
(329,0,l),
(435,0,l),
(435,499,l),
(569,499,l),
(569,0,l),
(675,0,l),
(675,578,l),
(435,578,l),
(435,626,ls),
(435,671,o),
(441,701,o),
(483,701,cs),
(495,701,o),
(511,699,o),
(523,696,c),
(523,774,l),
(501,779,o),
(480,781,o),
(454,781,cs),
(345,781,o),
(329,715,o),
(329,608,cs),
(329,578,l),
(195,578,l),
(195,626,ls),
(195,671,o),
(201,701,o),
(243,701,cs),
(255,701,o),
(271,699,o),
(283,696,c),
(283,774,l),
(261,779,o),
(240,781,o),
(213,781,cs),
(104,781,o),
(88,715,o),
(88,608,cs),
(88,578,l),
(19,578,l),
(19,499,l),
(88,499,l),
(88,0,l)
);
},
{
closed = 1;
nodes = (
(676,664,l),
(676,776,l),
(569,776,l),
(569,664,l)
);
}
);
width = 736;
},
{
anchors = (
{
name = caret_1;
pos = (268,0);
},
{
name = caret_2;
pos = (536,0);
}
);
layerId = "F66B25F0-8957-42F3-9BF7-6C5DDCB0258B";
shapes = (
{
closed = 1;
nodes = (
(228,0,l),
(228,470,l),
(331,470,l),
(331,0,l),
(494,0,l),
(494,470,l),
(595,470,l),
(595,0,l),
(757,0,l),
(757,578,l),
(494,578,l),
(494,624,ls),
(494,656,o),
(505,668,o),
(527,668,cs),
(537,668,o),
(549,666,o),
(559,664,c),
(559,785,l),
(530,789,o),
(514,790,o),
(490,790,cs),
(350,790,o),
(331,723,o),
(331,621,cs),
(331,578,l),
(228,578,l),
(228,624,ls),
(228,656,o),
(239,668,o),
(261,668,cs),
(270,668,o),
(281,666,o),
(291,664,c),
(291,785,l),
(263,789,o),
(249,790,o),
(225,790,cs),
(84,790,o),
(66,723,o),
(66,621,cs),
(66,578,l),
(10,578,l),
(10,470,l),
(66,470,l),
(66,0,l)
);
},
{
closed = 1;
nodes = (
(757,676,l),
(757,789,l),
(609,789,l),
(609,676,l)
);
}
);
width = 803;
}
);
userData = {
com.fontlab.hintData = {
};
com.typemytype.robofont.layerData = {
b = {
anchors = (
);
components = (
);
contours = (
);
lib = {
};
name = uniFB03;
unicodes = (
);
width = 1351;
};
};
hhints = {
};
position = 1234;
vhints = {
};
width = 237;
};
},
{
glyphname = f_f_l;
kernLeft = f;
kernRight = l;
layers = (
{
anchors = (
{
name = caret_1;
pos = (222.333,0);
},
{
name = caret_2;
pos = (444.667,0);
}
);
layerId = "FCD7E481-103E-4A6C-AD70-01DA443B2AD0";
shapes = (
{
closed = 1;
nodes = (
(327,796,o),
(318,721,o),
(318,656,cs),
(318,578,l),
(148,578,l),
(148,657,ls),
(148,720,o),
(155,746,o),
(200,746,cs),
(212,746,o),
(229,743,o),
(242,740,c),
(242,780,l),
(226,785,o),
(206,787,o),
(189,787,cs),
(102,787,o),
(95,729,o),
(95,656,cs),
(95,578,l),
(17,578,l),
(17,541,l),
(95,541,l),
(95,0,l),
(148,0,l),
(148,541,l),
(318,541,l),
(318,0,l),
(371,0,l),
(371,541,l),
(468,541,l),
(468,578,l),
(371,578,l),
(371,653,ls),
(371,710,o),
(374,755,o),
(473,755,cs),
(494,755,o),
(518,753,o),
(548,750,c),
(548,0,l),
(601,0,l),
(601,780,l),
(547,791,o),
(504,796,o),
(469,796,cs)
);
}
);
width = 667;
},
{
associatedMasterId = "FCD7E481-103E-4A6C-AD70-01DA443B2AD0";
layerId = "212389A6-2B71-46FF-BB6E-68F5451CFA53";
name = b;
width = 776;
},
{
anchors = (
{
name = caret_1;
pos = (258.667,0);
},
{
name = caret_2;
pos = (517.333,0);
}
);
layerId = "8AC5A1D3-32A8-4416-86FC-94176A419B8F";
shapes = (
{
closed = 1;
nodes = (
(353,801,o),
(349,693,o),
(349,608,cs),
(349,578,l),
(195,578,l),
(195,626,ls),
(195,671,o),
(201,701,o),
(243,701,cs),
(255,701,o),
(271,699,o),
(283,696,c),
(283,774,l),
(259,779,o),
(240,781,o),
(213,781,cs),
(104,781,o),
(88,715,o),
(88,608,cs),
(88,578,l),
(19,578,l),
(19,499,l),
(88,499,l),
(88,0,l),
(195,0,l),
(195,499,l),
(349,499,l),
(349,0,l),
(456,0,l),
(456,499,l),
(544,499,l),
(544,578,l),
(456,578,l),
(456,610,ls),
(456,675,o),
(457,721,o),
(550,721,cs),
(567,721,o),
(587,720,o),
(611,717,c),
(611,0,l),
(718,0,l),
(718,776,l),
(642,793,o),
(582,801,o),
(534,801,cs)
);
}
);
width = 776;
},
{
anchors = (
{
name = caret_1;
pos = (286,0);
},
{
name = caret_2;
pos = (572,0);
}
);
layerId = "F66B25F0-8957-42F3-9BF7-6C5DDCB0258B";
shapes = (
{
closed = 1;
nodes = (
(376,807,o),
(362,708,o),
(362,621,cs),
(362,578,l),
(235,578,l),
(235,624,ls),
(235,656,o),
(249,669,o),
(273,669,cs),
(285,669,o),
(299,666,o),
(308,664,c),
(308,785,l),
(279,789,o),
(255,790,o),
(230,790,cs),
(90,790,o),
(72,723,o),
(72,621,cs),
(72,578,l),
(17,578,l),
(17,468,l),
(72,468,l),
(72,0,l),
(235,0,l),
(235,468,l),
(362,468,l),
(362,0,l),
(525,0,l),
(525,468,l),
(587,468,l),
(587,578,l),
(525,578,l),
(525,620,ls),
(525,663,o),
(530,698,o),
(606,698,cs),
(617,698,o),
(628,698,o),
(641,696,c),
(641,0,l),
(804,0,l),
(804,785,l),
(718,801,o),
(649,807,o),
(593,807,cs)
);
}
);
width = 858;
}
);
metricLeft = f;
metricRight = l;
userData = {
com.fontlab.hintData = {
};
com.typemytype.robofont.layerData = {
b = {
anchors = (
);
components = (
);
contours = (
);
lib = {
};
name = uniFB04;
unicodes = (
);
width = 1589;
};
};
hhints = {
};
position = 1234;
vhints = {
};
width = 237;
};
},
{
glyphname = fi;
kernLeft = f;
kernRight = i;
layers = (
{
anchors = (
{
name = caret_1;
pos = (214.5,0);
}
);
layerId = "FCD7E481-103E-4A6C-AD70-01DA443B2AD0";
shapes = (
{
closed = 1;
nodes = (
(148,0,l),
(148,541,l),
(305,541,l),
(305,0,l),
(358,0,l),
(358,578,l),
(148,578,l),
(148,657,ls),
(148,723,o),
(155,745,o),
(200,745,cs),
(213,745,o),
(229,743,o),
(242,740,c),
(242,780,l),
(228,784,o),
(207,787,o),
(192,787,cs),
(105,787,o),
(95,731,o),
(95,656,cs),
(95,578,l),
(17,578,l),
(17,541,l),
(95,541,l),
(95,0,l)
);
},
{
closed = 1;
nodes = (
(358,654,l),
(358,746,l),
(308,746,l),
(308,654,l)
);
}
);
width = 429;
},
{
associatedMasterId = "FCD7E481-103E-4A6C-AD70-01DA443B2AD0";
layerId = "380FB0A8-AE65-49F8-8745-75638EAE01AD";
name = b;
width = 404;
},
{
anchors = (
{
name = caret_1;
pos = (245.5,0);
}
);
layerId = "8AC5A1D3-32A8-4416-86FC-94176A419B8F";
shapes = (
{
closed = 1;
nodes = (
(195,0,l),
(195,499,l),
(324,499,l),
(324,0,l),
(431,0,l),
(431,578,l),
(195,578,l),
(195,626,ls),
(195,679,o),
(204,700,o),
(246,700,cs),
(256,700,o),
(270,699,o),
(283,696,c),
(283,776,l),
(262,779,o),
(242,780,o),
(225,780,cs),
(120,780,o),
(88,723,o),
(88,608,cs),
(88,578,l),
(19,578,l),
(19,499,l),
(88,499,l),
(88,0,l)
);
},
{
closed = 1;
nodes = (
(432,664,l),
(432,776,l),
(334,776,l),
(334,664,l)
);
}
);
width = 491;
},
{
anchors = (
{
name = caret_1;
pos = (276,0);
}
);
layerId = "F66B25F0-8957-42F3-9BF7-6C5DDCB0258B";
shapes = (
{
closed = 1;
nodes = (
(232,0,l),
(232,468,l),
(340,468,l),
(340,0,l),
(501,0,l),
(501,578,l),
(232,578,l),
(232,627,ls),
(232,665,o),
(247,676,o),
(270,676,cs),
(278,676,o),
(286,675,o),
(293,674,c),
(293,785,l),
(267,789,o),
(244,791,o),
(223,791,cs),
(103,791,o),
(69,724,o),
(69,621,cs),
(69,578,l),
(14,578,l),
(14,468,l),
(69,468,l),
(69,0,l)
);
},
{
closed = 1;
nodes = (
(501,676,l),
(501,789,l),
(350,789,l),
(350,676,l)
);
}
);
width = 551;
}
);
unicode = 64257;
userData = {
com.fontlab.hintData = {
hhints = (
{
position = 1303;
width = 277;
}
);
vhints = (
{
position = 80;
width = 32;
}
);
};
com.typemytype.robofont.guides = (
);
com.typemytype.robofont.layerData = {
b = {
anchors = (
);
components = (
);
contours = (
);
lib = {
};
name = uniFB01;
unicodes = (
);
width = 827;
};
};
};
},
{
glyphname = fl;
kernLeft = f;
kernRight = l;
layers = (
{
anchors = (
{
name = caret_1;
pos = (222,0);
}
);
layerId = "FCD7E481-103E-4A6C-AD70-01DA443B2AD0";
shapes = (
{
closed = 1;
nodes = (
(148,0,l),
(148,541,l),
(245,541,l),
(245,578,l),
(148,578,l),
(148,610,o),
(148,652,o),
(148,653,cs),
(148,710,o),
(151,755,o),
(250,755,cs),
(271,755,o),
(295,753,o),
(325,750,c),
(325,0,l),
(378,0,l),
(378,780,l),
(324,791,o),
(281,796,o),
(246,796,cs),
(104,796,o),
(95,721,o),
(95,656,cs),
(95,578,l),
(17,578,l),
(17,541,l),
(95,541,l),
(95,0,l)
);
}
);
width = 444;
},
{
associatedMasterId = "FCD7E481-103E-4A6C-AD70-01DA443B2AD0";
layerId = "32FC97EC-BBD9-4420-8A42-C47743B63620";
name = b;
width = 416;
},
{
anchors = (
{
name = caret_1;
pos = (257.5,0);
}
);
layerId = "8AC5A1D3-32A8-4416-86FC-94176A419B8F";
shapes = (
{
closed = 1;
nodes = (
(195,0,l),
(195,499,l),
(283,499,l),
(283,578,l),
(195,578,l),
(195,589,o),
(195,599,o),
(195,610,cs),
(195,675,o),
(196,721,o),
(289,721,cs),
(306,721,o),
(326,720,o),
(350,717,c),
(350,0,l),
(457,0,l),
(457,776,l),
(381,793,o),
(321,801,o),
(273,801,cs),
(92,801,o),
(88,693,o),
(88,608,cs),
(88,578,l),
(19,578,l),
(19,499,l),
(88,499,l),
(88,0,l)
);
}
);
width = 515;
},
{
anchors = (
{
name = caret_1;
pos = (276,0);
}
);
layerId = "F66B25F0-8957-42F3-9BF7-6C5DDCB0258B";
shapes = (
{
closed = 1;
nodes = (
(228,0,l),
(228,464,l),
(290,464,l),
(290,578,l),
(228,578,l),
(228,592,o),
(228,606,o),
(228,620,cs),
(228,663,o),
(233,698,o),
(309,698,cs),
(320,698,o),
(331,698,o),
(345,696,c),
(345,0,l),
(507,0,l),
(507,785,l),
(421,801,o),
(352,807,o),
(296,807,cs),
(80,807,o),
(66,708,o),
(66,621,cs),
(66,578,l),
(10,578,l),
(10,464,l),
(66,464,l),
(66,0,l)
);
}
);
width = 551;
}
);
unicode = 64258;
userData = {
com.fontlab.hintData = {
vhints = (
{
position = 80;
width = 32;
}
);
};
com.typemytype.robofont.layerData = {
b = {
anchors = (
);
components = (
);
contours = (
);
lib = {
};
name = uniFB02;
unicodes = (
);
width = 851;
};
};
};
},
{
glyphname = ordfeminine;
kernLeft = order;
layers = (
{
layerId = "FCD7E481-103E-4A6C-AD70-01DA443B2AD0";
shapes = (
{
closed = 1;
nodes = (
(209,351,o),
(251,378,o),
(269,416,c),
(273,358,l),
(313,358,l),
(313,655,ls),
(313,770,o),
(287,820,o),
(198,820,cs),
(119,820,o),
(76,780,o),
(74,695,c),
(118,695,l),
(118,768,o),
(158,785,o),
(198,785,cs),
(248,785,o),
(266,755,o),
(266,660,cs),
(266,622,l),
(96,553,o),
(60,526,o),
(60,450,cs),
(60,390,o),
(100,351,o),
(162,351,c)
);
},
{
closed = 1;
nodes = (
(141,388,o),
(106,403,o),
(106,455,cs),
(106,522,o),
(141,538,o),
(266,595,c),
(266,453,l),
(247,417,o),
(216,388,o),
(172,388,cs)
);
}
);
width = 373;
},
{
layerId = "8AC5A1D3-32A8-4416-86FC-94176A419B8F";
shapes = (
{
closed = 1;
nodes = (
(189,321,o),
(227,352,o),
(247,391,c),
(247,327,l),
(333,327,l),
(333,628,ls),
(333,751,o),
(307,822,o),
(197,822,cs),
(108,822,o),
(58,755,o),
(56,657,c),
(144,657,l),
(144,706,o),
(157,745,o),
(196,745,cs),
(232,745,o),
(239,707,o),
(239,658,cs),
(239,605,l),
(141,572,o),
(40,538,o),
(40,432,cs),
(40,368,o),
(82,321,o),
(141,321,c)
);
},
{
closed = 1;
nodes = (
(151,403,o),
(135,421,o),
(135,454,cs),
(135,509,o),
(185,537,o),
(239,563,c),
(239,450,l),
(228,426,o),
(204,403,o),
(176,403,cs)
);
}
);
width = 373;
},
{
layerId = "F66B25F0-8957-42F3-9BF7-6C5DDCB0258B";
shapes = (
{
closed = 1;
nodes = (
(212,313,o),
(249,348,o),
(266,389,c),
(275,322,l),
(404,322,l),
(404,664,ls),
(404,756,o),
(353,821,o),
(241,821,cs),
(125,821,o),
(53,767,o),
(51,647,c),
(192,643,l),
(197,696,o),
(204,716,o),
(229,716,cs),
(251,716,o),
(258,696,o),
(258,673,cs),
(258,619,l),
(149,584,o),
(36,548,o),
(36,433,cs),
(36,364,o),
(76,313,o),
(151,313,c)
);
},
{
closed = 1;
nodes = (
(193,409,o),
(175,427,o),
(175,458,cs),
(175,494,o),
(207,540,o),
(258,563,c),
(258,435,l),
(247,419,o),
(231,409,o),
(216,409,cs)
);
}
);
width = 440;
}
);
unicode = 170;
userData = {
com.fontlab.hintData = {
hhints = (
{
position = 637;
width = 204;
},
{
position = 1447;
width = 235;
}
);
vhints = (
{
position = 101;
width = 313;
}
);
};
};
},
{
glyphname = ordmasculine;
kernLeft = order;
layers = (
{
layerId = "FCD7E481-103E-4A6C-AD70-01DA443B2AD0";
shapes = (
{
closed = 1;
nodes = (
(287,351,o),
(314,412,o),
(314,497,cs),
(314,674,ls),
(314,760,o),
(283,820,o),
(182,820,cs),
(80,820,o),
(50,761,o),
(50,674,cs),
(50,497,ls),
(50,410,o),
(76,351,o),
(182,351,cs)
);
},
{
closed = 1;
nodes = (
(110,384,o),
(91,432,o),
(91,498,cs),
(91,673,ls),
(91,739,o),
(111,787,o),
(181,787,cs),
(253,787,o),
(271,739,o),
(271,673,cs),
(271,498,ls),
(271,432,o),
(253,384,o),
(181,384,cs)
);
}
);
width = 364;
},
{
layerId = "8AC5A1D3-32A8-4416-86FC-94176A419B8F";
shapes = (
{
closed = 1;
nodes = (
(321,320,o),
(364,396,o),
(364,505,cs),
(364,637,ls),
(364,746,o),
(321,822,o),
(210,822,cs),
(93,822,o),
(55,750,o),
(55,637,cs),
(55,505,ls),
(55,392,o),
(92,320,o),
(210,320,cs)
);
},
{
closed = 1;
nodes = (
(148,398,o),
(144,455,o),
(144,517,cs),
(144,625,ls),
(144,688,o),
(148,743,o),
(208,743,cs),
(269,743,o),
(270,688,o),
(270,625,cs),
(270,517,ls),
(270,454,o),
(269,398,o),
(208,398,cs)
);
}
);
width = 419;
},
{
layerId = "F66B25F0-8957-42F3-9BF7-6C5DDCB0258B";
shapes = (
{
closed = 1;
nodes = (
(318,313,o),
(389,367,o),
(389,470,cs),
(389,665,ls),
(389,768,o),
(318,822,o),
(215,822,cs),
(112,822,o),
(43,769,o),
(43,665,cs),
(43,470,ls),
(43,366,o),
(111,313,o),
(215,313,cs)
);
},
{
closed = 1;
nodes = (
(188,411,o),
(176,434,o),
(176,471,cs),
(176,664,ls),
(176,702,o),
(188,724,o),
(216,724,cs),
(245,724,o),
(256,703,o),
(256,664,cs),
(256,471,ls),
(256,433,o),
(245,411,o),
(216,411,cs)
);
}
);
width = 432;
}
);
unicode = 186;
userData = {
com.fontlab.hintData = {
hhints = (
{
position = 637;
width = 213;
},
{
position = 1469;
width = 214;
}
);
vhints = (
{
position = 142;
width = 300;
},
{
position = 575;
width = 299;
}
);
};
};
},
{
glyphname = "Be-cy";
kernLeft = "Be-cy";
layers = (
{
layerId = "FCD7E481-103E-4A6C-AD70-01DA443B2AD0";
shapes = (
{
closed = 1;
nodes = (
(220,0,ls),
(377,0,o),
(435,95,o),
(435,229,cs),
(435,388,o),
(367,468,o),
(218,468,cs),
(129,468,l),
(129,768,l),
(386,768,l),
(386,810,l),
(74,810,l),
(74,0,l)
);
},
{
closed = 1;
nodes = (
(129,424,l),
(221,424,ls),
(340,424,o),
(379,351,o),
(379,230,cs),
(379,110,o),
(339,44,o),
(221,44,cs),
(129,44,l)
);
}
);
width = 470;
},
{
associatedMasterId = "FCD7E481-103E-4A6C-AD70-01DA443B2AD0";
layerId = "F5856759-37C7-43FC-B285-B558C80DEF4F";
name = b;
width = 574;
},
{
layerId = "8AC5A1D3-32A8-4416-86FC-94176A419B8F";
shapes = (
{
closed = 1;
nodes = (
(207,0,ls),
(382,0,o),
(461,70,o),
(461,237,cs),
(461,423,o),
(376,473,o),
(201,473,cs),
(176,473,l),
(176,728,l),
(411,728,l),
(411,810,l),
(63,810,l),
(63,0,l)
);
},
{
closed = 1;
nodes = (
(176,391,l),
(205,391,ls),
(319,391,o),
(354,348,o),
(354,238,cs),
(354,105,o),
(308,81,o),
(208,81,cs),
(176,81,l)
);
}
);
width = 494;
},
{
layerId = "F66B25F0-8957-42F3-9BF7-6C5DDCB0258B";
shapes = (
{
closed = 1;
nodes = (
(264,0,ls),
(407,0,o),
(520,37,o),
(520,234,cs),
(520,396,o),
(433,468,o),
(280,468,cs),
(242,468,l),
(242,674,l),
(465,674,l),
(465,810,l),
(63,810,l),
(63,0,l)
);
},
{
closed = 1;
nodes = (
(242,344,l),
(263,344,ls),
(335,344,o),
(352,298,o),
(354,238,cs),
(356,155,o),
(333,117,o),
(265,117,cs),
(242,117,l)
);
}
);
width = 554;
}
);
unicode = 1041;
userData = {
com.fontlab.hintData = {
vhints = (
{
position = 683;
width = 380;
}
);
};
com.typemytype.robofont.layerData = {
b = {
anchors = (
);
components = (
);
contours = (
);
lib = {
};
name = afii10018;
unicodes = (
);
width = 1175;
};
};
};
},
{
color = 1;
glyphname = "Ge-cy";
kernLeft = "Be-cy";
kernRight = "Ge-cy";
layers = (
{
anchors = (
{
name = bottomright;
pos = (349,0);
},
{
name = top;
pos = (185,810);
}
);
layerId = "FCD7E481-103E-4A6C-AD70-01DA443B2AD0";
shapes = (
{
closed = 1;
nodes = (
(129,0,l),
(129,766,l),
(350,766,l),
(350,810,l),
(75,810,l),
(75,0,l)
);
}
);
width = 369;
},
{
associatedMasterId = "FCD7E481-103E-4A6C-AD70-01DA443B2AD0";
layerId = "35961E50-49F1-489E-8A1B-C45EBBA9260B";
name = b;
width = 489;
},
{
anchors = (
{
name = bottomright;
pos = (366,0);
},
{
name = top;
pos = (193,810);
}
);
layerId = "8AC5A1D3-32A8-4416-86FC-94176A419B8F";
shapes = (
{
closed = 1;
nodes = (
(176,0,l),
(176,726,l),
(376,726,l),
(376,810,l),
(63,810,l),
(63,0,l)
);
}
);
width = 391;
},
{
anchors = (
{
name = bottomright;
pos = (443,0);
},
{
name = top;
pos = (232,810);
}
);
layerId = "F66B25F0-8957-42F3-9BF7-6C5DDCB0258B";
shapes = (
{
closed = 1;
nodes = (
(242,0,l),
(242,677,l),
(439,677,l),
(439,810,l),
(63,810,l),
(63,0,l)
);
}
);
width = 464;
}
);
unicode = 1043;
userData = {
com.typemytype.robofont.layerData = {
b = {
anchors = (
);
components = (
);
contours = (
);
lib = {
};
name = afii10020;
unicodes = (
);
width = 1002;
};
};
};
},
{
glyphname = "Geupturn-cy";
kernLeft = "Be-cy";
kernRight = "Ge-cy";
layers = (
{
layerId = "FCD7E481-103E-4A6C-AD70-01DA443B2AD0";
shapes = (
{
closed = 1;
nodes = (
(129,0,l),
(129,768,l),
(355,768,l),
(355,897,l),
(318,897,l),
(318,810,l),
(74,810,l),
(74,0,l)
);
}
);
width = 373;
},
{
associatedMasterId = "FCD7E481-103E-4A6C-AD70-01DA443B2AD0";
layerId = "A850848D-B50A-4962-9FCF-1DBC194E9FCE";
name = b;
width = 489;
},
{
layerId = "8AC5A1D3-32A8-4416-86FC-94176A419B8F";
shapes = (
{
closed = 1;
nodes = (
(176,0,l),
(176,726,l),
(372,726,l),
(372,918,l),
(301,918,l),
(301,810,l),
(63,810,l),
(63,0,l)
);
}
);
width = 377;
},
{
layerId = "F66B25F0-8957-42F3-9BF7-6C5DDCB0258B";
shapes = (
{
closed = 1;
nodes = (
(242,0,l),
(242,677,l),
(438,677,l),
(438,941,l),
(333,941,l),
(333,810,l),
(63,810,l),
(63,0,l)
);
}
);
width = 461;
}
);
unicode = 1168;
userData = {
com.typemytype.robofont.layerData = {
b = {
anchors = (
);
components = (
);
contours = (
);
lib = {
};
name = uni0490;
unicodes = (
);
width = 1002;
};
};
};
},
{
color = 4;
glyphname = "Gedescender-cy";
layers = (
{
background = {
shapes = (
{
closed = 1;
nodes = (
(173,-134,l),
(173,42,l),
(123,42,l),
(129,-134,l)
);
}
);
};
layerId = "FCD7E481-103E-4A6C-AD70-01DA443B2AD0";
shapes = (
{
closed = 1;
nodes = (
(129,0,l),
(129,766,l),
(350,766,l),
(350,810,l),
(75,810,l),
(75,0,l)
);
},
{
closed = 1;
nodes = (
(187,-134,l),
(187,42,l),
(133,42,l),
(143,-134,l)
);
},
{
closed = 1;
nodes = (
(75,0,l),
(159,0,l),
(159,42,l),
(75,42,l)
);
}
);
width = 369;
},
{
layerId = "8AC5A1D3-32A8-4416-86FC-94176A419B8F";
shapes = (
{
closed = 1;
nodes = (
(176,0,l),
(176,726,l),
(371,726,l),
(371,810,l),
(63,810,l),
(63,0,l)
);
},
{
closed = 1;
nodes = (
(253,-147,l),
(253,81,l),
(151,81,l),
(165,-147,l)
);
},
{
closed = 1;
nodes = (
(120,0,l),
(181,0,l),
(181,81,l),
(120,81,l)
);
}
);
width = 386;
},
{
associatedMasterId = "8AC5A1D3-32A8-4416-86FC-94176A419B8F";
layerId = "3E059984-4D7B-40E2-8DF7-01F1DE2E4C9A";
name = "Oct 30 17, 17:02";
shapes = (
{
closed = 1;
nodes = (
(176,0,l),
(176,726,l),
(371,726,l),
(371,810,l),
(63,810,l),
(63,0,l)
);
},
{
closed = 1;
nodes = (
(239,-147,l),
(239,81,l),
(143,81,l),
(152,-147,l)
);
}
);
width = 386;
},
{
associatedMasterId = "FCD7E481-103E-4A6C-AD70-01DA443B2AD0";
layerId = "73233211-A239-4C70-A8F9-82BDA3D84BE6";
name = "Oct 30 17, 17:25";
shapes = (
{
closed = 1;
nodes = (
(129,0,l),
(129,766,l),
(350,766,l),
(350,810,l),
(75,810,l),
(75,0,l)
);
},
{
closed = 1;
nodes = (
(173,-134,l),
(173,42,l),
(123,42,l),
(129,-134,l)
);
}
);
width = 369;
},
{
layerId = "F66B25F0-8957-42F3-9BF7-6C5DDCB0258B";
shapes = (
{
closed = 1;
nodes = (
(242,0,l),
(242,677,l),
(438,677,l),
(438,810,l),
(63,810,l),
(63,0,l)
);
},
{
closed = 1;
nodes = (
(324,-160,l),
(324,121,l),
(186,121,l),
(211,-160,l)
);
},
{
closed = 1;
nodes = (
(133,0,l),
(281,0,l),
(281,121,l),
(133,121,l)
);
}
);
width = 463;
}
);
unicode = 1270;
},
{
color = 4;
glyphname = "Gestroke-cy";
kernLeft = "Ghestroke-cy";
kernRight = "Ghestroke-cy";
layers = (
{
layerId = "FCD7E481-103E-4A6C-AD70-01DA443B2AD0";
shapes = (
{
closed = 1;
nodes = (
(159,0,l),
(159,767,l),
(380,767,l),
(380,810,l),
(105,810,l),
(105,0,l)
);
},
{
closed = 1;
nodes = (
(295,434,l),
(295,477,l),
(42,477,l),
(42,434,l)
);
}
);
width = 399;
},
{
annotations = (
{
pos = (292,575);
text = "a barra menos comprida";
type = Text;
}
);
layerId = "8AC5A1D3-32A8-4416-86FC-94176A419B8F";
shapes = (
{
closed = 1;
nodes = (
(194,0,l),
(194,729,l),
(394,729,l),
(394,810,l),
(81,810,l),
(81,0,l)
);
},
{
closed = 1;
nodes = (
(323,396,l),
(323,482,l),
(14,482,l),
(14,396,l)
);
}
);
width = 409;
},
{
annotations = (
{
pos = (292,575);
text = "a barra menos comprida";
type = Text;
}
);
associatedMasterId = "8AC5A1D3-32A8-4416-86FC-94176A419B8F";
layerId = "F9015F18-F239-44C2-BBB3-95A8AFDF7BA3";
name = "Oct 25 17, 18:06";
shapes = (
{
closed = 1;
nodes = (
(-2,376,l),
(367,376,l),
(367,462,l),
(-2,462,l)
);
},
{
closed = 1;
nodes = (
(212,729,l),
(412,729,l),
(412,810,l),
(99,810,l),
(99,0,l),
(212,0,l)
);
}
);
width = 427;
},
{
layerId = "F66B25F0-8957-42F3-9BF7-6C5DDCB0258B";
shapes = (
{
closed = 1;
nodes = (
(280,0,l),
(280,689,l),
(477,689,l),
(477,810,l),
(101,810,l),
(101,0,l)
);
},
{
closed = 1;
nodes = (
(409,376,l),
(409,490,l),
(26,490,l),
(26,376,l)
);
}
);
width = 502;
}
);
unicode = 1170;
},
{
color = 4;
glyphname = "Gemiddlehook-cy";
kernLeft = "Be-cy";
layers = (
{
layerId = "FCD7E481-103E-4A6C-AD70-01DA443B2AD0";
shapes = (
{
closed = 1;
nodes = (
(392,-134,o),
(450,-78,o),
(450,50,cs),
(450,305,ls),
(450,416,o),
(377,458,o),
(293,458,cs),
(236,458,o),
(181,446,o),
(129,417,c),
(129,766,l),
(349,766,l),
(349,810,l),
(75,810,l),
(75,0,l),
(129,0,l),
(129,380,l),
(181,407,o),
(232,417,o),
(280,417,cs),
(353,417,o),
(396,380,o),
(396,307,cs),
(396,51,ls),
(396,-36,o),
(369,-91,o),
(265,-91,cs),
(257,-91,o),
(248,-90,o),
(240,-89,c),
(240,-131,l),
(250,-133,o),
(261,-134,o),
(271,-134,cs)
);
}
);
width = 510;
},
{
layerId = "8AC5A1D3-32A8-4416-86FC-94176A419B8F";
shapes = (
{
closed = 1;
nodes = (
(446,-147,o),
(498,-99,o),
(498,33,cs),
(498,285,ls),
(498,400,o),
(424,448,o),
(319,448,cs),
(267,448,o),
(217,436,o),
(176,415,c),
(176,726,l),
(371,726,l),
(371,810,l),
(63,810,l),
(63,0,l),
(176,0,l),
(176,351,l),
(219,369,o),
(265,372,o),
(287,372,cs),
(358,372,o),
(385,340,o),
(385,282,cs),
(385,28,ls),
(385,-50,o),
(352,-66,o),
(305,-66,cs),
(292,-66,o),
(287,-65,o),
(281,-65,c),
(281,-140,l),
(295,-146,o),
(337,-147,o),
(351,-147,cs)
);
}
);
width = 538;
},
{
associatedMasterId = "8AC5A1D3-32A8-4416-86FC-94176A419B8F";
layerId = "742F47B8-82AD-4535-BA56-29F377389338";
name = "Oct 31 17, 13:55";
shapes = (
{
closed = 1;
nodes = (
(176,0,l),
(176,726,l),
(371,726,l),
(371,810,l),
(63,810,l),
(63,0,l)
);
},
{
closed = 1;
nodes = (
(200,460,o),
(237,473,o),
(277,473,cs),
(356,473,o),
(442,425,o),
(442,310,cs),
(442,213,ls),
(442,63,o),
(376,0,o),
(256,0,cs),
(238,0,l),
(238,81,l),
(321,81,o),
(335,144,o),
(335,213,cs),
(335,307,ls),
(335,353,o),
(309,397,o),
(252,397,cs),
(231,397,o),
(205,391,o),
(176,376,c),
(176,439,l)
);
}
);
width = 600;
},
{
associatedMasterId = "8AC5A1D3-32A8-4416-86FC-94176A419B8F";
layerId = "E90AA068-883E-42CB-83AC-AB3186533419";
name = "Oct 31 17, 16:17";
shapes = (
{
closed = 1;
nodes = (
(176,0,l),
(176,376,l),
(205,391,o),
(230,397,o),
(253,397,cs),
(308,397,o),
(335,364,o),
(335,307,cs),
(335,33,ls),
(335,-58,o),
(309,-109,o),
(216,-109,c),
(216,-190,l),
(256,-190,ls),
(376,-190,o),
(442,-127,o),
(442,33,cs),
(442,310,ls),
(442,425,o),
(356,473,o),
(277,473,cs),
(237,473,o),
(200,460,o),
(176,439,c),
(176,726,l),
(371,726,l),
(371,810,l),
(63,810,l),
(63,0,l)
);
}
);
width = 486;
},
{
associatedMasterId = "8AC5A1D3-32A8-4416-86FC-94176A419B8F";
layerId = "DBB9B4F6-9C37-43CE-B39F-8759FEB27FA3";
name = "Oct 31 17, 16:52";
shapes = (
{
closed = 1;
nodes = (
(176,0,l),
(176,376,l),
(205,391,o),
(230,397,o),
(253,397,cs),
(308,397,o),
(335,364,o),
(335,307,cs),
(335,33,ls),
(335,-58,o),
(309,-109,o),
(216,-109,c),
(216,-190,l),
(256,-190,ls),
(382,-190,o),
(448,-127,o),
(448,33,cs),
(448,310,ls),
(448,425,o),
(375,473,o),
(282,473,cs),
(233,473,o),
(201,460,o),
(176,439,c),
(176,726,l),
(371,726,l),
(371,810,l),
(63,810,l),
(63,0,l)
);
}
);
width = 492;
},
{
associatedMasterId = "FCD7E481-103E-4A6C-AD70-01DA443B2AD0";
layerId = "690F0DD3-F42A-42FF-8618-2BF7CE76B499";
name = "Oct 31 17, 16:52";
shapes = (
{
closed = 1;
nodes = (
(129,0,l),
(129,400,l),
(160,424,o),
(198,437,o),
(234,437,cs),
(292,437,o),
(338,400,o),
(338,327,cs),
(338,-5,ls),
(338,-98,o),
(300,-148,o),
(178,-148,c),
(178,-190,l),
(209,-190,ls),
(330,-190,o),
(392,-134,o),
(392,-6,cs),
(392,325,ls),
(392,436,o),
(318,478,o),
(243,478,cs),
(197,478,o),
(153,461,o),
(129,437,c),
(129,766,l),
(350,766,l),
(350,810,l),
(75,810,l),
(75,0,l)
);
}
);
width = 437;
},
{
associatedMasterId = "8AC5A1D3-32A8-4416-86FC-94176A419B8F";
layerId = "1200BBB3-CC76-4737-9E5A-CE61CF5D8F30";
name = "Nov 2 17, 17:49";
shapes = (
{
closed = 1;
nodes = (
(176,0,l),
(176,376,l),
(205,391,o),
(229,397,o),
(257,397,cs),
(324,397,o),
(351,363,o),
(351,307,cs),
(351,33,ls),
(351,-58,o),
(325,-109,o),
(232,-109,c),
(232,-190,l),
(272,-190,ls),
(398,-190,o),
(464,-127,o),
(464,33,cs),
(464,310,ls),
(464,425,o),
(390,473,o),
(285,473,cs),
(231,473,o),
(201,460,o),
(176,439,c),
(176,726,l),
(371,726,l),
(371,810,l),
(63,810,l),
(63,0,l)
);
}
);
width = 513;
},
{
associatedMasterId = "8AC5A1D3-32A8-4416-86FC-94176A419B8F";
layerId = "2957716C-BE9C-4577-8A9A-51273DB21AC1";
name = "Nov 2 17, 17:53";
shapes = (
{
closed = 1;
nodes = (
(176,0,l),
(176,376,l),
(205,391,o),
(229,397,o),
(257,397,cs),
(324,397,o),
(351,363,o),
(351,307,cs),
(351,76,ls),
(351,-15,o),
(325,-66,o),
(232,-66,c),
(232,-147,l),
(272,-147,ls),
(398,-147,o),
(464,-84,o),
(464,76,cs),
(464,310,ls),
(464,425,o),
(390,473,o),
(285,473,cs),
(231,473,o),
(201,460,o),
(176,439,c),
(176,726,l),
(371,726,l),
(371,810,l),
(63,810,l),
(63,0,l)
);
}
);
width = 513;
},
{
associatedMasterId = "8AC5A1D3-32A8-4416-86FC-94176A419B8F";
layerId = "16DA2951-44A9-4FFB-97A6-45A820B7FD5D";
name = "Nov 2 17, 17:53";
shapes = (
{
closed = 1;
nodes = (
(176,0,l),
(176,376,l),
(205,391,o),
(229,397,o),
(257,397,cs),
(324,397,o),
(351,363,o),
(351,307,cs),
(351,76,ls),
(351,-15,o),
(325,-66,o),
(232,-66,c),
(232,-147,l),
(272,-147,ls),
(398,-147,o),
(464,-84,o),
(464,76,cs),
(464,310,ls),
(464,425,o),
(390,473,o),
(285,473,cs),
(231,473,o),
(201,460,o),
(176,439,c),
(176,726,l),
(371,726,l),
(371,810,l),
(63,810,l),
(63,0,l)
);
}
);
width = 513;
},
{
associatedMasterId = "FCD7E481-103E-4A6C-AD70-01DA443B2AD0";
layerId = "4DE2BA2D-B7BB-4E8B-A35B-D3AFE5361F65";
name = "Nov 10 17, 15:18";
shapes = (
{
closed = 1;
nodes = (
(358,-134,o),
(420,-78,o),
(420,50,cs),
(420,305,ls),
(420,416,o),
(347,458,o),
(263,458,cs),
(206,458,o),
(153,439,o),
(129,417,c),
(129,766,l),
(350,766,l),
(350,810,l),
(75,810,l),
(75,0,l),
(129,0,l),
(129,380,l),
(159,401,o),
(202,417,o),
(250,417,cs),
(323,417,o),
(366,380,o),
(366,307,cs),
(366,51,ls),
(366,-42,o),
(328,-92,o),
(206,-92,c),
(206,-133,l),
(216,-133,o),
(227,-134,o),
(237,-134,cs)
);
}
);
width = 470;
},
{
associatedMasterId = "8AC5A1D3-32A8-4416-86FC-94176A419B8F";
layerId = "F4816911-93CD-4C2B-914D-FD33E9C57565";
name = "Nov 10 17, 15:28";
shapes = (
{
closed = 1;
nodes = (
(412,-147,o),
(464,-99,o),
(464,8,cs),
(464,296,ls),
(464,411,o),
(388,459,o),
(290,459,cs),
(227,459,o),
(194,439,o),
(176,425,c),
(176,726,l),
(371,726,l),
(371,810,l),
(63,810,l),
(63,0,l),
(176,0,l),
(176,362,l),
(205,377,o),
(229,383,o),
(257,383,cs),
(324,383,o),
(351,349,o),
(351,293,cs),
(351,15,ls),
(351,-57,o),
(324,-71,o),
(265,-67,c),
(265,-140,l),
(279,-146,o),
(303,-147,o),
(317,-147,cs)
);
}
);
width = 513;
},
{
associatedMasterId = "8AC5A1D3-32A8-4416-86FC-94176A419B8F";
layerId = "34726118-8ACD-42AA-AE0B-689B8DD7264C";
name = "Nov 10 17, 15:29";
shapes = (
{
closed = 1;
nodes = (
(412,-147,o),
(464,-99,o),
(464,8,cs),
(464,296,ls),
(464,411,o),
(388,459,o),
(290,459,cs),
(227,459,o),
(194,439,o),
(176,425,c),
(176,726,l),
(371,726,l),
(371,810,l),
(63,810,l),
(63,0,l),
(176,0,l),
(176,362,l),
(205,377,o),
(229,383,o),
(257,383,cs),
(324,383,o),
(351,349,o),
(351,293,cs),
(351,15,ls),
(351,-57,o),
(324,-71,o),
(265,-67,c),
(265,-140,l),
(279,-146,o),
(303,-147,o),
(317,-147,cs)
);
}
);
width = 513;
},
{
associatedMasterId = "FCD7E481-103E-4A6C-AD70-01DA443B2AD0";
layerId = "54BE849F-2256-4CA5-89B6-7DE03FFC03D7";
name = "Nov 10 17, 18:23";
shapes = (
{
closed = 1;
nodes = (
(392,-134,o),
(450,-78,o),
(450,50,cs),
(450,305,ls),
(450,416,o),
(377,458,o),
(293,458,cs),
(236,458,o),
(181,446,o),
(129,417,c),
(129,766,l),
(349,766,l),
(349,810,l),
(75,810,l),
(75,0,l),
(129,0,l),
(129,380,l),
(181,407,o),
(232,417,o),
(280,417,cs),
(353,417,o),
(396,380,o),
(396,307,cs),
(396,51,ls),
(396,-36,o),
(369,-91,o),
(265,-91,cs),
(257,-91,o),
(248,-90,o),
(240,-89,c),
(240,-131,l),
(250,-133,o),
(261,-134,o),
(271,-134,cs)
);
}
);
width = 510;
},
{
layerId = "F66B25F0-8957-42F3-9BF7-6C5DDCB0258B";
shapes = (
{
closed = 1;
nodes = (
(506,-166,o),
(562,-92,o),
(562,4,cs),
(562,290,ls),
(562,425,o),
(484,481,o),
(375,481,cs),
(327,481,o),
(277,468,o),
(240,443,c),
(240,685,l),
(436,685,l),
(436,810,l),
(63,810,l),
(63,0,l),
(240,0,l),
(240,353,l),
(266,367,o),
(288,375,o),
(312,375,cs),
(366,375,o),
(385,348,o),
(385,291,cs),
(385,7,ls),
(385,-30,o),
(370,-50,o),
(341,-57,cs),
(332,-60,o),
(323,-61,o),
(313,-61,c),
(313,-162,l),
(325,-165,o),
(336,-166,o),
(376,-166,cs)
);
}
);
width = 604;
}
);
unicode = 1172;
},
